<?xml version="1.0" encoding="UTF-8"?>
<svg version="1.1" viewBox="0 0 1360 1200" width="1280" height="1280" xmlns="http://www.w3.org/2000/svg">
<path transform="translate(39,662)" d="m0 0h94l6 2 1 26v300l-1 32-1 6 22 1-1-101 1-83 6-4 10-1h99l1 1v179l-2 5-2 4h78l-5-14-15-58-5-20 3-4 3-1h22l8 2-9-6-4-4-5-7-10-6-2-6v-2l-4-2-12-8-15-11-8-8 1-5 5-4 10-3 8-2-4-4-5-3-9-2-9-7-5-7 7-10 3-3h13l12 4-3-5-13-13-6-8-5-10v-8l5-3h12l8 4 10 8 11 14 5 6 2 7 3-1 10-30 9-10 7-6 2-1h6l3 9v12l-2 13-8 14-1 2v6l12 11 3 4h2v-6l4-4 8-3-1-6-10-25v-21l1-2h6l11 7 7 9 6 12 3 11 4-1 14-12 14-14 7-4h15l4 2v8l-4 8-11 14-7 8h-2l-1 4 13-6 7 1 6 4 7 7-1 4-8 7-26 13 16 3 8 5-1 7-9 9-15 6-12 5-1 12-2 2-12 2-5 5-1 9-3 4-7 2v2l39 1 3 1 1 2-1 13-2 5-3 12-8 30-6 21-5 13h47l63 1-1-7 3-34v-5h-45l-5-2v-61l3-4 5-1h104l-1-7 1-54h302l1 1v59l-13 2-1 67h49l1 1v44l40 1v-194l1-1h306l4 9 11 41 11 43 15 57 7 29v10l-1 5-1 48-1 1h-1313l-1-1v-46l3-2h15l-4-10v-295l1-43 1-17zm306 186-2 1 2 6 5 1 2-2v-5l-1-1zm50 4-2 1 2 5 3 3 5-1 1-4-3-3zm-15 0-4 3v5l5 4h2l2 6 4 1-2-6-3-6-1-6zm57 13-9 4v3l4 1 7-6v-2zm-28 13-3 9-4 3-5 2v3l4 1 8-5 3-4 2-8zm-53 16-3 2-4 9 1 2 6-3 10-1v-4l-6-4zm36 19-1 2 2 6 4 1 5-5-1-3-2-1z" fill="#EC8A57"/>
<path transform="translate(265,124)" d="m0 0h55l14 1 1 35v348l-1 14h30v-199h72v198l10-1 1-197h69v198l10-1v-106l1-90 1-1h67l1 1v198l104-2 5-5 13-23 1-2v-7l-13-12-9-13-8-17-5-20v-17l6-22 6-14 7-11 1-5-5 2-10 9-11 9-5-2-5-6-4-8v-25l3-5 1-6-3-5-1-1v-7l2-3h10l4 3 6-1 12-6 9-1 6-12 4-3 73-1h38l5 3 7 10 5 5 15 4 3 2 6-1 3-2h10l2 2-1 8-3 4v7l4 7v24l-6 12-4 5-7-2-9-9v-2h-2l-5-5-3-2-5-1 4 10 5 8 7 16 4 16v24l-5 17-5 12-7 11-5 6h-2l-2 4-7 6 8 16 8 14 1 8-1 2 99-1h140v-185l1-170 2-9 1-1h52l1 1 1 271v93l18-1v-29l1-124 1-3h65l1 1v154l-1 2h11l-1-26v-74l1-39 1-18h64l2 1v153l-1 4h31l1 1v47l-1 1h-1314v-51h38v-358l2-6h85l1 1 1 363h12v-139l1-141h75l1 1v281l21-1 4-1 1-395zm456 171-2 1 1 5 11 10 4 4v4l-4 2-10 10-2 1v2l-4 2-3 4v4h6l27-14 14-4h28l16 4 19 10 7 3 6 1-1-4-9-11-8-7-5-6 3-3 12-7 3-3-2-6-2-2zm82 202-9 2-10 1-4 2h-15l-20-4-5 8-4 10v6h81l-2-10-7-14z" fill="#EC8A57"/>
<path transform="translate(985,835)" d="m0 0h306l4 9 11 41 11 43 15 57 7 29v10l-1 3h-226l-91 1h-37v-192z" fill="#FEF1DA"/>
<path transform="translate(605,855)" d="m0 0h302l1 1v59l-13 2-1 67h49l1 1v43l-399 1-4-1-1-5 3-34v-5h-45l-5-2v-61l3-4 5-1h104l-1-7z" fill="#FC6CB1"/>
<path transform="translate(39,662)" d="m0 0h94l6 2 1 26v300l-1 32-1 6-53 1h-27l-18-1-3-5-1-9v-290l1-43 1-17z" fill="#FD960C"/>
<path transform="translate(790,283)" d="m0 0h38l5 3 7 10 5 5 15 4 3 2 6-1 3-2h10l2 2-1 8-3 4v7l4 7v24l-6 12-4 5-7-2-9-9v-2h-2l-5-5-3-2-5-1 4 10 5 8 7 16 4 16v24l-5 17-5 12-7 11-5 6h-2l-2 4-7 6 8 16 8 14 1 8-1 2h30v1h-31v-3h-27l-1 2-5-15-5-9-8 1-15 2-4 2h-15l-20-4-7 14-2 8-1-2h-24l-5-5 11-21 2-3v-7l-13-12-9-13-8-17-5-20v-17l6-22 6-14 7-11 1-5-5 2-10 9-11 9-5-2-5-6-4-8v-25l3-5 1-6-3-5-1-1v-7l2-3h10l4 3 6-1 12-6 9-1 6-12 4-3zm-69 12-2 1 1 5 11 10 4 4v4l-4 2-10 10-2 1v2l-4 2-3 4v4h6l27-14 14-4h28l16 4 19 10 7 3 6 1-1-4-9-11-8-7-5-6 3-3 12-7 3-3-2-6-2-2z" fill="#FC70B3"/>
<path transform="translate(62,156)" d="m0 0h85l1 1v362l-68 1h-18l-2-3v-355z" fill="#46ECFC"/>
<path transform="translate(376,772)" d="m0 0h6l3 9v12l-2 13-8 14-1 2v6l12 11 3 4h2v-6l4-4 8-3-1-6-10-25v-21l1-2h6l11 7 7 9 6 12 3 11 4-1 14-12 14-14 7-4h15l4 2v8l-4 8-11 14-7 8h-2l-1 4 13-6 7 1 6 4 7 7-1 4-8 7-26 13 16 3 8 5-1 7-9 9-15 6-12 5-1 12-2 2-12 2-5 5-1 9-3 4-7 2v2l39 1 3 1 1 2-1 13-2 5-3 12-8 30-6 21-4 11-10 1h-52l-19-1-3-3-6-20-12-47-5-20 3-4 3-1h22l8 2-9-6-4-4-5-7-10-6-2-6v-2l-4-2-12-8-15-11-8-8 1-5 5-4 10-3 8-2-4-4-5-3-9-2-9-7-5-7 7-10 3-3h13l12 4-3-5-13-13-6-8-5-10v-8l5-3h12l8 4 10 8 11 14 5 6 2 7 3-1 10-30 9-10 7-6zm-31 76-2 1 2 6 5 1 2-2v-5l-1-1zm50 4-2 1 2 5 3 3 5-1 1-4-3-3zm-15 0-4 3v5l5 4h2l2 6 4 1-2-6-3-6-1-6zm57 13-9 4v3l4 1 7-6v-2zm-28 13-3 9-4 3-5 2v3l4 1 8-5 3-4 2-8zm-53 16-3 2-4 9 1 2 6-3 10-1v-4l-6-4zm36 19-1 2 2 6 4 1 5-5-1-3-2-1z" fill="#007BB1"/>
<path transform="translate(265,124)" d="m0 0h55l14 1 1 35v348l-1 12-23 1h-37l-10-1v-395z" fill="#006518"/>
<path transform="translate(176,840)" d="m0 0h99l1 1v179l-2 5-2 2-25 1h-87l-1-100 1-83 6-4z" fill="#038578"/>
<path transform="translate(162,240)" d="m0 0h75l1 1v281l-1-4-4-1-3-7h-57l-3 3-7 2-2 3v-137z" fill="#FD778D"/>
<path transform="translate(1013,240)" d="m0 0 9 1 43 14 15 6 3 4-2 11-14 44-7 19-14 40-7 21-4 20-19 56-7 21-5 11-4 11h-6l-8-4-26-7-20-6-10-4-1-1 1-7 5-10 1-13 4-8 9-29 8-26 14-37 10-31 13-43 8-27 7-19z" fill="#FE9F0B"/>
<path transform="translate(1089,156)" d="m0 0h52l1 1 1 271v92l-43 1-15-1v-184l1-170 2-9z" fill="#0073B2"/>
<path transform="translate(547,983)" d="m0 0h346l50 1 1 1v43l-399 1-4-1-1-5 3-34 2-5z" fill="#00C7A9"/>
<path transform="translate(636,923)" d="m0 0h146l63 1 31 1 1 9v46l-3 2h-270l-7-3-5-9v-45l11-1z" fill="#E50662"/>
<path transform="translate(763,342)" d="m0 0h25l12 4 16 8 10 9 10 10 6 11 3 17v25l-3 15-6 11-8 11-11 9-6 4-16 7-6 1h-31l-12-3-9-4-9-6-9-9-9-13-3-8-3-15-1-13v-12l3-17 5-10 9-10 17-12 14-7z" fill="#FEF1E8"/>
<path transform="translate(39,662)" d="m0 0h94l6 2 1 26v300l-1 32-1 6-53 1h-27l-18-1-3-5-1-9v-290l1-43 1-17zm35 22-6 5-6 8-9 6-2 9v268l1 12 3 5 8 5 6 8 3 1h29l9-4 12-12 2-8v-280l-6-9-5-4-5-7-7-3z" fill="#06D2FA"/>
<path transform="translate(364,323)" d="m0 0h72v198l-1-2-67 1h-4z" fill="#FD86CA"/>
<path transform="translate(528,323)" d="m0 0h67l1 1v198l-1-3h-67l-2-1v-104l1-90z" fill="#FD7EC8"/>
<path transform="translate(447,323)" d="m0 0h69v198l-1-2-67 1-1-1z" fill="#DB1EBA"/>
<path transform="translate(62,156)" d="m0 0h85l1 1v362l-68 1h-18l-2-3v-355zm10 16v40l2 7v27h3l1 6v70h-2l-1-4v40l-3 1v122l1 22 9 1h23l31-1 1-7 1-103v-64l-1-69v-87l-1-1z" fill="#53EDFB"/>
<path transform="translate(59,754)" d="m0 0h58l1 1v177l-3 2-55 1-2-1-1-44v-74l1-61z" fill="#02D1FD"/>
<path transform="translate(265,124)" d="m0 0h55v1l-46 1 1 10v204l-1 148 5-3 13-14 5-6h5l10 11 4 5 7 5v-65l1-270 1-25 1-1h8l1 35v348l-1 12-23 1h-37l-10-1v-395z" fill="#00E2AA"/>
<path transform="translate(1240,364)" d="m0 0h64l2 1v153l-2 4-12 1h-46l-7-1-1-27v-74l1-39z" fill="#FC689A"/>
<path transform="translate(1163,364)" d="m0 0h65l1 1v154l-1 1h-48l-17-1-1-1-1-8 1-143z" fill="#F62C28"/>
<path transform="translate(176,859)" d="m0 0h33v3l-10 6-7 4h-3v5l11 7 11 6 7 1h7v-2l19-10 6-3-1-3-16-8-2-5h28l1 1 1 24v123l-2 1h-27l-3-1 1-4 14-7 3-2h4l-2-4-18-10-10-5-7 1-20 11-5 2 1 5 15 9 8 5v2h-23l-15-1v-150z" fill="#01661D"/>
<path transform="translate(618,868)" d="m0 0h198l82 1v34l-22 1h-257l-2-1v-34z" fill="#FC99BF"/>
<path transform="translate(356,919)" d="m0 0 5 1 12 7 9 8 3 1h7l5-1 2 1h15l5-1 15-1h16l-1 14-6 25-5 22-3 13 6-19 5-18h1v7l-2 4-3 13-6 21-4 11-10 1h-52l-19-1-3-3-6-20-12-47-5-20 3-4 3-1h22l11 3-4-7-4-4z" fill="#602806"/>
<path transform="translate(1100,174)" d="m0 0h33l2 7v52l-1 43-1 134-2 9-1 1-26 3-3 1-1 29v35l1 13 1 4-7 1-2-2-1-14v-46l2-26 1-6 1-24v-47l-1-154 1-11z" fill="#EC8957"/>
<path transform="translate(605,855)" d="m0 0h302l1 1v59l-3 1-28 1h-268l-4-1-1-7zm13 13-1 1v34l2 1h257l22-1v-34l-82-1z" fill="#DB20BA"/>
<path transform="translate(731,935)" d="m0 0h137v31l-190 1h-76l-2-2 1-20 1-8 1-1z" fill="#FC6BB2"/>
<path transform="translate(393,776)" d="m0 0h6l11 7 7 9 6 12 3 11 4-1 14-12 14-14 7-4h15l4 2v8l-4 8-11 14-7 8h-2l-1 4 13-6 7 1 3 2-2 4-28 14-5 5-6 9h-2l-3 9-8 4v7l-2 2-6-1-11-12-7-5 1-5-5-3h-5l8 11 7 10 1 2v7l-3 5-4 3-5 1v3l6-1 6-4 4-9 7 4v7l-3 1-2 4-8 10-7 6-4-4v-2l-4-2-14-16-8-8-6-5-8-2-1-1v-5l3-2 6 1 2 5h9l-5-6-4-3v-5l4-4 5 1 3 6 5 3 3 6 3 1-6-12v-6h-2l-2-9-4-4h-6l-4-4v-2h-2l-2-3v-5l12-27 6-8 6-4-1 13-2 8-6 10-2 4v6l12 11 3 4h2v-6l4-4 8-3-1-6-10-25v-21z" fill="#FC9D0F"/>
<path transform="translate(547,983)" d="m0 0h296v1l-7 2-6-1v1l-16 1-10 4-4 4v3l1 6 1 3v3l1 2-4 6-7 3h-5v2l-4 2 1 2h-100l1-2-15-6-3-5-1-5 2-1 3-5 5-3-3-3-1-5h-2v-3l-7-1v-1l-43-1h-14v-2l-4 2h-11l-14 1-5 3-1 3 1 4-3 2v3h-2l3 1h3l1 1-1 8-1 2h2l-1 4-3 3-8 4-1 2h30v1l-19 1h-27l-4-1-1-5 3-34 2-5z" fill="#00C3B1"/>
<path transform="translate(971,395)" d="m0 0h12l17 5 9 5 10 3 8 4-1 9-12 36-10 28-6 20-2 2h-8v-2l-5-1v-2l-11-2-5-2-11-2-12-5-3-3v-6l2-5 3-12 8-26 5-15 4-13 5-12z" fill="#FEAB07"/>
<path transform="translate(1294,854)" d="m0 0 4 1 19 73 15 57 6 25v10h-46l-8-2-2-55v-101l9-6z" fill="#FDD8C4"/>
<path transform="translate(1240,364)" d="m0 0h64l2 1v153l-2 4-12 1h-46l-7-1-1-27v-74l1-39zm19 14-7 1-2 6-1 116 7 2h29l8-1 1-1 1-121-6-2z" fill="#F30D7D"/>
<path transform="translate(72,172)" d="m0 0h64l1 1v91l1 65v64l-1 103-1 7-41 1h-19l-3-1-1-22v-122l1-1h6l1 9v128l1 2 50 1v-41l-1-126-1-90-1-5h-45l-3-3v-13l3-2 47-1v-39l-15 1-34 1-2 33-1 3-4-1-2-3z" fill="#FEF2DC"/>
<path transform="translate(376,772)" d="m0 0h6l3 9v2l-7 2-9 9-8 16-5 14-2 5-2 20h-9l1 6 4 4 3 4-1 5-4 1-6-5-10-13-10-10-10-6-7-3-10-1 3 7 8 5 14 7 9 8 7 11 7 7 6 14 3 3 3 6-3 4-4-5-6-5-7-8-6-7-11-7-9-3h-4l3 7 6 4 9 5 12 11 13 12 5 8 1 4-5 2-7-6-8-5-1-7-4-2-12-8-15-11-8-8 1-5 5-4 10-3 8-2-4-4-5-3-9-2-9-7-5-7 7-10 3-3h13l12 4-3-5-13-13-6-8-5-10v-8l5-3h12l8 4 10 8 11 14 5 6 2 7 3-1 10-30 9-10 7-6z" fill="#FDB70A"/>
<path transform="translate(790,283)" d="m0 0h38l5 3 7 10 5 5 15 4 3 2 6-1 3-2h10l2 2-1 8-3 4v7l4 7v24l-6 12-4 5-7-2-9-9v-2h-2l-5-5-9-7-1-3-5-2-10-11-15-15 2-4 14-8 2-4-3-5h-107l2 6-6 2-2-4h-2l-2-6 6-9 2-1z" fill="#FC6DB3"/>
<path transform="translate(1112,184)" d="m0 0h12l1 1v230l-3 2h-15l-2-2-1-128v-99l4-3z" fill="#0073B1"/>
<path transform="translate(707,874)" d="m0 0h126l37 1 17 1 1 1v16l-1 1h-7l-3-1-12-1-1 4-7-2-23-1h-34l-36-1h-12l-17-1-5-1-4 1h-17l-43 2h-34l-3-1-1-3v-12l9-1 13-1z" fill="#FD93C1"/>
<path transform="translate(1013,240)" d="m0 0 9 1 43 14 15 6 3 4-2 11-14 44-7 19-8-3-1-3h3l1-6 7-22v-2l-13-5-22-7-21-7-8 21v8l7 3 15 4v2l10 2v2l11 3-3 5-5-1h-9l-11-2-10-3-7-4-1-6v-3l-6-3 3-12 9-31 7-20z" fill="#FDAC07"/>
<path transform="translate(172,854)" d="m0 0h95v30l-1 2h-4l-1-27h-32l2 4 16 8 4 3-2 4-22 11h-2v2l-10 1-10-4-13-8-4-3 1-5 11-6 9-5v-1h-33l-1 150h15l23 1v-2l-4-2-11-6-9-6-1-5 19-10 9-5 8 1 25 14 2 2v3l-7 3-17 9h-2v3h40l2 4-2 1-19 1h-75v-160z" fill="#FDFBFA"/>
<path transform="translate(467,353)" d="m0 0h30l1 7v127l-1 1h-29l-1-1z" fill="#C91EB9"/>
<path transform="translate(602,984)" d="m0 0h4v2l19-1 39 1 3 2 3 1v3h2l2 7 4 1-6 3-4 6h-2l4 9 15 6 1 2-2 1h-123l2-4 9-3 2-6h-2l1-10h-3l-5-3 2-1h2v-3h3l-2-5h2l-1-3 6-3 15-1 10 1z" fill="#00CAA9"/>
<path transform="translate(74,684)" d="m0 0h27l7 3 8 10 5 5 3 5v216h-1l-1-150-1-2h-3v156h-1v-172l-52-1v-1l9-1-10-1v-2l-5-2-1-1v-14l1-1 17-1v-1l29-1-42-1-5-2v-8l6-9 8-7 10-5v-4l-8-3-1-2-2-1z" fill="#FD920F"/>
<path transform="translate(409,353)" d="m0 0h6l1 11v122h-31v-132z" fill="#C91EB9"/>
<path transform="translate(546,353)" d="m0 0h28l2 3 1 36v93l-2 1-29-1z" fill="#C81EB8"/>
<path transform="translate(985,835)" d="m0 0h306l4 9v3l-2 1h-287l-21-1z" fill="#FDB389"/>
<path transform="translate(1163,364)" d="m0 0h65l1 1v154l-1 1h-48l-17-1-1-1-1-8 1-143zm16 12-9 1v127l2 1h48l1-28v-101z" fill="#FA6736"/>
<path transform="translate(1141,165)" d="m0 0h1l1 263v92l-43 1-15-1v-184h1v182h55v-12h-2v2l-4-1 1-2-2-1v-2l6-2v-66l-4-1-2-1-1 4v29l2 1 2 12 1 5 1 17-8 2-1-19-2 2-4-4-1-3-4 6-7 1-3-7-3-13v-10l4-10 2-2h5l3 5 5 18 1-1 1-16 1-5h2l1-21h-15l-5 1h-7v-2l26-3 2-9 1-134 1-43v-52l-1-6-33-1v-1h35l1-4 4 1v14z" fill="#028CB6"/>
<path transform="translate(198,266)" d="m0 0h2l2 7 5 29 3 19 7 29 2 10v8l-1 1-1 11-2 6-4 17-5 17-5 18-1 14h-3l-1-17-3-15-4-15-4-18-4-13-2-9v-9l2-10 2-6 5-21 3-7 4-16v-6l-1-4z" fill="#FD798E"/>
<path transform="translate(265,124)" d="m0 0h55v1l-46 1 1 10v204h-1l-1-201-4 24v31l-1 107v195l13 1h13l5 1h5l1-2 7 2 1 3-3 6-3-1 1 7-2 5h27l-1-10v-382l-3-1h5l1 35v348l-1 12-23 1h-37l-10-1v-395z" fill="#00C9A8"/>
<path transform="translate(974,379)" d="m0 0 6 1v2l17 5 11 6 2 1v2l7 1 8 5 2 4 8-1 2 1-1 10-12 36-14 43-6 13-4 11h-6l-8-4-26-7-20-6-10-4-1-1 1-7 5-10 1-13 4-8 9-29 8-26 9-23 5-1zm-3 16-5 8-6 16-5 17-7 22-4 13-2 9-1 2v6l5 4 13 5 10 2 11 3h3v2l5 1v2h8l2-2 8-26 10-28 10-30 1-9-13-6-9-3-8-4-14-4z" fill="#FDA909"/>
<path transform="translate(709,295)" d="m0 0 2 2v3h2l2 3 7-1 12 10 2 5-15 15h-2v2l-5 4-3 6-6 5-3 3-9 7-11 10-4 3-5-2-5-6-4-8v-25l3-5 1-6-3-5-1-1v-7l2-3h10l4 3 6-1 12-6 9-1z" fill="#FC6DB3"/>
<path transform="translate(196,842)" d="m0 0h75l4 2 1 153-1 22-2 5h-54l-24-1h-17l-8-2-2-1-1-6 1-6 3 1v7l75-1 21-1-2-70 1-56 1-3 1-32h-56l-32-1-8 1-3 3-1-4 2-2 21-1 1-2 5-3-2-1z" fill="#007A68"/>
<path transform="translate(528,323)" d="m0 0h66l-1 5h-3l1 6-4-4h-53v3l7 2 38 1 6 2 1 5-2 4-6-1h-36l-1 5v32l1 110 44 1v10h-47l-3-2-1-16-4-2-2-57v-83h-2v-20z" fill="#FC71C5"/>
<path transform="translate(508,927)" d="m0 0h26l1 3h4v-2l3-1h25l1 1v44l-5 3-4 1h-16l-5-4-1-2-3 3-2 3h-19l-7-3v-45z" fill="#F2077B"/>
<path transform="translate(447,323)" d="m0 0h69v8h-28l-27 1-6 1-3-1 2 24 1-18h1l1 165 20 1v1l-24 1v2l53 1 9 1v9l-67 1-1-1z" fill="#FC72C6"/>
<path transform="translate(73,686)" d="m0 0 1 3 5 1 4 2-1 5-10 5-8 7-5 8v8l4 1 49 1v1l-7 1-1 2-45 1v14l5 2 14 1-4 2 33 1v1l-42 1-6 1-1 61-1 117h-3v13l1 8h3l2 4 29 1v2h-2l1 4-4-1h-1v1h-6l-3-2v2l-17 1-2 3v-5l-2-1 2 7 2 1 4 9 7 6 4 6v2h-2l-1 4-4 3v-3l-3-1-9-2-1-3-1-12v-268l2-9 11-8 6-8z" fill="#FF9507"/>
<path transform="translate(307,867)" d="m0 0 9 3 11 7 9 10 4 4v2l4 2v2l4 2 2 2v5l6-3 10-1-2-4-6-4-2-4v-5l4-1 14 9 7 7 7 10 4 5 2 6 4-1 5-3h3v-2l7-5 6-8 2-2 4 1v6l-4 6-7 6-1 3h-2l-1 6 1 4h41l3 1 1 2-1 13-2 5-3 12-2 9h-2l-6 21-4 13-2 2 1-8 5-21 4-16 4-17 2-14-31 2-5 1h-15l-4-1-3 1h-7l-5-3-7-6-9-5-8-4 2 6 6 7v3l-4-2-10-6-3-5 1-2 3-2-4-8-6-7-8-7-8-8-10-7-6-3-5-4-1-6z" fill="#007A6C"/>
<path transform="translate(873,925)" d="m0 0h3l1 9v46l-3 2h-270l-7-3-5-9v-10h1l1 11 10 1 94 1h132l16-1 11-1h3l14 1 1-6v-19l-4-1-1 1v17l-2 1v-30l4 2 2-10z" fill="#F2067A"/>
<path transform="translate(876,903)" d="m0 0h18l3 2-10 2h-16l-1 2h-5l-1 4 3 2-23 1h-182l-17-1 5-4 3-1-3-5 196-1z" fill="#BA0FB6"/>
<path transform="translate(1116,422)" d="m0 0h13l2 1v22l-2 1-1 3-1 16-2 7h-1l-2-14-4-13-1-1h-5l-4 9-1 2v10l5 20 7-2 4-6 2 4v2h4l1-5h1v24l5-2h3l-1-7-1-13-2-7-1-7-1 5h-1v-35l2-4 6 2 1 17v49l-2 2h-5v2l3 1-2 3h-32l-9-1v-3l1 1h7l-2-4-1-13v-35l1-29 4-1h7z" fill="#0073B2"/>
<path transform="translate(381,346)" d="m0 0h40l3 1v144l-1 2-25 1h-15l-3-1-1-7 1-139zm28 7-24 1v132h31v-122l-1-11z" fill="#FDA0BC"/>
<path transform="translate(134,328)" d="m0 0 2 1 1 11v156l-1 7-41 1h-19l-3-1-1-22v-122l1-1h6l1 9v128l1 2 50 1v-155l1-11z" fill="#FE9E06"/>
<path transform="translate(102,291)" d="m0 0 4 1 3 4 10 21 9 17-1 7-5 12-10 22-4 6-2 4-3-1-4-10-4-8-12-26 1-9 6-15 4-9z" fill="#FDAE07"/>
<path transform="translate(731,935)" d="m0 0h26l-4 2h-9-3l-15 1h-4v2l-4 1h-2l-5 2v3h2l2-2 2 1 1-2 3 3-6 2h-6-4l-18 1h-16l-4-2v2l-4 1-6-3-1 2-5 1-5-2-4-1-4 2h-7l-1-4h-2v2l-6 1v2l-2 1-3 5h-3v2l-6-1v6h-3l3 2h11l4-2v2h2l1-2v2l3-1h38l2-1h21l12 1 2-1 6 1 22-1h18 3 10l4-1 3 1 5-1 12-2h22l3 1h14l7 3h11l14 1v1l-180 1h-76l-2-2 1-20 1-8 1-1z" fill="#FC689A"/>
<path transform="translate(393,776)" d="m0 0h6l11 7 7 9 6 12 3 11 4-1 14-12 14-14 7-4h15l4 2v8l-4 8-11 14-7 8h-2l-1 4 13-6 7 1 3 2-2 4-28 14-5 5-5 8h-4l-1-5 3-8 10-20 8-11 13-14 2-7-3-2-9 8-9 11-7 10-10 21-3 2-3-5-5-5-3-8-5-13-6-11-4-6-5-5-3-1v-2h-4l-1 5h-1v-12z" fill="#FAA80D"/>
<path transform="translate(376,337)" d="m0 0h51l1 25v114l-1 28-4 1h-47l-1-1v-19l1-43v-49l-1-55zm5 9-1 1-1 144 1 2 5 1h19l19-1 1-4v-142l-3-1z" fill="#C91FB9"/>
<path transform="translate(488,330)" d="m0 0h26l2 1v190h-1v-11l-63-1 1-3-4-1 42-1 18-1-1-11v-153l-53-1v21l-2-3-1-8v-16l4-1 2 1 3-1z" fill="#FD8ABE"/>
<path transform="translate(491,346)" d="m0 0 13 1v147l-1 1h-41l-1-1v-147zm-24 7v134l1 1h29l1-1v-127l-1-7z" fill="#FDACBD"/>
<path transform="translate(542,345)" d="m0 0h36l5 2-1 68v23l1 33v21l-3 2h-38l-1-1-1-133v-9zm4 8v132l30 1 1-1v-93l-1-36-3-3z" fill="#FC91C1"/>
<path transform="translate(663,924)" d="m0 0h182l28 1 2 2-2 10h-3l-7-2h-170l-16-1-5-2-6-1 1-4-5-1z" fill="#E4065F"/>
<path transform="translate(198,260)" d="m0 0h2l5 11 4 17 4 19 8 33 3 16v15l-4 18-4 19-2 5-2 10-4 13-4 16-2 6-1 9-4-1-5-25-5-21-7-28-5-16v-22l7-27 2-8 2-14 5-15 3-20zm0 6-4 20 1 10-4 16-3 7-6 26-2 5-1 6v9l5 20 3 9 4 19 4 16 1 6 1 17h3l1-14 3-12 3-9 5-19 4-17 1-5 1-7 1-1-1-16-4-14-6-27-4-26-3-17-1-2z" fill="#4AE9F5"/>
<path transform="translate(380,783)" d="m0 0h5l-1 5-3 3h-2l-2 4-6 10-9 21v5l1 3h2l4 5h6l5 5 1 8-6 4-5-1h-2l-1 8 8 7v2l-2 1h-7l-2-6h-6l-2 1v5 3l1 14 2 5-5 1-2 2-3-5v-2l-3-1-5-12-7-8-7-10-6-7-6-4-16-8-5-5-1-5h10l14 7 10 9 9 10 8 10 5 1 1-5-4-5v-2l-3-1 1-2 3 2 4-1 1-18 1-7 3-9 8-19 6-9 8-8z" fill="#01796D"/>
<path transform="translate(731,869)" d="m0 0h167v34l-29-1-2-4v-5h20v-16l-17-1-40-1h-123l-57 1-22 1 1 12 3 6v5h-7l-2-3-1-7v-11l1-8 3-1z" fill="#FFF1E9"/>
<path transform="translate(115,178)" d="m0 0h15v39l-10 1-37 1-2 1-1 13h-1v-37l1-16 1-1z" fill="#47ECFC"/>
<path transform="translate(971,395)" d="m0 0h12l17 5 9 5 10 3 8 4-1 9-12 36-10 28-6 20-2 2h-8v-2l-5-1v-2l-11-2-5-2-11-2-12-5-3-3v-6l2-5 3-12 8-26 5-15 4-13 5-12zm1 7-5 12-8 23-5 17-8 26 3 5 18 5 7 2 11 4 7 2 3-4 9-29 4-12 3-12 7-19v-5l-6-4-16-5-15-4h-4v-2z" fill="#F00676"/>
<path transform="translate(376,772)" d="m0 0h6l3 9v2l-7 2-9 9-8 16-5 14-2 5-2 20-6-1-2-12-8-16-9-14-11-12-7-5-6-1 2 9 6 7 5 5 10 12 3 5 1 12-10-3 2-3-3-2-1-5-15-15-6-8-5-10v-8l5-3h12l8 4 10 8 11 14 5 6 2 7 3-1 10-30 9-10 7-6z" fill="#FDAB0C"/>
<path transform="translate(1282,395)" d="m0 0h1v89l-1 1h-19l-1-1v-65l1-23z" fill="#E40660"/>
<path transform="translate(1241,365)" d="m0 0 4 1v2l6 1h48l1 3 3 1v5l-2 6 2 1-1 2h2l-1 3h-2l1 6 2 7 2 1v29l-1 64-3 3-3-1-1-3-3 2-1-26v-92l-5-1h-30l-7 1-1 2h-4l-2 4h-3l-1-2z" fill="#E4065F"/>
<path transform="translate(597,916)" d="m0 0 281 1 1 3-2 4h-95l-179-1v-3l-7 1-3-2 1-1h8l-5-1z" fill="#FC86BA"/>
<path transform="translate(265,124)" d="m0 0h55v1l-46 1 1 10v204h-1l-1-201-4 24v31l-1 107v159l-1 20-1 1v38l-2 1v-395z" fill="#00C3A6"/>
<path transform="translate(216,975)" d="m0 0 8 1 25 14 2 2v3l-7 3-17 9h-2v3h40l2 4-2 1h-93v-5l3-1 38 2v-2l-4-2-11-6-9-6-1-5 19-10z" fill="#FCFBFA"/>
<path transform="translate(994,412)" d="m0 0h2l1 5 2 5 2 7v26h-2v5l-5 5-7 8-9 9-6 2-2-1-2-17-1-14h-2v-7l3-6 4-4 1-2h2v-2l5-4 4-6h2l2-4z" fill="#E3075D"/>
<path transform="translate(80,465)" d="m0 0h49l1 1v31h-50l-1-2v-23z" fill="#42EAF9"/>
<path transform="translate(364,323)" d="m0 0h71v10l-1-3h-66l-1 60v34l2 85 3 1h63v9l-67 1h-4z" fill="#BF12B6"/>
<path transform="translate(1095,199)" d="m0 0h2l1 82v137l5-1v-27l2-1 1 26 1 1h15l2-1 1-143h1l1 32 3 3v26l-1 6v24l-1 13v3h-2l1 3v20l5 1v12l-2 5-26 3-3 1-1 29v35l1 13 1 4-7 1-2-2-1-14v-46l2-26 1-6 1-24v-47z" fill="#EC8A56"/>
<path transform="translate(536,337)" d="m0 0h47l3 3-1 7-7-1h-36l-1 5v32l1 110 44 1v10h-47l-3-2z" fill="#DB1EBA"/>
<path transform="translate(1016,252)" d="m0 0 19 5 24 8 13 6-1 9-4 12-1 2-6-1-9-4-22-7-16-4-4-3 1-6 5-16z" fill="#F10874"/>
<path transform="translate(636,923)" d="m0 0h146v1l-119 1 4 2-1 4h7l4 2 16 1h170v1l-260 2-3 25-3-4-1-8h-2l-1 8h-1v-33l11-1z" fill="#F2067A"/>
<path transform="translate(391,329)" d="m0 0h41l2 1 1 6-2 1-2-5-4-1h-15l-22 1-21 2v25l1 2 4-2v-22l4-1-2 2 1 55v49l-1 43-1 19h-1l-1-20-3-1-1 26h-1l-2-85v-34l1-58 1-2z" fill="#FC71C4"/>
<path transform="translate(877,916)" d="m0 0h18l-1 68h-51l-147-1v-1l178-1 2-1v-55h-31v-1l31-1 2-4z" fill="#FD94BB"/>
<path transform="translate(83,697)" d="m0 0h13l10 5 7 7 4 7 1 8-1 1-12 1h-46l-1-1v-8l6-9 8-7 6-3z" fill="#03D1F8"/>
<path transform="translate(59,966)" d="m0 0h59l1 4-7 14-6 7-2 1-11 1h-21l-8-10-5-4-2-5 1-7z" fill="#01CFF8"/>
<path transform="translate(1191,397)" d="m0 0h7l5 1v68l-1 17h-14l-1-2v-73l1-10z" fill="#FB6735"/>
<path transform="translate(706,428)" d="m0 0h5l4 6 1 5h2v2h3l1 6h2l1 4h2l6 8 10 7 12 6 14 4h12l17-4 14-5 4 1v5l-16 8-5 2-6 1h-31l-12-3-9-4-9-6-9-9-9-13-3-8-1-4z" fill="#FFF9F1"/>
<path transform="translate(1096,190)" d="m0 0 5 1 1 5 1 32 1 88v73l-1 28-5 1-1-3v-150z" fill="#FF9507"/>
<path transform="translate(370,854)" d="m0 0 5 1 3 6 5 3 3 6 5 1 4 5 2 5 1 8 1 3h-2v3l6-1 6-4 4-9 7 4v7l-3 1-2 4-8 10-7 6-4-4v-2l-4-2-14-16-8-8-6-5-8-2-1-1v-5l3-2 6 1 2 5h9l-5-6-4-3v-5z" fill="#FA9B10"/>
<path transform="translate(73,686)" d="m0 0 1 3 5 1 4 2-1 5-10 5-8 7-5 8v8l4 1 49 1v1l-7 1-1 2-45 1v14l5 2 14 1-4 2 33 1v1l-42 1-6 1-1 61h-1l-2-29-1 16h-2l-1-33v-58l2-9 11-8 6-8z" fill="#FD940F"/>
<path transform="translate(395,786)" d="m0 0 6 1 8 8 7 14 5 11 3 10 5 4 3 6 3-3 9-19 7-10 12-14 8-6 3 4-3 7-13 14-7 10-12 24-3 8-4 1-5-4-5-7-5-5 2-5v-3l-5-5-14-28-6-9z" fill="#0074AB"/>
<path transform="translate(384,787)" d="m0 0h1l-1 13-2 8-6 10-2 4v6l12 11 4 5 3 10 9 11 7 11v7l-3 5-4 3-4-1-1-1-2-11-4-6-4-5-4-8v-6h-2l-2-9-4-4h-6l-4-4v-2h-2l-2-3v-5l12-27 6-8z" fill="#FAAA11"/>
<path transform="translate(790,283)" d="m0 0h26l-1 3-7 5-4 2 21 1v1l-106 1 2 6-6 2-2-4h-2l-2-6 6-9 2-1z" fill="#FD9FC0"/>
<path transform="translate(73,358)" d="m0 0h6l1 9v128l1 2 38 1 2 1v2l-47 1-2-21v-122z" fill="#FE960C"/>
<path transform="translate(617,903)" d="m0 0 229 1v1l-195 1 3 5-5 2-1 1 22 1h179l15-1-1-2h2v-2l-2-1 7-1 6-2h12l9-1-2 2h-3v6l-1 2-14 2h-268v-1l9-1 2-7z" fill="#C91EB8"/>
<path transform="translate(102,291)" d="m0 0 4 1 3 4 10 21 9 17-1 7-5 12-10 22-4 6-2 4-3-1-4-10-4-8-7-15 1-2 5 3 1 3 9 4 9-4 5-5 5-10v-1l-6-10-1-3h-2l-6-11-5-1-4 2-2 5-3 3-5-1 1-7 4-9z" fill="#FD9F15"/>
<path transform="translate(61,941)" d="m0 0h56l1 1-1 16-2 1h-55l-2-3v-11l1-3z" fill="#01CFF5"/>
<path transform="translate(237,241)" d="m0 0h1v274h-1l-1-63h-3l1-5 1-4h-2l-1-2v-9l1-2h-2l-3-12-1-8 3-21 1-3h2l-1-3 1-2h2l-1-3 2-1v-48h-2l-1-6-1-15v-6l-1-3 2-1 2 5 1 5v-43l-3 1 3 2-3 1 1 12 1 4 1 6-3 2h-3l-1-10 1-7-1-5v-12l2-7h3l2 1z" fill="#FC85B4"/>
<path transform="translate(307,867)" d="m0 0 9 3 11 7 9 10 4 4v2l4 2v2l4 2 2 2v5l3-1 8 6 16 8 11 9 5 8-1 1h-7l-5-3-7-6-9-5-8-4 2 6 6 7v3l-4-2-10-6-3-5 1-2 3-2-4-8-6-7-8-7-8-8-10-7-6-3-5-4-1-6z" fill="#007AA9"/>
<path transform="translate(984,836)" d="m0 0h1v11l301 1v1h-282l-17-1 1 13v107l-1 59h34v1h-37z" fill="#FDD8D1"/>
<path transform="translate(59,731)" d="m0 0h56l2 1v14l-3 2h-54l-2-2v-14z" fill="#01CEF4"/>
<path transform="translate(38,664)" d="m0 0h1v360l-2-1-1-9v-290l1-43z" fill="#48BBC6"/>
<path transform="translate(1010,289)" d="m0 0 5 1 22 8 8 3 10 4 1 4-4 12-1 1-11-1-11-3-7-3v-2l-5-1-11-4-2-2v-7l1-2h2v-3h2z" fill="#FDAC06"/>
<path transform="translate(824,486)" d="m0 0h5 3l13 25 2 4-1 7h30v1h-31v-3h-27l-1 2-5-15-5-9-2-1 1-3 8-4z" fill="#FDAEBC"/>
<path transform="translate(383,337)" d="m0 0h44l1 25v114l-1 26-4-1-1-3-6-2v-3h7v-49l1-97-28-1-8-1v-2l-3 1-2-1 1-4z" fill="#D91EBA"/>
<path transform="translate(948,449)" d="m0 0h3l-2 9-4 13-2 9-1 2v6l6 4 11 4 10 2 14 4v2l5 1v2l12-1 2 5-1 6-1 2h-6l-8-4-26-7-20-6-10-4-1-1 1-7 2-4 3-1 2-2 1 2v-6l3-7h2l-1-11 1-2 3-1 1-8z" fill="#FEB406"/>
<path transform="translate(196,842)" d="m0 0h75l4 2v7l-2 4-2 14v7l-2 3-1-26h-56l-32-1-8 1-3 3-1-4 2-2 21-1 1-2 5-3-2-1z" fill="#006516"/>
<path transform="translate(1006,283)" d="m0 0 54 18 3 2-3 12-6 16-8-1-11-4-15-4v-2l-12-2-9-3-2-2v-8l8-21zm4 6-1 5h-2v3h-2l-1 2v7l4 3 9 3 5 1v2l9 4 14 3h6l4-9 1-7-8-4-10-3-12-5-13-5z" fill="#F6362B"/>
<path transform="translate(130,344)" d="m0 0h1l1 119-1 35h-50v-1h49l-1-31-49-1v-14h42l7 3v-51z" fill="#FEF3E9"/>
<path transform="translate(1275,383)" d="m0 0h15l1 1-1 109-2 5h-21l-12-1-1-1v-13h1v7h31v-69l1-25 1-2-3-1h-28l-2 1v-7l1-3z" fill="#FB6AB0"/>
<path transform="translate(1259,378)" d="m0 0h30l6 2-1 121-1 1-8 1h-29l-6-1v-14l1 2h2l2 6 20 1h13l1-4 1-109h-15l-23 1 1-5h6z" fill="#FD9BC1"/>
<path transform="translate(774,381)" d="m0 0 5 1 1 1 1 19 2 3 1 5v7l-4 3-14 3-30 13-11 4h-7l-1-5 9-5 17-8 18-8 5-5 3-5 3-21z" fill="#FD85B4"/>
<path transform="translate(475,792)" d="m0 0 7 2 1 3-9 13-9 10-3 4h-2l-1 4 13-6 7 1 3 2-2 4-28 14-5 5-5 8h-4l-1-5 3-8 10-20 8-11 13-14 1-2h2z" fill="#FDB809"/>
<path transform="translate(1009,413)" d="m0 0 5 1 4 3-1 8-8 22-3 13-5 14-6 20-3 4-7-2-11-4-7-2-1-23-1-9 1-6h1l2 14 1 17 6-1 8-7 8-8 4-6 2-1 1-5h2v-16h1l2 13h2l4-18v-11l4-1 1-4-6-3z" fill="#FEAC06"/>
<path transform="translate(72,172)" d="m0 0h64v23l-1 27h-1v-5h-3l-1-38h-15l-34 1-2 33-1 3-4-1-2-3z" fill="#FE960B"/>
<path transform="translate(707,874)" d="m0 0h126l37 1v1l-41 1-10 1-5 1-8 1-5-1-5 1h-5-3-57l-24-1-8-1h-39l-26 1-5-1-1 3v-4l9-1 13-1z" fill="#FDA3BF"/>
<path transform="translate(229,858)" d="m0 0h30l2 1 1 6v21h4l1-2-1 64 1 36v28l-2-1h-41l1-4 4-1v2h32l-1-123-1-24-28-1 2 4-4-2z" fill="#00CAA9"/>
<path transform="translate(811,869)" d="m0 0h87v34l-29-1-2-4v-5h20v-16l-32-2-18-3-21-1-5-1z" fill="#FEF0DA"/>
<path transform="translate(121,769)" d="m0 0 2 4 1 160-2 5-1-2h-3l-1 3-1-3 1-2 1-163h3z" fill="#FF9507"/>
<path transform="translate(512,348)" d="m0 0 2 4v156l-5-5-1-11v-139l3-4z" fill="#FC70C2"/>
<path transform="translate(486,830)" d="m0 0 4 2 2 2-1 4-8 7-26 13 12 2 1 2-10 6-7 4-9 9-6 5-5 8-4 4-3-1-2-6 5-9 11-8 5-9 6-10 8-8 14-7 9-5z" fill="#F9B60F"/>
<path transform="translate(168,1008)" d="m0 0 3 1v7l75-1 22-1 5-2 2 3-1 6-1 3h-54l-24-1h-17l-8-2-2-1-1-6z" fill="#006417"/>
<path transform="translate(720,484)" d="m0 0 1 3 7 1 12 5 3 4-2 9-4 10-1 5-1-2h-24l-5-5 11-21 2-3z" fill="#FDAEBD"/>
<path transform="translate(357,884)" d="m0 0 5 1 12 8 7 7 7 10 4 5 2 6 2 1v13h-4l-6-8-12-9-16-8-5-5 3-2 10-1-2-4-6-4-2-4v-5z" fill="#FE9E0E"/>
<path transform="translate(470,861)" d="m0 0 5 1 6 4-1 7-9 9-15 6-12 5-1 12-2 2-8 1 3-9 1-2-8 1 5-6 4-7 8-7 7-7 7-4z" fill="#0375AA"/>
<path transform="translate(462,343)" d="m0 0 3 4h-4l1 147 1 2-3 2v3l1 1 7 1v1h-12v-160l2 1z" fill="#DA1EBA"/>
<path transform="translate(544,354)" d="m0 0h1l1 83v48h29l3 1v-5l3 3v3l-1 5-1 1h-38v-58l1-72z" fill="#FDA5BC"/>
<path transform="translate(972,402)" d="m0 0h5v2l8 1 17 5 7 3v2l7 2-2 5-3 1v11l-5 18-3 1-2-14-1-10-4-12-2-2h2v-3l-8 6-2 3h-2l-1 2-1-3v-4l-5 2-10 6-1 2h-2l-1 2 1-5 7-20z" fill="#FDA807"/>
<path transform="translate(136,173)" d="m0 0h1v91l1 65v64h-1l-1-53-1-11-2 3-1 11h-1l-1-12v-22l1-73 1-5 1-14 1-3z" fill="#FDDECC"/>
<path transform="translate(137,664)" d="m0 0h2l1 26v300l-1 32-1 6h-49v-1h48z" fill="#62B7B7"/>
<path transform="translate(1e3 269)" d="m0 0 6 1 1 1v5l5 1v2l-9 3v8l-6 15v8l7 3 15 4v2l10 2v2l11 3-3 5-5-1h-9l-11-2-10-3-7-4-1-6v-3l-6-3 3-12z" fill="#FEAB06"/>
<path transform="translate(1012,886)" d="m0 0h140l104 1v2l-7 2-4-1h-125-3l-29-1-1 67-2 1v-45l1-23h-31v36l-2 3v-16l1-23-32-1-1 7h-1l-1-7h-6z" fill="#FDD7C3"/>
<path transform="translate(104,991)" d="m0 0 6 1 1 3-3 7-5 5 6-2v3l-8 3h-29l-3-1-6-8-9-6 2-2 9 2v3h2l3-5 2-1z" fill="#FD930D"/>
<path transform="translate(303,788)" d="m0 0h6l10 8 10 11 11 18 5 11 1 5v7l-4 2-7-5-4-7-2-10-7-11-9-11-4-3v-2l-4-2-2-4z" fill="#0083B4"/>
<path transform="translate(381,346)" d="m0 0h40l3 1v114l-1 17h-1l-1-25-1-44-2-4-1 75h-1l-1-130 1-2-35-1z" fill="#FC82B9"/>
<path transform="translate(329,125)" d="m0 0h5l1 35v348l-1 10h-1l-1-10v-382z" fill="#009583"/>
<path transform="translate(491,346)" d="m0 0 13 1v46l-1 72h-1l-1-116-2 1-1 2 1 6v70h-1l-1-75h-30l1 135h-2l-1-136h-2l1 3-1 2-1 111h-1v-121z" fill="#FC77B8"/>
<path transform="translate(1259,395)" d="m0 0h3l1 89h19l1-2 1-77h2l1 2v78l-1 5-26 1-3-2v-33l1-45 1-7z" fill="#FC93BF"/>
<path transform="translate(526,502)" d="m0 0h1l1 6 67 1v10h-67l-2-1z" fill="#BA0FB7"/>
<path transform="translate(107,747)" d="m0 0 6 1v1h5l5-1 1 5v170h-1l-1-150-1-2h-3v156h-1v-172l-52-1v-1l9-1-10-1v-3z" fill="#F79535"/>
<path transform="translate(364,323)" d="m0 0h71v10l-1-3h-66l-1 60h-1l-1 92h-1z" fill="#E337BB"/>
<path transform="translate(53,918)" d="m0 0 3 3v4h-2v21l1 8h3l2 4 29 1v2h-2l1 4-4-1h-1v1h-6l-3-2v2l-17 1-2 3v-5l-2-1 2 7 2 1 4 9 7 6 4 6v2h-2l-1 4-4 3v-3l-3-1-9-2-1-3-1-12v-57z" fill="#FE9F0C"/>
<path transform="translate(298,865)" d="m0 0 4 2 3 7 7 5 9 5 12 11 13 12 5 8 1 4-5 2-7-6-8-5-1-7-4-2-12-8-15-11-8-8 1-5z" fill="#FEB80D"/>
<path transform="translate(171,859)" d="m0 0 4 1v149l-3 1v5h74v1h-75z" fill="#5ED4CB"/>
<path transform="translate(608,918)" d="m0 0h262l-5 4-1 1h-36l-3-3h-111l2 2h-83v-2l-25-1z" fill="#FEAFBD"/>
<path transform="translate(540,386)" d="m0 0h1l1 107 44 1v10h-47l-2-3v-8l1-5-1-3v-19h2z" fill="#C91EB9"/>
<path transform="translate(496,348)" d="m0 0h5l1 1 1 116 1 29-1 1h-41l4-3 1-1 30-1v2l4-1 1-3-4-1v-129l-1-7 1-1z" fill="#FD9BC1"/>
<path transform="translate(801,349)" d="m0 0 7 1 8 4 10 9 10 10 6 11v11l-4 1-5-5-8-10-9-8-8-10-5-5-1-3h-2z" fill="#FFF9F1"/>
<path transform="translate(527,344)" d="m0 0h2l1 38v47l2 55 4 4v14l-5 1-2 5-2 1-1-7v-88z" fill="#FC6FB3"/>
<path transform="translate(1100,467)" d="m0 0 3 4 1 10h3l2-2v2l3 1v3l7-2 4-6 2 4v2h4l1-5h1l1 25-27 1v-2h-2l-2-5z" fill="#0073B0"/>
<path transform="translate(392,841)" d="m0 0h13l2 3 5 3 10 9 6 8 2 4-2 2v7l-2 2-6-1-11-12-7-5 1-5-5-3-6 1-2-10z" fill="#0A715C"/>
<path transform="translate(964,390)" d="m0 0h5v2h2l-1 5-5 11-4 11-5 17-4 13-4 1-1 8-4 1v13l-2 1-2 7-1 7-2-2-2 2-1-3 2-4 1-13 4-8 9-29 8-26 5-13z" fill="#FEB905"/>
<path transform="translate(456,338)" d="m0 0h51l-1 20-1 48v85h-1l-1-7v-91l1-46h-39l-3-2-4 1-2-2z" fill="#C91EB9"/>
<path transform="translate(542,345)" d="m0 0h36l5 2-2 17v11l-2 6-2-1-1-26-30-1v84h-1l-1-76-1 2-1 72h-1l-1-52v-32z" fill="#FC8CBE"/>
<path transform="translate(447,508)" d="m0 0 2 1 66 1v9l-67 1-1-1z" fill="#BE12B6"/>
<path transform="translate(198,260)" d="m0 0h2l5 11 4 17 4 19 8 33-1 5-2 1-2 4-8-34-7-43-1-7h-2l-1 8-2 12 1 10-4 16-2 5-1-3 1-8h-3l-1 2 2-9 3-9 3-20z" fill="#FDFAF8"/>
<path transform="translate(1017,416)" d="m0 0 6 2h3l-1 5-14 43-6 16-7 23-2 2h-8v-2l8-1 1-2h-2v-3h-5l4-5 9-29 4-12 3-12 7-19z" fill="#F6372A"/>
<path transform="translate(1017,263)" d="m0 0h8l27 8 10 3 3 3v7l-2 3h-6l-15-5-13-4-10-4v-2h-3v-8z" fill="#FDA907"/>
<path transform="translate(57,890)" d="m0 0h1v44l57-1 3-1-1 5 4-1 1 1 2-4v12l-1-4-3 1-2 2-1-2h-58l-1 12h-3l-2-8v-13l3-1z" fill="#FB9617"/>
<path transform="translate(585,343)" d="m0 0 2 4v70l-1 51 1 12-1 14h-6l2-2v-21l-1-33v-26l1-49 1-16-2-1h3z" fill="#FC6CB5"/>
<path transform="translate(297,781)" d="m0 0h11l-3 1v3l4 2h-6l2 10 6 7 5 5 10 12 3 5 1 12-10-3 2-3-3-2-1-5-15-15-6-8-5-10v-8z" fill="#FDAC09"/>
<path transform="translate(482,825)" d="m0 0 5 5-5 6-9 5-14 7-7 7-4 6-6 11-4 5-7 5h-3l-1-11 5 1 6-5 1-2-3 1 3-9 5-5 4-7 9-6 22-10z" fill="#0286B6"/>
<path transform="translate(470,788)" d="m0 0 4 4-3 7-13 14-7 10-12 24-3 8-4 1-5-4 1-2 1 1 2-4h2l-1-4-2-4 3 1 8-16 8-14 10-11 7-8z" fill="#0183B6"/>
<path transform="translate(1134,432)" d="m0 0 6 2 1 17v49l-2 2h-5v2l3 1-2 3h-32l-9-1v-3l1 1h7l1-2 2 1 8-1 19-1 4-2h3l-1-7-1-13-2-7-1-7-1 5h-1v-35z" fill="#00C3B1"/>
<path transform="translate(380,783)" d="m0 0h5l-1 5-3 3h-2l-2 4-6 10-9 21v5l1 3h2l4 5 3 2-13 6-6 3-1-1v-13l1-7 3-9 8-19 6-9 8-8z" fill="#007BB0"/>
<path transform="translate(325,857)" d="m0 0 4 4 6 9 8 9 4 11 3 3 3 6-3 4-4-5-6-5-7-8-6-7-11-7-9-3h-4l-1 3-1-4-2-2 15-5 5 1h2z" fill="#FD940D"/>
<path transform="translate(377,468)" d="m0 0h1l2 25h36v3l6 1 2 4 3 1v2l-4 1h-47l-1-1v-9l2 1z" fill="#C81CB8"/>
<path transform="translate(1092,179)" d="m0 0h4v26l1 136v47l-1 24-2 15-1 17v46l1 17h-2l-1-4-1-15v-41l1-16 2-20 1-15v-173l-1-15-3-1v-22z" fill="#0086B6"/>
<path transform="translate(172,854)" d="m0 0h95v30l-1 2h-4l-1-27h-34-3-11l-3 2-1-1h-36l-2-1z" fill="#FCF3E8"/>
<path transform="translate(293,831)" d="m0 0h10l14 7 10 9 9 10 8 10 1 1v7l-3 1-5-3-7-8-6-9-9-7-16-8-5-5z" fill="#0083B6"/>
<path transform="translate(890,918)" d="m0 0h3v64h-19l2-2 1-18h1l1 12 5-3 1-2v-14l1-7v-8l-4-13 1-5z" fill="#FC6CB3"/>
<path transform="translate(515,331)" d="m0 0h1v190h-1v-11l-63-1 1-3-4-1 42-1h21l1 3v-62h2z" fill="#FECED3"/>
<path transform="translate(39,740)" d="m0 0h1l2 69 2 22 1 22-2 35-1 3-2 64h-1z" fill="#46EDFD"/>
<path transform="translate(513,934)" d="m0 0h14l2 2v30l-7 1h-9l-1-1v-29z" fill="#FC6BB2"/>
<path transform="translate(412,330)" d="m0 0h15l5 2v42h-1l-1-7h-1l-1-16v-14h-53l-1 22-3 2-2 4-1-6v-25l2-2 1 1 19-2z" fill="#FD9DC1"/>
<path transform="translate(1124,185)" d="m0 0h1v230l-3 2h-15l-2-2-1-128v-99l4-2-2 4v60l1 165h12l3-1 1-183z" fill="#0085B7"/>
<path transform="translate(1112,443)" d="m0 0h5l3 5 3 10v15l-5 10-5 1-3-3-4-16v-10l4-10z" fill="#FEAE06"/>
<path transform="translate(331,932)" d="m0 0h22l5 2v1h-14l-4 3-7 1 5 26 9 37 3 13v8l-2 1-6-20-12-47-5-20 3-4z" fill="#F353A5"/>
<path transform="translate(546,934)" d="m0 0h14l1 1v13l-1 17-3 2h-11l-1-1v-29z" fill="#FC6BB2"/>
<path transform="translate(447,323)" d="m0 0h68l-1 5-2 1-59 1-3 1-1 60h-1l-1-38z" fill="#DB1EBA"/>
<path transform="translate(376,772)" d="m0 0h6l3 9v2l-7 2-9 9-8 16-3 7h-2l-1-7-1-9 4-12 9-10 7-6z" fill="#FDB909"/>
<path transform="translate(465,784)" d="m0 0h15l4 2v8l-2 2v-2l-7-1-1 3-2-1 1-4-3-2-9 8-9 11-7 10-3 2-4-1 1-10-2-1 10-9 11-11z" fill="#FDB70A"/>
<path transform="translate(369,480)" d="m0 0 2 3h3v21h54l2-1 2 1-1 6-3 1h-56l-3-1z" fill="#FDACBE"/>
<path transform="translate(220,343)" d="m0 0 2 4 2 9v15l-4 18-4 19-2 5-2 10h-2l-1 6-4-2v-7l6-22 4-17 1-5 1-7 1-1-1-23h2z" fill="#43E9F6"/>
<path transform="translate(1029,412)" d="m0 0h2v2h3l-1 6-3 11-3 6-3 10-3 7-2 1-1 9-3 10-4 4-2 1v10h-4l-1-7 11-31 10-30 2-7z" fill="#FEB803"/>
<path transform="translate(1128,444)" d="m0 0h4l1 21 2 1 2 12 1 5 1 17-8 2-1-19-2 2-4-4-1-3-4 6-7 1 1-2 5-1 4-9 1-11 2 4 1-1 1-16z" fill="#007FB7"/>
<path transform="translate(948,449)" d="m0 0h3l-2 9-4 13-2 9-1 2v6l6 4 8 3-4 1-7-2 4 4 2 4 7 2 1 1 10 2 6 2 9 1 2 4-10-2-27-7-17-6-3-2 1-7 2-4 3-1 2-2 1 2v-6l3-7h2l-1-11 1-2 3-1 1-8z" fill="#FEAD06"/>
<path transform="translate(618,868)" d="m0 0h198v1l-5 1h-80l-108 1v8l-1 2v21l3 2h-6l-2-1v-34z" fill="#FD94BA"/>
<path transform="translate(764,336)" d="m0 0 10 1 5 1 11 1 14 3v2l5 2 11 8 5 5v2l4 2 7 8-1 2-16-16-7-4-17-8-7-2h-25l-15 4-14 8-2-1 5-6 5-2 2-4 10-5z" fill="#FD98B9"/>
<path transform="translate(1125,272)" d="m0 0h1l1 32 3 3v26l-1 6v24l-1 13v3h-2l1 3v20l5 1v12l-2 3h-2v-2l-3 1z" fill="#FD768B"/>
<path transform="translate(73,244)" d="m0 0 1 2h3l2 6v71l-3-1-3-20-1-12v-43z" fill="#ED8C5A"/>
<path transform="translate(774,381)" d="m0 0 5 1 1 1 1 19 2 3 1 5v7l-4 3-14 3-30 13-11 4h-7l-1-5 9-5 17-8 18-8 5-5 3-5 3-21zm1 1-2 2-1 19 1 5-3 1 1 3-4 1v2l-7 2-18 8-10 5-8 3-6 4 1 2 7-1 12-5 13-6 8-3v-2l8-1 12-2 3-2-1-7-5-3 1-6 1-1v-17z" fill="#FDB2BE"/>
<path transform="translate(501,916)" d="m0 0h91v1l-46 1 17 1-1 4 1 3h-22l-4-2-1-2-3 3-2 1h-17l4-8-17-1z" fill="#FD8CCD"/>
<path transform="translate(307,867)" d="m0 0 9 3 11 7 9 10 4 4v2l4 2v2l4 2 2 2-1 4v-3h-5-4l-7-6-8-8-10-7-6-3-5-4-1-6z" fill="#0082B2"/>
<path transform="translate(219,869)" d="m0 0 8 1 2 1-1 7-5 2v5l1 2-4-1-1 3h6v2l-10 1-10-4-13-8v-7l5-1 4 5 2 1v2l6-1 7-9z" fill="#FEFAF2"/>
<path transform="translate(943,483)" d="m0 0 10 2 21 6 11 4 5 2v2h5v3h2l-1 3h-11l-2-1v-2l-11-2-5-2-11-2-12-5-2-2v-5z" fill="#F20777"/>
<path transform="translate(237,241)" d="m0 0h1v135h-1l-1-47h-2l-1-6-1-15v-6l-1-3 2-1 2 5 1 5v-43l-3 1 3 2-3 1 1 12 1 4 1 6-3 2h-3l-1-10 1-7-1-5v-12l2-7h3l2 1z" fill="#FD86B5"/>
<path transform="translate(896,877)" d="m0 0 2 3v23l-29-1-2-4v-5h20l1-13z" fill="#FFF1DC"/>
<path transform="translate(329,828)" d="m0 0 2 3 2 9 4 6 7 5v4l4 4 3 4-1 5-4 1-6-5-10-13-10-10-9-5v-1l7-2v-4l5 2v3l6 3z" fill="#FB9B14"/>
<path transform="translate(1242,365)" d="m0 0h64v39l-1 6h-1l-2-10-1-4v-6l3-3h-2l-1-8 1-5-3-1v-4l-20 1h-30l-4-2v-2z" fill="#F2077B"/>
<path transform="translate(357,874)" d="m0 0 7 1 15 14 2 4 4 2 7 9 5 5 1 3 4-1 2-1-2 4h-12l-6-8-7-9-6-5-11-7h-4l-1-10z" fill="#0080B3"/>
<path transform="translate(1010,289)" d="m0 0 5 1 22 8 8 3 10 4 1 4-4 12-1 1h-6l1-2h2v-2h2l-1-8 1-5-10 5-8-1-14-8-3-7 1-1h-3l-1 2-3-1z" fill="#FF9E0A"/>
<path transform="translate(186,412)" d="m0 0h1l1 7h4l1-2 3 12 1 6v17h3v-14l3-12 2-1 3 3 2-5h1l-1 7-7 26-1 2-1 9-4-1-5-25-5-21-1-2z" fill="#FDF6F5"/>
<path transform="translate(447,353)" d="m0 0 3 2v110l1 13-1 1-1 27h4v2l53 1v1h-57l-2-2z" fill="#FA68B3"/>
<path transform="translate(534,329)" d="m0 0h53l2 2 2 5-2 2-10-1-38-1-8-3z" fill="#FD86B5"/>
<path transform="translate(1013,278)" d="m0 0 7 1 19 5 2 2v4h8l2 3 7 4 2 4-9-2-14-5-10-3-21-7-2 3v-5z" fill="#FF9D0A"/>
<path transform="translate(716,404)" d="m0 0 4 1-1 12h2l1 2 6 3 3 1 2-2-1-2 10-3 6-4 5-1 3 3 4-1-1 3-29 13-10 5h-3v-8l1-2-3-7-1-11z" fill="#FFF1DB"/>
<path transform="translate(118,851)" d="m0 0h1v10h2l1 10 1 1 1 61-2 5-1-2h-3l-1 3-1-3 1-2z" fill="#FF9F0A"/>
<path transform="translate(486,830)" d="m0 0 4 2 2 2-1 4-8 7-26 13 1 4h-3v-2l-5 1-1-3 9-10 8-5 11-5 5-3z" fill="#FDB70A"/>
<path transform="translate(712,442)" d="m0 0 5 2 8 13 3 3v2l4 2 10 7 5 4v2h2v2l5 1 1 3-9-2-9-4-9-6-9-9-9-13v-6z" fill="#FDFBFA"/>
<path transform="translate(966,403)" d="m0 0 1 2 4-1-3 10-8 23-5 17-8 26 1 4h-5l-2 4v-6l2-5 3-12 8-26 5-15 4-13z" fill="#F73A2B"/>
<path transform="translate(979,415)" d="m0 0 3 1 1 8-6 7h-2v2h-2l-2 5-3 1-2 6h-3l-1 9-4 1-1-5 3-16 4-8h2l1-3 10-6h2z" fill="#FEBA03"/>
<path transform="translate(1006,285)" d="m0 0 5 1-1 2h-2l-1 9h-2v9l3 2 9 3 5 2v2l5 1 2 3-1 4-8-1v-2l-12-2-9-3-2-2v-8l7-18h2z" fill="#EC2148"/>
<path transform="translate(712,919)" d="m0 0h113l1 3 2 1h-32l-80-1z" fill="#FD9EC0"/>
<path transform="translate(193,952)" d="m0 0 55 1 2 2v4l-62 1-1-1v-5z" fill="#007A88"/>
<path transform="translate(1009,413)" d="m0 0 5 1 4 3-1 8-8 22-3 13-5 14-6 20-3 4-3-1-1-4 1-5v-5l4-2 2-4 3-3 1-4 3-10v-3l-3 1v-3h2v-16h1l2 13h2l4-18v-11l4-1 1-4-6-3z" fill="#FF9707"/>
<path transform="translate(266,884)" d="m0 0 1 4-1 60v31l-4-3v-90h4z" fill="#00C3B0"/>
<path transform="translate(190,405)" d="m0 0h2v2l7 1 8 2v7l-3 9-3 12-1 14h-3l-1-17-3-15-3-10z" fill="#FA6939"/>
<path transform="translate(419,932)" d="m0 0h33l3 1 1 2-1 13-2 5-3 12-2 9h-2l-6 21-4 13-2 2 1-8 5-21 4-16 4-17 2-14h-15l-16-1z" fill="#44C6C2"/>
<path transform="translate(434,337)" d="m0 0h1v173l-2-1-1-129 1-42z" fill="#FA75B8"/>
<path transform="translate(816,283)" d="m0 0h12l5 3 5 7-1 4v3l-1 2-6 1-5-8-28-1v-1l7-1 4-2 5-4h2z" fill="#FD87B5"/>
<path transform="translate(417,387)" d="m0 0h1l1 18 2 4 1 44v20l-2 9-3-1v5h-1z" fill="#FD9DC0"/>
<path transform="translate(1013,240)" d="m0 0 9 1 13 4v1h-9l-4-1-4 4 6 1 6 5-2 1-12-3-6 18v5h-2l-1-5-5-2 2-9 6-15z" fill="#FDAA09"/>
<path transform="translate(476,864)" d="m0 0 4 1 1 1-1 7-9 9-15 6-9 4-3-1 7-9 15-10 9-7z" fill="#FAB40A"/>
<path transform="translate(1101,423)" d="m0 0 2 1-1 13v25l1-3h2v-3h-2l-1-3v-9l3-1 2 1v2l3 1-3 8v10l3 13-1 3-6 1-1-11h-1l1 26 1 5h2l-1 3-4-4-1-13v-35l1-29z" fill="#0080B7"/>
<path transform="translate(51,770)" d="m0 0h1l1 33 1 79 2 35-3 2-2 4z" fill="#FF9507"/>
<path transform="translate(544,354)" d="m0 0h1v81l-1 20h-1v23l1 4h-1l-1 11h-1v-58l1-72z" fill="#FD9DC0"/>
<path transform="translate(986,886)" d="m0 0h1l1 82-1 59h34v1h-36v-139z" fill="#FDC7AC"/>
<path transform="translate(499,433)" d="m0 0 3 1 2 50v10l-1 1h-41l4-3 1-1 30-1v2l4-1 1-3-4-1v-22z" fill="#FDA5AD"/>
<path transform="translate(528,323)" d="m0 0h66l-1 5h-65z" fill="#DC1FBA"/>
<path transform="translate(173,509)" d="m0 0h57l1 1v5l-1 1-39-1-5-2h-5l-1 1h-6z" fill="#FB6735"/>
<path transform="translate(418,831)" d="m0 0 2 1-2 8 5 5 7 9 3 1 5-1v2l3 1h-2l-3 9-6 2-8-11-12-12 1-2h2l2-6z" fill="#FB9B10"/>
<path transform="translate(354,802)" d="m0 0h1l1 12 1 6-3 9-2 20-6-1-2-12-2-6h2v-4h2l-1-5h3l3-10z" fill="#FCAA0C"/>
<path transform="translate(526,502)" d="m0 0h1l1 6 67 1v8l-3-3h2l-1-3-4 5-4-1-3-3h-40v-2h-13l-1 7h60l7 1v1h-67l-2-1z" fill="#CA1EB9"/>
<path transform="translate(135,460)" d="m0 0h1v43l-41 1h-19l-3-1v-15h1v14l7-1h40v-2l-2-1 12-1 2-2 1-7-2-3v-20z" fill="#F87341"/>
<path transform="translate(56,751)" d="m0 0 9 2v1l-6 1-1 61h-1l-2-29-1 16h-2l-1-33v-18z" fill="#FE9F0A"/>
<path transform="translate(626,870)" d="m0 0h53v1l-44 3-1 3h-6l1 12 3 6v5h-7l-2-3-1-7v-11l1-8z" fill="#FFF1DB"/>
<path transform="translate(396,846)" d="m0 0h5l12 11 8 9 5 7 2 1-1 4-5 1-15-15-5-4 1-4-5-3-2-1z" fill="#FDAC08"/>
<path transform="translate(384,787)" d="m0 0h1l-1 13-2 8-7 11-10 2 1-7 8-16 5-7z" fill="#FDB50B"/>
<path transform="translate(102,291)" d="m0 0 4 1 3 4 10 21 2 5-4 1-1-4h-3l-5-7v-2l-7-1-8 3 3-9z" fill="#FD9918"/>
<path transform="translate(488,330)" d="m0 0h25l-1 6-2 1h-44l-5-1v-1h5l1-4z" fill="#FD9EC1"/>
<path transform="translate(198,260)" d="m0 0h2l5 11 4 17 1 7-3-4-1 7h-1l-5-32h-2l-1 8-2 12 1 10-4 16-2 5-1-3 1-8h-3l-1 2 2-9 3-9 3-20z" fill="#FEAFBD"/>
<path transform="translate(1275,383)" d="m0 0h15v10h-33l-2 1v-7l1-3z" fill="#E40762"/>
<path transform="translate(1259,378)" d="m0 0h30l6 2v14l-2 18h-1l-1-11-1-5v-12h-15l-23 1 1-5h6z" fill="#FECAD2"/>
<path transform="translate(73,358)" d="m0 0h6l1 9v13l-2 3-1 28-3 8h-1l-1-60z" fill="#FEA010"/>
<path transform="translate(395,786)" d="m0 0 6 1 8 8 7 14 2 7-1 5-5-1-3-9-5-5-10-16z" fill="#007DB3"/>
<path transform="translate(972,402)" d="m0 0h5v2l8 1 7 3v3l-7 3-8 4-10 6-1 2h-2l-1 2 1-5 7-20z" fill="#FEA907"/>
<path transform="translate(1024,444)" d="m0 0 2 2-17 51-5 11-2 4-2-2v-4l-3-1 6-20 2 4h4l-1-10 5-3 3-9 2-8v-5l3-2z" fill="#FEAC06"/>
<path transform="translate(101,308)" d="m0 0 5 1 3 3 4 5v2h3l2 2 5 3 5 10-1 7-1-2h-3l-6-10-1-3h-2l-6-11-5-1-4 2-2 5-3 3-5-1 1-7 4-5z" fill="#FEA00F"/>
<path transform="translate(1012,262)" d="m0 0 1 3 3-1v8h3l1 2 27 9 10 3h6l2-2v4l-3 2v2h4v2l-6-1-9-4-22-7-16-4-4-3 1-6z" fill="#F7402C"/>
<path transform="translate(1250,488)" d="m0 0 1 2h2l2 6 20 1h13l2-8 3 1 1-2v13l-1 1-8 1h-29l-6-1z" fill="#FDA5B8"/>
<path transform="translate(383,868)" d="m0 0h2l1 2 5 1 4 5 2 5 1 8 1 3h-2v3l6-1 5-2-3 9h-6l-6-7-8-15-6-4 2-1z" fill="#007D79"/>
<path transform="translate(463,495)" d="m0 0h39v1l-6 1v3l-2 2h-6l-2 1-18 1-9-2 1-3-1-2z" fill="#BA0FB7"/>
<path transform="translate(176,389)" d="m0 0 4 1 3 8 4 20 2 7v5l-2-3-1-4-4-2-5-5-2-3-1-21h2z" fill="#EC8A58"/>
<path transform="translate(1254,483)" d="m0 0h1v7l34-1v8l-1 1h-21l-12-1-1-1z" fill="#F00777"/>
<path transform="translate(1260,392)" d="m0 0h25l3 2-1 13-1-2h-2v77h-1l-1-86h-19v23h-1v-24h-3l1 10-1 6h-1v-17z" fill="#FC79B8"/>
<path transform="translate(134,328)" d="m0 0 2 1 1 11v156h-1l-1-33-2 4v18l2 4-1 7-3 1v-34l2-8 1 2h2l-1-114-2-9v-3z" fill="#FEAF06"/>
<path transform="translate(1022,244)" d="m0 0 14 2v2l4 1 9 5 6 6-7 1-10-2-8-3-8-6-4-1 2-4z" fill="#FEBC03"/>
<path transform="translate(433,896)" d="m0 0 4 1-3 10-6 3-4 4-1 9-3 4-7 2v3h-2l-2-6 1-3 8-8 5-6 4-9z" fill="#017FB3"/>
<path transform="translate(188,934)" d="m0 0 54 1 7 1v3h-62z" fill="#20BFCB"/>
<path transform="translate(330,873)" d="m0 0h5l1 2 7 4 4 11 3 3 3 6-3 4-4-5-6-5-7-8-3-3-3-8z" fill="#FCA90A"/>
<path transform="translate(720,364)" d="m0 0h5l1 4-4 9-7 9-3 5h-5v-10l7-11z" fill="#FFF9F1"/>
<path transform="translate(367,900)" d="m0 0 6 3 4 8 2 5 1 5-5-2-17-9-5-5 3-2 10-1z" fill="#FB9414"/>
<path transform="translate(229,858)" d="m0 0h30l2 1 1 6v143h-1l-1-123-1-24-28-1 2 4-4-2z" fill="#008372"/>
<path transform="translate(393,776)" d="m0 0h6l11 7 4 9 1 5-1 5-3-1-5-8-5-5-3-1v-2h-4l-1 5h-1v-12z" fill="#FDB40D"/>
<path transform="translate(796,935)" d="m0 0h72v1l-20 2-8 2v-2l-7 2h-6l-5 2h-3l-4-2h-3l-3 1-2-1v-2l-11-2z" fill="#FC689A"/>
<path transform="translate(1282,395)" d="m0 0h1v57h-1l-1-13-1-1v-10l2-2-4-2-3-5-1-8-1-2 1-5 6-4h2z" fill="#F2077A"/>
<path transform="translate(115,980)" d="m0 0 3 1v9l4 1-1 5-10 10-5 1-4 1v-3l4-3h2l2-10h-4l2-5 6-5z" fill="#FD9D10"/>
<path transform="translate(1127,200)" d="m0 0 4 2 2 7v14l-3 14-1 9-2 1-1-2v-42z" fill="#FE9407"/>
<path transform="translate(1252,379)" d="m0 0h7v1h-6l-1 5 4-1-1 4-1 21-1 76h-1l-1-13v-92z" fill="#FDA2BF"/>
<path transform="translate(971,395)" d="m0 0h12l17 5 3 3-9-1h-7l-1 1 10 2-2 1v2l-9-2-8-2v-2l-6 2-4 1 1-6z" fill="#E81355"/>
<path transform="translate(466,339)" d="m0 0h37l-1 3h2l-1 3-7 1h-21v-3l-10 1-1-3z" fill="#DB1EBA"/>
<path transform="translate(365,344)" d="m0 0h1l1 80 1 50v22h-2l-1-20z" fill="#D01EB9"/>
<path transform="translate(775,382)" d="m0 0 3 1v17l-2 4v3l5 3 1 7-3 2-11 1 3-5v-3l-1-3 3-1-1-10 1-14z" fill="#FE768C"/>
<path transform="translate(546,934)" d="m0 0h12l-3 1-1 5-1 3h-2l2 13-2 5h-2v4l2 2h-5l-1-1v-29z" fill="#FC689C"/>
<path transform="translate(533,501)" d="m0 0 6 2 10 1h42l-1 3 2 1h-63v-3h2l-1-3z" fill="#FDA9BE"/>
<path transform="translate(73,244)" d="m0 0 1 2h3l2 6v20l-3 3-1 8-1 19h-1l-1-12v-43z" fill="#F5BA9B"/>
<path transform="translate(180,851)" d="m0 0 32 1h54l2 1 1 6-1 26h-1v-31l-49 1-46-1-1 2 1-4z" fill="#008099"/>
<path transform="translate(518,944)" d="m0 0 3 3v2l5 1 1 3-2 7-2 3-8 1-1 3-2-1v-13l1-5 4-2z" fill="#FC689A"/>
<path transform="translate(324,887)" d="m0 0 7 6 8 8 7 6 5 8 1 4-5 2-2-2v-2l-6-5-4-5-1-5-6-4-3-5v-2h-2z" fill="#FCAB0E"/>
<path transform="translate(51,732)" d="m0 0 3 1 2 8h2l2 6 4 1 14 1-4 2 33 1v1h-49l-2-1h-5z" fill="#FEA10A"/>
<path transform="translate(369,332)" d="m0 0 2 1 18-1-1 3-10 2h-3l-1 22-3 2-2 4-1-6v-25z" fill="#FD93C1"/>
<path transform="translate(1121,455)" d="m0 0 2 3v15l-5 10-5 1-3-3-2-11 4-2 5-1 2-2 1 2z" fill="#FB9B18"/>
<path transform="translate(360,827)" d="m0 0 2 4 1 3h2l4 5 3 2-13 6-6 3-1-1v-13h3l2-4 2-1z" fill="#0087AE"/>
<path transform="translate(73,686)" d="m0 0 1 3 5 1 4 2-1 5-10 5-6 2v-2l-3-1v-5l7-9z" fill="#FE9E0D"/>
<path transform="translate(356,919)" d="m0 0 5 1 12 7 8 7v3h-8l-7-3-10-10z" fill="#FC9D0E"/>
<path transform="translate(83,218)" d="m0 0h8l-3 2 2 2 7 3v2l-6 2v5h-2v2h-6l-3-3v-13z" fill="#FEF1E9"/>
<path transform="translate(403,830)" d="m0 0h6l3 3-1 5-2 7-4-2v-2l-12 1-2-5 4-4z" fill="#FDA809"/>
<path transform="translate(294,824)" d="m0 0h13l11 4 1 6-9 1-7-3-10-1-1 3v-5-3z" fill="#F5B227"/>
<path transform="translate(369,480)" d="m0 0 2 3h3v21l2 1-1 5h53v1h-56l-3-1z" fill="#FD9CBB"/>
<path transform="translate(1250,385)" d="m0 0h1l1 87 1-32h1v54l-1-4h-2l-1 11h-1z" fill="#FC7FB3"/>
<path transform="translate(1338,1014)" d="m0 0h1v10l-1 3h-14l-26-1 4-3 5-2h26l5 2z" fill="#FEFAF2"/>
<path transform="translate(331,932)" d="m0 0h22l5 2v1h-14l-4 3-7 1 2 14v9l-3-4-5-20-2-1 3-4z" fill="#F789A7"/>
<path transform="translate(134,386)" d="m0 0h1l1 52v19h-2l-2 2v-51l1-3z" fill="#FF9507"/>
<path transform="translate(872,304)" d="m0 0h10l2 2-1 8-3 4-1 5h-1v-5l-5-1-3-2v-2h-2l-1-4-3-1z" fill="#FDAEBF"/>
<path transform="translate(188,917)" d="m0 0h63v3h-63z" fill="#F19569"/>
<path transform="translate(1284,405)" d="m0 0h2l1 2v78l-1 3h-4l1-6z" fill="#FD94C1"/>
<path transform="translate(773,379)" d="m0 0 7 1 3 3h2v3h2l-1 13-1 8 2 5 1 4-4 1-2-12-2-3-1-19-5-1-1 1-2 16h-1v-9l1-8z" fill="#FFF1DB"/>
<path transform="translate(1e3 309)" d="m0 0 13 2 5 2v2l5 1 2 3-1 4-8-1v-2l-12-2-3-1-2-6z" fill="#F00E6D"/>
<path transform="translate(446,875)" d="m0 0 3 1-7 6-6 7-3 5-4 4-3-1-2-6 5-9 6-3 6 2 1-4z" fill="#F9A70B"/>
<path transform="translate(470,861)" d="m0 0 5 1 2 2-9 8-8 5-3-1-6 1h-2l2-4 6-5 8-4z" fill="#007FB3"/>
<path transform="translate(465,474)" d="m0 0h1v14l33-1 3 1v5h-7l2-1v-2l-5 1-25 1 6 1v1h-11v-19h1l1 7z" fill="#FDCAC1"/>
<path transform="translate(391,329)" d="m0 0h41l2 1 1 6-2 1-2-5-4-1h-15l-22 1-21 2v14l-1 17h-1v-33l1-2z" fill="#FB71B5"/>
<path transform="translate(1e3 269)" d="m0 0 6 1 1 1v5l5 1v2l-9 3v7l-7 2-2 1 2-10z" fill="#FEBB02"/>
<path transform="translate(597,916)" d="m0 0h12l11 1v1l13 2v2h9v1h-39v-3l-7 1-3-2 1-1h8l-5-1z" fill="#FD97C2"/>
<path transform="translate(221,343)" d="m0 0 2 2 2 9 1 18-2 7h2l1 10-1 4-4 1-1 3h-2l-1 12-2 1-2 5-1-2 2-5 5-22 3-15v-15l-2-9z" fill="#FC88AF"/>
<path transform="translate(61,981)" d="m0 0 5 3 6 8v2h-2l-1 4-4 3v-3l-3-1-8-2v-7l7-2z" fill="#FE9E0F"/>
<path transform="translate(621,881)" d="m0 0h1l2 16 1 2 7 1-2-8 4 2 13 4 2 5h-27l-1-1z" fill="#FDB4BD"/>
<path transform="translate(174,504)" d="m0 0h32l21 1 2 1v2h-35l-20-1z" fill="#FD8AB9"/>
<path transform="translate(1133,465)" d="m0 0 2 1 2 12 1 5 1 17-6 1-1-1v-29z" fill="#EC8A57"/>
<path transform="translate(357,884)" d="m0 0 5 1 12 8 3 3-1 2-4-1-1 4-5-1-8-6-2-4v-5z" fill="#FAAA12"/>
<path transform="translate(401,860)" d="m0 0 7 4 10 10 4 5v2l-4 1-5-3-4-1-7-12-4-5z" fill="#0493B8"/>
<path transform="translate(463,352)" d="m0 0h2l1 3v63h-1l-2-34h-1v-27z" fill="#FEAFBD"/>
<path transform="translate(583,327)" d="m0 0 7 1 1 6-4-4h-53v3l7 2 38 1v1h-41l-8-2-1 2-1-9z" fill="#FC6DB7"/>
<path transform="translate(1254,388)" d="m0 0h1l1 5 4-1-1 2-1 62h-1l-1-46-1 9-1 21h-1v-31z" fill="#FC6BAF"/>
<path transform="translate(370,854)" d="m0 0 5 1 5 10h2v4l-6 2-10-8v-5z" fill="#FCA710"/>
<path transform="translate(421,900)" d="m0 0 4 1v6l-4 6-7 6h-8l6-8 7-9z" fill="#FBA912"/>
<path transform="translate(841,438)" d="m0 0 1 3-6 11-8 11-10 8-1-2 1-7 4-2 6-8 4-2h2l5-11z" fill="#FFF2DB"/>
<path transform="translate(1025,266)" d="m0 0 7 1 16 3 2 2 8 3-4 2-11-1-7-2h-5l-6-5z" fill="#FEB804"/>
<path transform="translate(80,451)" d="m0 0h34v1l-17 1-4 2-4 6-4 2h-5z" fill="#FDFCFC"/>
<path transform="translate(52,803)" d="m0 0h1l1 79 1 13v21l-2-2-1-10z" fill="#FFA00B"/>
<path transform="translate(948,449)" d="m0 0h3l-2 9-4 13-2 9-1 2v6l6 4 8 3-4 1-7-3-6-3-1-2v-9l3-7h2l-1-11 1-2 3-1 1-8z" fill="#FEA806"/>
<path transform="translate(1288,1020)" d="m0 0 19 1-3 2-4 2 24 1v1h-41l-4-1 2-5z" fill="#FFF1E8"/>
<path transform="translate(258,1010)" d="m0 0h7l2 4-2 1h-65v-1l37-1 4-2z" fill="#FEEFDE"/>
<path transform="translate(266,854)" d="m0 0h1v30l-1 2h-4l-1-27-2-1 5-1 2 1z" fill="#FDAEAF"/>
<path transform="translate(1013,278)" d="m0 0 7 1 15 4 2 3-5 2h-5v-2l-9-1-12-1-2 3v-5z" fill="#FEAB06"/>
<path transform="translate(121,769)" d="m0 0 2 4v33h-1l-1 9-2-2v-42h2z" fill="#FF9F0A"/>
<path transform="translate(759,422)" d="m0 0 3 1-3 3-26 11-8 3h-7l-1-5 9-5 10-5h4v2l-8 4-8 3-5 4 7-1 12-5 13-6 5-2h3z" fill="#FDA9BE"/>
<path transform="translate(72,172)" d="m0 0h1l1 31h1v11h2l1-36h25v1l-22 1-2 33-1 3-4-1-2-3z" fill="#FDD6C3"/>
<path transform="translate(135,460)" d="m0 0h1v43h-9l4-3 1-5h1l1-7-2-3v-20z" fill="#EC8854"/>
<path transform="translate(467,331)" d="m0 0h36v1l-15 1v2l-4 2h-18l-5-1v-1h5z" fill="#FEAFBD"/>
<path transform="translate(213,955)" d="m0 0h37v4h-33l-6-1 2-1z" fill="#F1866E"/>
<path transform="translate(381,482)" d="m0 0 5 4 30 1 2 2-7 2h-9l-7 1h-10l-1-2h-3z" fill="#FDD7C3"/>
<path transform="translate(417,387)" d="m0 0h1l1 18 1 8v42l-2-2-1-15z" fill="#FD93C1"/>
<path transform="translate(413,881)" d="m0 0 7 4v7l-3 1-3 6-7 1 1-9 3-4z" fill="#F9A410"/>
<path transform="translate(119,967)" d="m0 0h2v4l3 1v15l-1 5-5-2-1-9-2-1-1 3-2-1 6-12z" fill="#FB9313"/>
<path transform="translate(666,304)" d="m0 0h10l6 4-4 2h-2l-2 4-4 2-2 4-3-5-1-1v-7z" fill="#FD96BD"/>
<path transform="translate(623,876)" d="m0 0 4 3 3 13 2 3v5h-7l-2-3-1-7v-11z" fill="#FEEFD9"/>
<path transform="translate(425,832)" d="m0 0 4 2 3 8h2l-1 5-2 1-2 4-5-4-3-7-1-4 4-2z" fill="#007BB5"/>
<path transform="translate(1259,395)" d="m0 0h3v33l-1 15-3-1v-31l1-7z" fill="#FEAFBD"/>
<path transform="translate(426,330)" d="m0 0 6 2v42h-1l-1-7h-1l-1-16v-14l-5-2v-3z" fill="#FD93C1"/>
<path transform="translate(406,895)" d="m0 0h1v5l6-1-6 8-7 6-4-4-1-12 4 3h6z" fill="#FA9B1A"/>
<path transform="translate(61,726)" d="m0 0 51 1v1l-7 1-1 2h-40v-2l-4-2z" fill="#FEA205"/>
<path transform="translate(780,338)" d="m0 0 10 1 14 3v2l5 2 11 8 5 5v2l4 2 7 8-1 2-16-16-7-6-14-7-6-2-13-2z" fill="#FD86B5"/>
<path transform="translate(840,506)" d="m0 0 3 1 4 8-1 7h30v1h-31v-3h-27l-1 2v-5l4-2 5 1v2h17l-1-5-2-4z" fill="#FE948E"/>
<path transform="translate(1260,484)" d="m0 0 24 1-2 1v2h4v2l-26 1-2-1v-5z" fill="#FDA9BB"/>
<path transform="translate(427,877)" d="m0 0h1l1 6-4 9 2 5 2 2-4 4-3-5v-6h-2l-1-7-5-3 1-2 4 1 2-2z" fill="#027663"/>
<path transform="translate(1019,981)" d="m0 0h27l32 1 6 1v1h-29l-34-1-1 19h-1z" fill="#FDB189"/>
<path transform="translate(396,881)" d="m0 0h1l1 8 1 3h-2v3l6-1 5-2-3 9h-6l-6-7-3-6 2-6 4 1z" fill="#0282BA"/>
<path transform="translate(486,830)" d="m0 0 4 2 2 2-1 4-8 7-8 4-1-5 3-3 5-3 1-5z" fill="#FBAB1C"/>
<path transform="translate(706,381)" d="m0 0 1 3-3 17v12l2 20 4 14 1 4-4-4-4-15-1-5-1-17-1-8 5-19z" fill="#FDA0BE"/>
<path transform="translate(421,473)" d="m0 0h1l2 18-1 2h-14l4-3 4-1-1-1-30-1v-1h31v-5l3-1z" fill="#FB9FAD"/>
<path transform="translate(77,180)" d="m0 0h1v22l-1 12h-2l-2-3v-28l2-1 2 1z" fill="#FEAF06"/>
<path transform="translate(380,783)" d="m0 0h5l-1 5-3 3h-2l-2 4-6 10-1-4-1-3 3-1-4-1 2-4 8-8z" fill="#0085B4"/>
<path transform="translate(172,854)" d="m0 0h36v1l-10 1v2l-19 1-6 1-2-1z" fill="#FDFCFC"/>
<path transform="translate(193,872)" d="m0 0h5l6 12 10 4 2 1 9 1v1l-10 1-10-4-13-8v-7z" fill="#F9C1A6"/>
<path transform="translate(1239,519)" d="m0 0 8 1h58l-1 2-12 1h-46l-7-1z" fill="#EC174A"/>
<path transform="translate(190,405)" d="m0 0h2v2l7 1 8 2v7l-2 4h-1v-6h-6l-3 3-3-1-2-7z" fill="#F5382F"/>
<path transform="translate(78,213)" d="m0 0h1v23l-1 13-1-3h-3v-29-3l4 2z" fill="#00C3B1"/>
<path transform="translate(1092,179)" d="m0 0h4v32h-2l-1-3-3-1v-22z" fill="#0083B7"/>
<path transform="translate(311,847)" d="m0 0 7 3 7 6-1 4-2 3-4-2-6-5-3-3 1-3h-2l1-2 2 1z" fill="#FCAA0C"/>
<path transform="translate(210,423)" d="m0 0h1l-1 7-5 18-3 3-1-7v-9l2-9 2-1 3 3z" fill="#F0F5F5"/>
<path transform="translate(75,318)" d="m0 0 1 4 3 1v35h-4z" fill="#00B3A1"/>
<path transform="translate(350,913)" d="m0 0 7 4 2 2h-3l2 6 6 7v3l-4-2-10-6-3-5 1-2 3-2z" fill="#067564"/>
<path transform="translate(118,883)" d="m0 0h1l1 39 2 2 2-1v10l-2 5-1-2h-3l-1 3-1-3 1-2z" fill="#FF9507"/>
<path transform="translate(779,383)" d="m0 0h1l1 19 2 3 1 5v7l-4 3-14 3-5 1 2-3 16-3 2-1v-7l-5-2-1-4 3-5z" fill="#FDBABF"/>
<path transform="translate(1062,267)" d="m0 0 6 2 4 2-1 9-4 12h-5l-1-3 4-1-1-12 2-1-1-5-3-1z" fill="#E11848"/>
<path transform="translate(196,435)" d="m0 0h1v17h3v-14h1l2 11 1 3-2 6-1 9-4-1-2-14z" fill="#F9D7C7"/>
<path transform="translate(454,331)" d="m0 0 4 1 9-1-1 6-10 1-1 21-2-3-1-8v-16z" fill="#FDA0C0"/>
<path transform="translate(966,452)" d="m0 0h1l2 14 1 17 6-1 8-7 8-8v3l-14 14-8 2 1 5-4-1-1-23-1-9z" fill="#FA6522"/>
<path transform="translate(463,376)" d="m0 0h1l1 29v13l-2 19h-1v-53z" fill="#FD9EC0"/>
<path transform="translate(174,1009)" d="m0 0 26 2 2 2-3 1-11 1h-16v-5z" fill="#FDFDFD"/>
<path transform="translate(1290,399)" d="m0 0 2 2 1 11v34l-3-2z" fill="#FEAFBD"/>
<path transform="translate(55,972)" d="m0 0h2l5 11-1 4-7 1v7l-2-3v-11z" fill="#FD940D"/>
<path transform="translate(866,892)" d="m0 0h11v1h-10l2 9h23v1h-47v-1h6v-2l2-1 13-1z" fill="#FDB8BE"/>
<path transform="translate(183,310)" d="m0 0h1v11l-5 21-2 4v-18l1-10 4-4z" fill="#EC8856"/>
<path transform="translate(515,323)" d="m0 0h1v8h-28l-27 1-6 1-2-1v-3l61-1z" fill="#FC76B4"/>
<path transform="translate(1140,206)" d="m0 0h1v37l-1 18-3 1 1-36 1-2z" fill="#0073B2"/>
<path transform="translate(513,445)" d="m0 0h1l1 23v42h-9l-2-3 3-1-16-1v-1h21l1 3z" fill="#FD96BE"/>
<path transform="translate(173,509)" d="m0 0h57l1 1v5l-2-3-11-1h-32v1l-6 2h-6z" fill="#F62C28"/>
<path transform="translate(1287,425)" d="m0 0h1l1 27v33h-3v-21z" fill="#F3077B"/>
<path transform="translate(308,862)" d="m0 0h6l6 4 2 6-6-1-9-3h-4l-1 3-1-4-2-2z" fill="#FD9B10"/>
<path transform="translate(1011,406)" d="m0 0 6 1 10 5-1 6-2 2-12-6 1-2-2-3z" fill="#E50B5A"/>
<path transform="translate(1063,307)" d="m0 0h2l1 5-2 11-4 5-4 1 1-8 4-12z" fill="#FEBA02"/>
<path transform="translate(200,1011)" d="m0 0h13v2l10-1 1-1h17l-1 2-3 1-49 1v-1l11-1z" fill="#FEFAF2"/>
<path transform="translate(1053,930)" d="m0 0h1v33h-1v-8h-16l-23-1-1-3h6l1-2 1 3h31z" fill="#FDD8C4"/>
<path transform="translate(861,917)" d="m0 0h17l1 3-2 4h-40v-1l27-1 4-3-7-1z" fill="#FD9DC1"/>
<path transform="translate(194,422)" d="m0 0h4l2 9 3-2-2 9-1 14h-3l-1-17z" fill="#F19464"/>
<path transform="translate(196,986)" d="m0 0 2 1v3l3 8 2 5-5-2-9-6-1-5z" fill="#FDE9DE"/>
<path transform="translate(180,851)" d="m0 0 32 1 15 1v1l-9 1-46-1-1 2 1-4z" fill="#00828B"/>
<path transform="translate(682,361)" d="m0 0 4 1-1 4-7 6-5-2-3-4v-2l3-2z" fill="#FD74C6"/>
<path transform="translate(204,299)" d="m0 0 3 3 3 19 5 21-1 4-4-11-3-12-3-14z" fill="#FD94B8"/>
<path transform="translate(344,993)" d="m0 0 2 4 4 18v8l-2 1-6-20v-6h2z" fill="#F7637F"/>
<path transform="translate(396,846)" d="m0 0h5l7 6 1 4h-2l1 4 2 4-5-1-3-3 1-4-5-3-2-1z" fill="#FCB50D"/>
<path transform="translate(704,398)" d="m0 0 6 1-2 4h3l-1 3-2 1 1 7-4 10h-1l-1-11v-12z" fill="#FFF1DB"/>
<path transform="translate(828,342)" d="m0 0 6 1 2-1 5 3 4 5 2 2h-4l-1 2v-2l-6 1-5-5-3-4z" fill="#FBBCC7"/>
<path transform="translate(335,810)" d="m0 0 4 5 2 3h4v2l3 1h-3l1 5h-2v4l-3-1-6-11-2-3v-3h2z" fill="#FDB812"/>
<path transform="translate(1112,443)" d="m0 0h5l3 5 1 6-4-2-4-1h-4l-1 10v8l-2-4v-10l4-10z" fill="#F89625"/>
<path transform="translate(494,939)" d="m0 0 2 1v31l-2 6h-1v-34z" fill="#FC689A"/>
<path transform="translate(459,847)" d="m0 0 2 1-1 2 4 1 1 3-8 4 1 4h-3v-2l-5 1-1-3 9-10z" fill="#FCAB0C"/>
<path transform="translate(998,474)" d="m0 0 1 3-3 6-1 7-2 5h-2v2h-2l-1-4 1-5v-5l4-2 2-4z" fill="#FFA00B"/>
<path transform="translate(1287,407)" d="m0 0 2 4v41h-1l-1 12h-1v-43z" fill="#FC689F"/>
<path transform="translate(711,343)" d="m0 0 5 1-1 7-7 5h-4v-4l-2-1h2l2-4z" fill="#FD93B8"/>
<path transform="translate(192,291)" d="m0 0h3v7l-4 17-2 2 1-11h-3l-1 2 2-9 3-7z" fill="#FDF2EB"/>
<path transform="translate(236,984)" d="m0 0 6 2 9 6v3l-6 2h-4l-4-8z" fill="#FDDCD1"/>
<path transform="translate(1125,402)" d="m0 0h6l1 1v12l-2 3h-2v-2l-3 1z" fill="#FD7789"/>
<path transform="translate(229,858)" d="m0 0h30l2 1v26h-1l-1-24-28-1 2 4-4-2z" fill="#009381"/>
<path transform="translate(222,854)" d="m0 0h40v1l-9 1v1h-29z" fill="#FDFCFC"/>
<path transform="translate(822,502)" d="m0 0 4 1 4 2 2 7-2 2-10-3v-8z" fill="#FE768C"/>
<path transform="translate(433,896)" d="m0 0 4 1-3 10-6 2h-4l2-7 5-5z" fill="#007BAE"/>
<path transform="translate(496,496)" d="m0 0 5 1v4 1l6 1v1l-16 1h-14l-2-2 11-1 6-1h3l-1-2z" fill="#CB1EB9"/>
<path transform="translate(992,408)" d="m0 0 8 1 2 2h-5v6l-3-2h2v-3l-8 6-2 3h-2l-1 2-1-3v-5l6-4h4z" fill="#FC9510"/>
<path transform="translate(1063,323)" d="m0 0h1l-1 9-3 7-8-3-1-3h3l1-6 2 1 4-2z" fill="#FDAD06"/>
<path transform="translate(1141,447)" d="m0 0h1v62l-1-3h-2v2l-4-1 1-2-2-1v-2l6-2v-50z" fill="#007CB8"/>
<path transform="translate(582,329)" d="m0 0 7 1 2 6-2 2-10-1-3-2 2-5z" fill="#FC92C0"/>
<path transform="translate(187,241)" d="m0 0h50v6l-5-1h-3l-4-3-38-1z" fill="#FC689A"/>
<path transform="translate(544,435)" d="m0 0h1v46l-3-3v-24h1z" fill="#FEAFBD"/>
<path transform="translate(1259,426)" d="m0 0h1l1 17v27l-3-2v-26z" fill="#FD9FC0"/>
<path transform="translate(469,785)" d="m0 0h7l8 3v6l-2 2v-2l-7-1-1 3-2-1 1-4-4-4z" fill="#FEA208"/>
<path transform="translate(135,181)" d="m0 0h1v14l-1 19-3-1v-21l1-10z" fill="#F69129"/>
<path transform="translate(441,893)" d="m0 0h2v12l-2 2-8 1 3-9z" fill="#FAA11D"/>
<path transform="translate(403,830)" d="m0 0h6l3 3-1 5-7 2-4-4v-5z" fill="#EB9D6D"/>
<path transform="translate(198,260)" d="m0 0h2l1 5-3 1-1 8-2 12 1 10h-1v-5l-4 1 3-22z" fill="#FDAFBC"/>
<path transform="translate(1068,257)" d="m0 0 10 3 5 5-1 7-1-2-5-1-7-10z" fill="#FEA00A"/>
<path transform="translate(57,753)" d="m0 0h8v1l-6 1-1 61h-1v-50h-2v-8z" fill="#F99D50"/>
<path transform="translate(402,361)" d="m0 0h7l1 5h-2v2l2 1h-2l-1 3-7-2h-2l1-8z" fill="#DC1EBB"/>
<path transform="translate(1012,262)" d="m0 0 1 3 3-1v8h3l2 5h-7l-5-2 1-6z" fill="#F43432"/>
<path transform="translate(494,981)" d="m0 0h34l4 2-4 1h-30l-4-1z" fill="#FD89A8"/>
<path transform="translate(436,854)" d="m0 0h2v2l3 1h-2l-3 9-6 2-2-3h2v-6l3-4z" fill="#F99C1D"/>
<path transform="translate(449,479)" d="m0 0h1l1 16 1 3 5 3v2l20 1v1h-28z" fill="#FC86BB"/>
<path transform="translate(134,386)" d="m0 0h1v53h-1l-1-12h-1v-19l1-3z" fill="#EC8A56"/>
<path transform="translate(1272,374)" d="m0 0 6 1 13-1 6 2-1 3-9-1h-15l-6-1 1-2z" fill="#F62C28"/>
<path transform="translate(75,270)" d="m0 0h3l1 2v11l-1 12h-3l-1-2v-10z" fill="#FE9808"/>
<path transform="translate(51,712)" d="m0 0h1l1 17 11-1 6 1v1l-11 2-1 9h-2l-3-8-2-1z" fill="#FB8E1A"/>
<path transform="translate(380,482)" d="m0 0h1l1 7 4 2h9l7-1h9l1 2-8 2h-21l-3-1-1-7z" fill="#FDA7BB"/>
<path transform="translate(1288,380)" d="m0 0h5l1 2v17l-1 13h-1l-1-11-1-5v-12l-5-2z" fill="#FEF3ED"/>
<path transform="translate(447,353)" d="m0 0 3 2v38l-1 4h-2z" fill="#FB6AB3"/>
<path transform="translate(188,955)" d="m0 0h25v2l4 2h-28z" fill="#00BFB2"/>
<path transform="translate(358,866)" d="m0 0 6 1 2 5 3 2h-3l-1 3-9-3-1-1v-5z" fill="#F59423"/>
<path transform="translate(366,843)" d="m0 0 2 1-2 3h-2l-2 5-4 3-6-1v-5l5-2z" fill="#F69622"/>
<path transform="translate(1263,393)" d="m0 0h21v2l-2 1h-19v23h-1v-25z" fill="#FC8EB4"/>
<path transform="translate(1050,304)" d="m0 0 5 1 1 4-4 12-1 1h-6l1-2h2v-2h2l-1-8z" fill="#FF9C09"/>
<path transform="translate(227,1006)" d="m0 0h2v2h32v2l-3 1h-34l1-4z" fill="#039684"/>
<path transform="translate(376,772)" d="m0 0h6l1 4h-3v-2l-7 6-7 3-6 7-3 6-1-2 4-8 11-11z" fill="#FCA318"/>
<path transform="translate(376,337)" d="m0 0h7l2 2-2 4h5v2h8v1h-14l-6-2-1-1v-5z" fill="#C91EB9"/>
<path transform="translate(896,877)" d="m0 0h1v19l-4-2v-7l-1-4h-2l-1-3z" fill="#FFFAF2"/>
<path transform="translate(418,811)" d="m0 0h2l6 10 2 2-1 8-4-1-4-12z" fill="#FAB30C"/>
<path transform="translate(411,903)" d="m0 0 2 1-1 5-1 4-5 2v2l-5 3-2-1 2-4 5-8z" fill="#017AB2"/>
<path transform="translate(1094,507)" d="m0 0h35l2 2-16 1-6 2h-9l-2-3z" fill="#007BB5"/>
<path transform="translate(763,342)" d="m0 0h25l7 2-3 2-6-1-1 2-6 1-6-4-10-1z" fill="#FFF2DB"/>
<path transform="translate(1116,973)" d="m0 0h1v11h-33l-6-1v-1l37-1z" fill="#FDD3C3"/>
<path transform="translate(611,919)" d="m0 0h18l4 1v2h9v1h-30l3-2z" fill="#FD9EC1"/>
<path transform="translate(544,495)" d="m0 0h30l-1 3h-27z" fill="#BA0FB7"/>
<path transform="translate(992,1021)" d="m0 0 4 1 13 3-1 2h-21l2-5z" fill="#FFF1E9"/>
<path transform="translate(171,859)" d="m0 0 4 1v20l-3 1-1-3z" fill="#0BC9BD"/>
<path transform="translate(529,479)" d="m0 0h1l1 14 1 3 3 2v3l-4 2-1 4h-2v-24z" fill="#FD86B5"/>
<path transform="translate(133,455)" d="m0 0 1 2h2l-1 6-2 4v18l2 4-1 7-3 1v-34z" fill="#FEA206"/>
<path transform="translate(132,333)" d="m0 0 2 1 2 12-1 24-2-2z" fill="#EE8F56"/>
<path transform="translate(356,903)" d="m0 0h7l5 5v2l-4 2-5-1-6-5z" fill="#F39C0F"/>
<path transform="translate(1256,384)" d="m0 0h5v2l13 1v2l2 1h-8v-2h-4v4l-7 1-2 1v-7z" fill="#F20679"/>
<path transform="translate(942,1014)" d="m0 0h1l1 14h-17v-1h9l3-9z" fill="#00B4B2"/>
<path transform="translate(78,996)" d="m0 0h8l4 2-1 4-6 2-5-3-1-3z" fill="#EC8A57"/>
<path transform="translate(322,853)" d="m0 0 4 2 5 5 4 7 4 4 4-1 2-1v6l-3 1-5-3-7-8-6-9z" fill="#0077B0"/>
<path transform="translate(421,900)" d="m0 0 4 1v6l-4 6-3 2v-3l1-1-2-2 1-3-2-1z" fill="#F09B16"/>
<path transform="translate(262,854)" d="m0 0h4v4l-39 1h-3l-2-2 30-1v-1z" fill="#FFF1E9"/>
<path transform="translate(700,405)" d="m0 0h1l1 5 1 17-2 1-2-7-2-3v-9z" fill="#FD86B5"/>
<path transform="translate(447,505)" d="m0 0 6 1v2l53 1v1h-57l-2-2z" fill="#FC72B4"/>
<path transform="translate(332,869)" d="m0 0 4 2 5 5-1 2-7-4-5 1 2 6-7-6-3-3 5-1h7z" fill="#FA9B1B"/>
<path transform="translate(1109,474)" d="m0 0 2 3 3-3h3l2 2h2l-2 6-3 2-4-1-3-5z" fill="#F89122"/>
<path transform="translate(375,343)" d="m0 0 7 2-4 5-1 43h-1z" fill="#DC1EBB"/>
<path transform="translate(201,878)" d="m0 0h2v3l5 2 9 1 2 2v3h6v1h-9l-3-2-9-3-3-5z" fill="#FFF2E1"/>
<path transform="translate(498,487)" d="m0 0 4 1v5h-7l2-1v-2l-5 1h-21v-2h27z" fill="#FDD8C4"/>
<path transform="translate(443,975)" d="m0 0h1l-1 9-6 22-3 4 1-8 5-21z" fill="#84BAA3"/>
<path transform="translate(376,442)" d="m0 0h1l1 54-2 1-1-2z" fill="#DC1EBB"/>
<path transform="translate(491,346)" d="m0 0h6v1l-5 1h-25l-1 7-1-3h-2l1 3-2 2-1-2v-8z" fill="#FC89BB"/>
<path transform="translate(1117,949)" d="m0 0 2 3h27l3-1 2 3-32 2-1 5h-1l-1-10z" fill="#FDD8C4"/>
<path transform="translate(1103,443)" d="m0 0 4 1v2l3 1-4 10-3-1-1-3v-9z" fill="#007FB4"/>
<path transform="translate(236,867)" d="m0 0 9 3 6 4-2 4-5 1 1-3-3-1v-2h-2l-1-3-3-1z" fill="#FEEEE0"/>
<path transform="translate(530,484)" d="m0 0 5 2 1 2v14l-2-4-3-2-1-3z" fill="#FC6CB4"/>
<path transform="translate(450,330)" d="m0 0h3v21l-4 1v-21z" fill="#FC73C3"/>
<path transform="translate(1293,450)" d="m0 0h1v38l-1 2-3-1v-9l3-1z" fill="#FC8CBD"/>
<path transform="translate(367,900)" d="m0 0 6 3 2 3-1 4-8-2-3-5 3-1z" fill="#008DB2"/>
<path transform="translate(348,878)" d="m0 0 4 1 1 3-2 4-3 1 1 3h-3l-3-9z" fill="#0C5D15"/>
<path transform="translate(465,815)" d="m0 0 4 1-7 8h-2v5l-3 4-4 1 1-5-1-2 3-2 6-5z" fill="#FDAB08"/>
<path transform="translate(78,178)" d="m0 0h25v1l-22 1-1 16-1 6h-1z" fill="#FCC2A0"/>
<path transform="translate(413,830)" d="m0 0 5 1-1 5-4 7h-2v2h-2l1-7z" fill="#FEAB06"/>
<path transform="translate(401,860)" d="m0 0 7 4 3 3 1 6-2 1-3-3-2-3h-2l-5-7z" fill="#15CDD8"/>
<path transform="translate(265,124)" d="m0 0h55v1l-52 1-3 3-1-4z" fill="#00BAA8"/>
<path transform="translate(407,892)" d="m0 0v3l-2 6h-6l-5-6 2-1 5 1z" fill="#16B1CE"/>
<path transform="translate(367,864)" d="m0 0 5 3 3 3v2l-2 1h-7l-2-6z" fill="#00BBAB"/>
<path transform="translate(392,841)" d="m0 0 5 2 3 3h-4v6l-4 2-2-10z" fill="#05B8B5"/>
<path transform="translate(296,793)" d="m0 0 4 2 2 6 4 8v2l-3-1-6-8-1-2z" fill="#FEBC02"/>
<path transform="translate(55,766)" d="m0 0h2v37h-1l-2-26z" fill="#FF9B09"/>
<path transform="translate(951,485)" d="m0 0 16 4 7 2 11 4 1 2-6-1-9-3-6-1v-2l-10-1-4-2z" fill="#EB1C4B"/>
<path transform="translate(1099,468)" d="m0 0 2 3 1 26 1 5h2l-1 3-4-4-1-13z" fill="#008FB6"/>
<path transform="translate(1338,1014)" d="m0 0h1v10l-1 3h-14v-1h5l-1-5 7 1 3 1z" fill="#FEF8F0"/>
<path transform="translate(317,811)" d="m0 0 5 5 7 10-2 4-6-9-6-7v-2z" fill="#FB9B19"/>
<path transform="translate(407,350)" d="m0 0 8 2-3 2h-27l3-2 14-1z" fill="#FC89BB"/>
<path transform="translate(374,929)" d="m0 0 4 2 3 3v3h-8l-4-2h2l-1-3 1-2z" fill="#FE970E"/>
<path transform="translate(422,916)" d="m0 0h1v7l-3 4-7 2v3h-2l-2-6 1-3 3-1 1 3 7-3z" fill="#007EAE"/>
<path transform="translate(358,823)" d="m0 0h4l-1 4-2 5-4 4h-2v-7l2-4z" fill="#007C73"/>
<path transform="translate(1284,462)" d="m0 0h2l1 23-1 3h-4l1-6z" fill="#FD93C2"/>
<path transform="translate(118,926)" d="m0 0h3 2l1 7-2 5-1-2h-3l-1 3-1-3z" fill="#FF9E0A"/>
<path transform="translate(380,863)" d="m0 0 3 1 1 4-4 7 4 3-7-1-2-2-4-2 4-1 1-2 6-1v-4h-2z" fill="#EC8B57"/>
<path transform="translate(403,820)" d="m0 0h6l1 7 2 3h-8l-2-8z" fill="#FEAD06"/>
<path transform="translate(374,505)" d="m0 0 42 1v1l-33 1-2 2h-6z" fill="#FDE1CD"/>
<path transform="translate(879,877)" d="m0 0 8 1-2 7v3l-3 1-2-4z" fill="#FD72C7"/>
<path transform="translate(821,515)" d="m0 0 5 1v2l17 1v1h-25l-1 2v-5z" fill="#FE778B"/>
<path transform="translate(235,936)" d="m0 0h14v3h-25v-2h8z" fill="#F9AF9B"/>
<path transform="translate(1290,384)" d="m0 0h1v12l-1 16-2-1-1-10 1-7-2-1h4z" fill="#FC76B4"/>
<path transform="translate(174,504)" d="m0 0h10l14 1 1 2h-25z" fill="#FD9CC0"/>
<path transform="translate(983,407)" d="m0 0h8l1 4-7 3-4 1 1-7z" fill="#FEBC02"/>
<path transform="translate(131,179)" d="m0 0h1l1 29h1l1 14h-1v-5h-3z" fill="#FEAF06"/>
<path transform="translate(446,971)" d="m0 0h1v7l-2 4-3 13-2 8-2-2 2-10z" fill="#494A32"/>
<path transform="translate(415,898)" d="m0 0 4 3-2 4-4 6-2-2 1-5h-2l2-4z" fill="#0078B1"/>
<path transform="translate(193,872)" d="m0 0h5l4 8v2l-10-2v-7z" fill="#FCA8AB"/>
<path transform="translate(573,337)" d="m0 0h10l2 1v3h-2v-2l-5 2-7-1h-4l-7-1v-1z" fill="#C91FB9"/>
<path transform="translate(548,979)" d="m0 0h14l5 2v1h-17l-4 2-2-2 1-2z" fill="#FC6B97"/>
<path transform="translate(308,862)" d="m0 0h3l2 5-1 2-9-1-1 3-1-4-2-2z" fill="#FDA70C"/>
<path transform="translate(53,710)" d="m0 0 4 2-2 10-2 9h-1v-20z" fill="#FEA608"/>
<path transform="translate(369,480)" d="m0 0 2 3h3v9l-1 5h-2l-2-6z" fill="#FD97C1"/>
<path transform="translate(843,432)" d="m0 0h1v7l1 3-5 6-8 12-4 3 2-4 9-14 3-8z" fill="#FDB3BD"/>
<path transform="translate(1017,263)" d="m0 0h8l16 5-4 1-13-4h-6v5l4 2v2l2 1-5-1v-2h-3v-8z" fill="#FC8415"/>
<path transform="translate(188,917)" d="m0 0 38 1v1l-38 1z" fill="#FEB285"/>
<path transform="translate(479,840)" d="m0 0 8 1-4 4-8 4-1-5 3-3z" fill="#FB961C"/>
<path transform="translate(446,816)" d="m0 0 1 4-3 7-3 5-1 4h-3l1-6 7-13z" fill="#0075B1"/>
<path transform="translate(314,806)" d="m0 0 4 2 6 7 2 1 3 5 1 5h-2l-8-11-6-7z" fill="#0077B3"/>
<path transform="translate(585,509)" d="m0 0h10v8l-3-3h2l-1-3-4 5-4-1-1-5z" fill="#D51EBA"/>
<path transform="translate(987,497)" d="m0 0h3v2h5v3h2l-1 3h-11l-2-2 5 1 1-5h-2z" fill="#E71157"/>
<path transform="translate(580,484)" d="m0 0 2 1 1 7-3 2h-38v-1l37-1 2-5-2-1z" fill="#FC97C0"/>
<path transform="translate(196,986)" d="m0 0 2 1v3l1 7-4-1-1-3-3-1v-2l-2-1z" fill="#FCC3BE"/>
<path transform="translate(387,895)" d="m0 0 7 3 2 4v5l-4-2-4-4z" fill="#FDAA09"/>
<path transform="translate(357,832)" d="m0 0 3 1-6 10v4l2 1-3 2-1-1v-13h3z" fill="#007AA0"/>
<path transform="translate(1e3 468)" d="m0 0 1 3-7 23-3 4-2-1 1-2h2l1-5 1-7 3-6v-6z" fill="#FF9507"/>
<path transform="translate(214,935)" d="m0 0h28v1l-10 2-8-1v2h-2v-2l-8-1z" fill="#009489"/>
<path transform="translate(710,293)" d="m0 0 3 1-1 3h5l4 4-1 2-5 1-2-4h-2l-2-6z" fill="#FD8FBD"/>
<path transform="translate(705,515)" d="m0 0 5 2 1 1 24 1v1h-33z" fill="#FD7A8E"/>
<path transform="translate(815,353)" d="m0 0 5 1 5 5v2l4 2 7 8-1 2-16-16z" fill="#FD99B9"/>
<path transform="translate(398,881)" d="m0 0 1 3h7l-1 5-3 2-4-1z" fill="#FEA40A"/>
<path transform="translate(1096,439)" d="m0 0h1v19l-3-1v-15z" fill="#FF9507"/>
<path transform="translate(204,281)" d="m0 0h3l3 10-1 4-2-4-1 7h-1l-1-7z" fill="#FDBDBF"/>
<path transform="translate(453,942)" d="m0 0h1v8l-4 15-2 4-1-4 4-16z" fill="#4F462B"/>
<path transform="translate(425,889)" d="m0 0 2 2 6-1h2l-2 4-4 4-3-1-2-6z" fill="#E7890F"/>
<path transform="translate(411,890)" d="m0 0 2 1v2h2l-2 6-6 1v-6z" fill="#FEBD02"/>
<path transform="translate(134,489)" d="m0 0 2 4v10h-9l4-3 1-5h1z" fill="#ED8D59"/>
<path transform="translate(761,414)" d="m0 0m-2 1 3 1-3 3-8 3-9 4-3-1 4-3z" fill="#FDAEBE"/>
<path transform="translate(221,343)" d="m0 0 2 2 2 9 1 18-3 7-1-3 1-5v-15l-2-9z" fill="#FDC2D8"/>
<path transform="translate(966,403)" d="m0 0 1 2 4-1-3 10h-2l-1 2-1-2 1-9z" fill="#F12939"/>
<path transform="translate(224,1011)" d="m0 0h17l-1 2-3 1h-15l2-1z" fill="#FFF9F1"/>
<path transform="translate(364,819)" d="m0 0 1 2h3l1-2h6l-3 7-4-1-3-1-2 1z" fill="#E5AD91"/>
<path transform="translate(436,809)" d="m0 0h3l-2 5-3 5-2-2-2 3-1-3-2-1z" fill="#DBA57D"/>
<path transform="translate(352,888)" d="m0 0h3v3l3 1 1 3-5 1-2 2-2-3 1-6z" fill="#017FAA"/>
<path transform="translate(290,828)" d="m0 0 3 1v5l2 4h-3l-1-2-6 1 2-5z" fill="#FDA50A"/>
<path transform="translate(1e3 439)" d="m0 0h1l2 13 2 1-2 7h-2v-3l-3 1v-3h2z" fill="#FD8E13"/>
<path transform="translate(134,441)" d="m0 0h1l1 6v10h-2l-2 2v-12z" fill="#EC8A57"/>
<path transform="translate(219,250)" d="m0 0h6v4h-19l4-2z" fill="#FEAFBD"/>
<path transform="translate(1254,483)" d="m0 0h1v7l7 1-3 2h-3v2l8 1v1h-9l-1-1z" fill="#E90669"/>
<path transform="translate(667,304)" d="m0 0h9l4 4-9 1-3-1z" fill="#FEE5E2"/>
<path transform="translate(1019,949)" d="m0 0 2 1v2l16 1v1h-23l-1-3h6z" fill="#FDCDB3"/>
<path transform="translate(513,934)" d="m0 0h9l-1 4h-2v4h-2l-2-3h-2z" fill="#FC689A"/>
<path transform="translate(407,877)" d="m0 0h2l-1 9-2 1v-3h-7v-3l6-1 2-1z" fill="#FEB422"/>
<path transform="translate(383,868)" d="m0 0h2l1 2 5 1-4 2-3-1v2l2 1 1 5-8-5 2-1z" fill="#01B2B4"/>
<path transform="translate(422,869)" d="m0 0 6 5-1 4-5 1-4-4 4 1-1-3 2-1z" fill="#E48011"/>
<path transform="translate(218,505)" d="m0 0h9l2 1v2h-20l4-2z" fill="#FD98BF"/>
<path transform="translate(940,481)" d="m0 0 2 1v6l6 4 8 3-4 1-7-3-6-3-1-2z" fill="#FA971A"/>
<path transform="translate(978,423)" d="m0 0 4 2-5 6h-2v2h-2l-1 2v-5z" fill="#FDA609"/>
<path transform="translate(111,372)" d="m0 0 1 3-4 6-2 4-3-1v-4h2l2-5z" fill="#FCA338"/>
<path transform="translate(506,330)" d="m0 0h7l-1 6-4 1-3-2z" fill="#FD93C2"/>
<path transform="translate(81,219)" d="m0 0 1 4 3 4v4h-2l-2 4-1-2v-13z" fill="#FEFBF6"/>
<path transform="translate(385,908)" d="m0 0 7 7v5h-2l-5-6-2-4h2z" fill="#F29217"/>
<path transform="translate(393,873)" d="m0 0 3 1v2l6 1 2 1v2l-5 1-1 8h-1l-2-11z" fill="#F59034"/>
<path transform="translate(322,854)" d="m0 0 3 2-1 4-2 3-6-3 1-3h2l1-2 2 1z" fill="#FD9E0F"/>
<path transform="translate(119,498)" d="m0 0h12l1 3-7 2-5-1 1-3z" fill="#FA6032"/>
<path transform="translate(998,460)" d="m0 0v3h-2v4h-2l-1 4-11 11-2-1 12-12 3-7z" fill="#FD8F0E"/>
<path transform="translate(78,362)" d="m0 0h1l1 5v13l-2 2-1-2v-10z" fill="#FE9D2C"/>
<path transform="translate(484,361)" d="m0 0 5 1-1 3h-2v3l3 1-2 2-2-2-4 1-1-6 3-1 1-1z" fill="#DB1EBA"/>
<path transform="translate(1040,286)" d="m0 0 7 1 12 4 1 2-11-3h-8z" fill="#FEA307"/>
<path transform="translate(292,826)" d="m0 0h9l1 5h-9l-1 3v-5z" fill="#FCB934"/>
<path transform="translate(409,820)" d="m0 0h2l5 10-3 1-2 2v-2l-2-1 2-1-2-2-1-6z" fill="#F19412"/>
<path transform="translate(469,785)" d="m0 0h7l4 3-5 2-1 6-2-1 1-4-4-4z" fill="#F7A01B"/>
<path transform="translate(1249,502)" d="m0 0 25 1v1l-17 1v1l-7-1z" fill="#E50662"/>
<path transform="translate(1141,499)" d="m0 0h1v10l-1-3h-2v2l-4-1 1-2-2-1v-2l6-2z" fill="#007BAE"/>
<path transform="translate(844,401)" d="m0 0h1v25l-2-1-1-4v-7l1-5z" fill="#FFF2DB"/>
<path transform="translate(1261,384)" d="m0 0h13l-1 4-13-1z" fill="#E50661"/>
<path transform="translate(771,355)" d="m0 0 6 3v4l-10-1 2-5z" fill="#FFF2DB"/>
<path transform="translate(711,343)" d="m0 0 5 1-10 8-2 2v-2l-2-1h2l2-4z" fill="#FFF2EA"/>
<path transform="translate(394,922)" d="m0 0h2v13h-4l-1-2 3-3-2-3v-4z" fill="#F6901C"/>
<path transform="translate(118,742)" d="m0 0 5 3-1 5-1-2-3 2h-6l4-4h2z" fill="#FD9D12"/>
<path transform="translate(533,501)" d="m0 0 6 2-3 2v3h-7v-3h2l-1-3z" fill="#FC94C0"/>
<path transform="translate(952,477)" d="m0 0 5 1 1 4h-2l-1 3-6-1 2-2-1-4z" fill="#FFBF02"/>
<path transform="translate(1260,392)" d="m0 0h17v1l-14 1-4 1 1 10-1 6h-1v-17z" fill="#FD9AC1"/>
<path transform="translate(218,337)" d="m0 0 3 3-1 5-2 1-2 4-1-9 1-3z" fill="#CDF8FB"/>
<path transform="translate(131,173)" d="m0 0h4l1 2v6l-3 1v10h-1v-13-3l-3-2z" fill="#FF9707"/>
<path transform="translate(243,989)" d="m0 0 4 2 1 4-3 2h-4l-1-5z" fill="#FEAFB8"/>
<path transform="translate(427,834)" d="m0 0h2l3 8h2l-1 5-2 1-2 4-2-4 2-2z" fill="#007A6D"/>
<path transform="translate(449,479)" d="m0 0h1l1 16 1 3 5 3-1 3h-2v-3l-4 1-1-6z" fill="#FC8ABA"/>
<path transform="translate(450,484)" d="m0 0h1v8h4l1 8-5-2-1-3z" fill="#FC6CB3"/>
<path transform="translate(452,337)" d="m0 0 3 4v18l-2-3-1-8z" fill="#FD93C2"/>
<path transform="translate(266 1e3)" d="m0 0h1v12l-6-2 2-7h2z" fill="#18CFCB"/>
<path transform="translate(330,934)" d="m0 0h11l3 2-4 2-8 1v-4z" fill="#EE5365"/>
<path transform="translate(403,839)" d="m0 0h7l-1 6-4-2v-2l-12 1v-2z" fill="#BA6B09"/>
<path transform="translate(393,784)" d="m0 0 5 1-3 2 1 7-1 5h-3v-9z" fill="#FAA21A"/>
<path transform="translate(1009,413)" d="m0 0 5 1 4 3-1 8-1 2-2-1 1-8-6-3z" fill="#FD8A0E"/>
<path transform="translate(75,318)" d="m0 0 1 4 3 1v7l-2 1-2 4z" fill="#00B8B2"/>
<path transform="translate(1027,317)" d="m0 0 10 2-2 2 1 2h-3v2l-6-1 1-5z" fill="#F73A2B"/>
<path transform="translate(881,312)" d="m0 0 1 3-2 3-1 5h-1v-5l-5-1-1-2z" fill="#FD95BC"/>
<path transform="translate(342,988)" d="m0 0 2 1v9h-2l-1 2-2-10z" fill="#FA5FA5"/>
<path transform="translate(634,876)" d="m0 0 20 1v1l-20 1-5-1-1 3v-4z" fill="#FDA2BF"/>
<path transform="translate(437,810)" d="m0 0 2 1-2 7-2 4h-5v-3l2-3 2 1 2-3z" fill="#FD9F0D"/>
<path transform="translate(968,466)" d="m0 0h1l1 20 1 5-4-1z" fill="#FA7520"/>
<path transform="translate(596,975)" d="m0 0 5 2 10 1v2l-8 1-6-2z" fill="#DD1CB7"/>
<path transform="translate(369,927)" d="m0 0 5 1v2l-3 3v2l-5-1-1-4 3 1z" fill="#FDAA08"/>
<path transform="translate(416,906)" d="m0 0h2l1 4 1 2-2 2-3 1v-2l-3 1 1-4z" fill="#FEBA05"/>
<path transform="translate(261,859)" d="m0 0h2l1 7-1 19 3 1h-4z" fill="#FBAB7D"/>
<path transform="translate(422,832)" d="m0 0 3 1-4 5 2 5h-4l-2-5z" fill="#007F84"/>
<path transform="translate(400,831)" d="m0 0h8l2 4-2 2-5-1z" fill="#EF7CB3"/>
<path transform="translate(421,823)" d="m0 0 2 4 2 5h-3l-1 3-5-5 1-4 2 2h1z" fill="#0092B5"/>
<path transform="translate(417,794)" d="m0 0 3 4 4 10-1 4-3-6v-4h-2l-1-5z" fill="#FE9B08"/>
<path transform="translate(54,722)" d="m0 0 4 2 3 3v2h-8z" fill="#FD9F12"/>
<path transform="translate(73,172)" d="m0 0h17v1h-16l1 6 3 1-1 3h-4z" fill="#F29766"/>
<path transform="translate(1331,1019)" d="m0 0h6l1 4-3 1v-2l-19-1v-1z" fill="#FFF1E6"/>
<path transform="translate(418,864)" d="m0 0 4 4 2 5-2 1v2l-4-1 1-3-1-2z" fill="#FE9E0A"/>
<path transform="translate(1007,479)" d="m0 0h1l1 10h-4l-1-7z" fill="#FEBB02"/>
<path transform="translate(444,967)" d="m0 0 4 2v5h-2l-1 5-3-1 1-9z" fill="#13ADA2"/>
<path transform="translate(406,895)" d="m0 0h1v5l6-1-5 7-3-1z" fill="#F89D21"/>
<path transform="translate(172,859)" d="m0 0 3 1v15l-3-6z" fill="#44EBFA"/>
<path transform="translate(1136,409)" d="m0 0h1l-1 16-2-3v-2l-2-1z" fill="#007A68"/>
<path transform="translate(1252,379)" d="m0 0h7v1h-6l-1 5 4-1-1 4h-2l-2 4v-12z" fill="#FDA5BC"/>
<path transform="translate(461,331)" d="m0 0h6l-1 6h-7l-1-5z" fill="#FD9CC0"/>
<path transform="translate(450,933)" d="m0 0h5v8l-3-1-2 1z" fill="#00A8AC"/>
<path transform="translate(346,890)" d="m0 0 3 1 4 8-3 4-2-4v-2z" fill="#D47B0D"/>
<path transform="translate(579,494)" d="m0 0h7v8l-4-2z" fill="#DC1EBB"/>
<path transform="translate(1064,277)" d="m0 0h1v7l-2 3h-6l2-4 4-1z" fill="#FF9C09"/>
<path transform="translate(346 1e3)" d="m0 0 2 1 2 9v6l-2-1-2-6z" fill="#F5736D"/>
<path transform="translate(172,999)" d="m0 0 3 2v8l-4 1z" fill="#46EDFD"/>
<path transform="translate(341,900)" d="m0 0 8 2v4l-4 1-5-6z" fill="#0074A2"/>
<path transform="translate(621,881)" d="m0 0h1l2 20-3 1z" fill="#FEB285"/>
<path transform="translate(436,854)" d="m0 0h2v2l3 1h-2v2l-7 1-2 1 3-6z" fill="#F9A419"/>
<path transform="translate(351,838)" d="m0 0h1v11l-6-1v-6l3 3z" fill="#F59C2D"/>
<path transform="translate(1014,420)" d="m0 0h1v6l-3 6-2-2v-7l4-1z" fill="#FFA00B"/>
<path transform="translate(204,299)" d="m0 0 3 3v11l-2 3-1-7z" fill="#FD8AB4"/>
<path transform="translate(343 1e3)" d="m0 0 2 3 4 14v4l-2-2-4-14z" fill="#EF2D76"/>
<path transform="translate(397,925)" d="m0 0 4 1-1 7-4 1v-7z" fill="#0074B3"/>
<path transform="translate(211,884)" d="m0 0h6l2 2v3h6v1h-9l-1-4-4-1z" fill="#FEEFE6"/>
<path transform="translate(194,880)" d="m0 0 6 1 3 1 4 4v2l-6-2-7-5z" fill="#FBC9AB"/>
<path transform="translate(193,870)" d="m0 0 2 1-2 3v5l-4-1-1-4 1-2z" fill="#FDE6DA"/>
<path transform="translate(262,854)" d="m0 0h4v4l-13-1-1-2z" fill="#FEF3E9"/>
<path transform="translate(1024,316)" d="m0 0h3l2 3-1 4-8-1v-2l5-1 1-2z" fill="#E91551"/>
<path transform="translate(667,306)" d="m0 0 1 2h14l-4 2-9 2-2-2z" fill="#FDACBD"/>
<path transform="translate(74,173)" d="m0 0h6l2 2-4 4-4 1z" fill="#FF9C09"/>
<path transform="translate(293,825)" d="m0 0h10l4 2-5 4-2-3 1-2-7 1z" fill="#FEB105"/>
<path transform="translate(72,701)" d="m0 0v3l-11 11v-3l7-8z" fill="#1CD8E8"/>
<path transform="translate(458,496)" d="m0 0 3 1-1 4 1 1 7 1v1h-12z" fill="#C91EB9"/>
<path transform="translate(380,482)" d="m0 0h1l1 7 4 2-1 3-5-1-1-7z" fill="#FDA1BB"/>
<path transform="translate(53,963)" d="m0 0 4 1h-2l1 2 1-1h9v1l-7 1-3 4h-2z" fill="#FA931F"/>
<path transform="translate(465,815)" d="m0 0 4 1-7 8h-2l-1 2v-3l3-3z" fill="#FB9A23"/>
<path transform="translate(453,329)" d="m0 0 20 1v1l-12 1-6 1-2-1z" fill="#FC6C97"/>
<path transform="translate(1117,919)" d="m0 0 5 1v2l-2 1-1 7-2 1z" fill="#FDD8C4"/>
<path transform="translate(861,917)" d="m0 0h17l1 3-3 3h-1v-5h-14z" fill="#FD92C1"/>
<path transform="translate(682,900)" d="m0 0 16 2v1h-19l-1-2z" fill="#FDACBD"/>
<path transform="translate(241,872)" d="m0 0 6 1v3l3 1-3 2-3-1 1-2-3-1z" fill="#FDAAB7"/>
<path transform="translate(346,860)" d="m0 0 4 2 1 5-3 2-2-4-1-4z" fill="#E9840B"/>
<path transform="translate(447,505)" d="m0 0 6 1v2l8 1v1h-12l-2-2z" fill="#FC87BB"/>
<path transform="translate(1298,382)" d="m0 0h2v13l-3 1v-8z" fill="#F3077B"/>
<path transform="translate(1006,285)" d="m0 0 5 1-1 2h-2l-1 6-3-1z" fill="#E4065F"/>
<path transform="translate(314,860)" d="m0 0 5 1 2 4-1 3-4-4-6-2z" fill="#DB8D5D"/>
<path transform="translate(408,337)" d="m0 0h19l-2 4-5-2-12-1z" fill="#C91EB9"/>
<path transform="translate(377,885)" d="m0 0 8 4-1 4h-3l-4-5z" fill="#FCA70F"/>
<path transform="translate(624,873)" d="m0 0 4 1 1 2-1 7-3-3-2-5z" fill="#FFF1E9"/>
<path transform="translate(943,483)" d="m0 0 3 1-1 4 2 1v2l4 2-5-1-4-3v-5z" fill="#E80F51"/>
<path transform="translate(493,482)" d="m0 0 3 1 1 5-10-2v-1h5z" fill="#BA0FB7"/>
<path transform="translate(197,441)" d="m0 0h2l1 11h-3z" fill="#EC8A57"/>
<path transform="translate(720,433)" d="m0 0m-2 1h2l-1 4 11-1-2 2-3 1h-7l-1-5z" fill="#FDACBD"/>
<path transform="translate(467,348)" d="m0 0 9 2 2 2h-12z" fill="#FD9EC1"/>
<path transform="translate(665,306)" d="m0 0h1l1 7 3 3-2 4-3-5-1-1v-7z" fill="#FD9DBD"/>
<path transform="translate(188,917)" d="m0 0 10 1v2h-10z" fill="#FDA8AB"/>
<path transform="translate(362,904)" d="m0 0h2l4 4v2l-4 2-1-4h-2z" fill="#FDA00F"/>
<path transform="translate(378,902)" d="m0 0 5 1 2 3v4h-2l-2-5h-2z" fill="#FC9513"/>
<path transform="translate(306,863)" d="m0 0h3v2l-4 1 2 2h-4l-1 3-1-4-2-2z" fill="#F9A821"/>
<path transform="translate(469,784)" d="m0 0h11l4 2-1 2-14-3z" fill="#F9C7AB"/>
<path transform="translate(498,487)" d="m0 0 4 1v5h-7l2-1-1-3h2z" fill="#FDDCC8"/>
<path transform="translate(723,485)" d="m0 0 4 1 8 3 3 3-5-1-11-4z" fill="#FD86B5"/>
<path transform="translate(1285,479)" d="m0 0 2 4-1 5h-4l1-6z" fill="#FC97BD"/>
<path transform="translate(870,368)" d="m0 0 6 1-2 4-7-2-1-2 4 1z" fill="#FD7BC4"/>
<path transform="translate(174,357)" d="m0 0h1l1 15-3-1-1-6h2z" fill="#FDC0D6"/>
<path transform="translate(872,304)" d="m0 0h10l-2 1-1 4-7-3z" fill="#FEF4EE"/>
<path transform="translate(1016,252)" d="m0 0 12 3-4 1h-6l-4 1z" fill="#EB1C4A"/>
<path transform="translate(1020,911)" d="m0 0h1v11h-2v-2h-5l-1-2h7z" fill="#FDD8C4"/>
<path transform="translate(1098,873)" d="m0 0h4v8h-2l-2-4z" fill="#F99A7E"/>
<path transform="translate(478,872)" d="m0 0v3l-7 7-5 1 4-4z" fill="#5A3F23"/>
<path transform="translate(380,806)" d="m0 0h2l-2 5-4 7-1-4 4-7z" fill="#FAA527"/>
<path transform="translate(393,776)" d="m0 0 10 4v3h-2v-2l-7-2-1 2z" fill="#FEAE0D"/>
<path transform="translate(201,449)" d="m0 0h3l-2 9-1 5h-1v-9z" fill="#FDB0BD"/>
<path transform="translate(1010,289)" d="m0 0 5 1 2 2-4 1-1 2-3-1z" fill="#FF9A09"/>
</svg>
