<?xml version="1.0" encoding="UTF-8"?>
<svg version="1.1" viewBox="0 0 1600 960" width="1280" height="1280" xmlns="http://www.w3.org/2000/svg">
<path transform="translate(288,530)" d="m0 0h77l1 1 1 12v251l-1 25-1 4h21l-1-21v-111l1-16 7-2h82l2 1v141l-2 2-1 6 64 1-4-11-14-55-2-9 2-2h20l7 1v-4l-9-3-4-6-3-3v-2l-5-1-2-2-2-6-12-8-11-8-7-6 1-5 10-3 1-1h8l-3-5-5-4-7-1-8-6-4-5 6-7 3-3 8 1 8 4h3v-4l-5-5-4-5-3-2v-2l-4-2-5-11v-6l1-1h12l5 3 7 6 9 11 5 5v5l5 1 3-9 5-16 4-5 5-5 6-4 4 2 1 6v7l-2 6-1 7-4 5-3 6 1 7 6 4 4 4v4l7 1-2-5 1-4 10-4-1-4-3-9-5-11-1-4v-12l2-3 5 2 8 6 5 8 3 6v5l5 7 4-5 5-4 6-5 5-6 9-7 11-1 5 4-2 5-6 10-3 1v2l-4 4-5 6-4 4 3 1 13-6 5 1 5 5 3 2-1 4-9 7-12 5-6 4v3h9l10 2 1 4-7 8-5 3-9 3-8 4h-2v10l-1 1-9 1-5 4-2 4v6l-6 2-3 5 34 1 2 1-1 9-7 26-7 27-4 11-1 2 91 1 1-34 2-4h-41l-1-2v-48l3-2h87v-50h240l1 1v46l-1 1-12 1 1 3v52h39l1 1v31l-1 3 35 1v-156h245l3 9 10 39 12 46 11 42 1 5v52l-2 1h-1050l-1-1v-36l3-2h12v-3l-2-3v-250zm240 146 2 7 3 3 5-2 3-7-5-1zm32 4-4 3 1 7 6 1 1 7h5l1-4-5-5-2-9zm14 0-4 2 2 7 1 1h9l-1-5-3-5zm-22 10-1 5 3-1v-4zm52 1-7 3 1 5 1 1h5l5-5v-4zm-22 10-1 1-1 7-8 3 1 4 5 3 8-6 3-7v-5zm-41 12-2 1-3 6-3 3v3h6l5-3h7l-1-7zm28 16-2 3 1 4 3 3 6-1 3-4-1-4-1-1z" fill="#EC8753"/>
<path transform="translate(469,99)" d="m0 0h40l14 1v317h25v-159h57v158h10v-158h54v158h9l1-158h53l1 1v158l84-1 5-4 10-18 2-3v-5l-12-11-7-10-6-13-4-17v-12l4-16 5-12 7-11v-4h-5l-7 7-8 7-4 1-5-6-3-8v-16l5-10-5-6 1-4 1-2 4-1 6 5 5-2 6-3 11-3 6-10 2-2 87-1 5 3 7 11 1 1 10 2 11 5v-2l4-3h5l2 2-1 5-4 5 5 10v19l-7 13-5-2-12-13-6-3-2 1v6l6 8 7 15 2 10 1 10-1 13-5 16-6 11-11 12-3 3h-2l4 8 10 18v7l193-1 1-282 1-8 1-1h41l1 291h16l1-124 1-1h50l1 2v123h10l-1-21v-56l1-47 1-1h36l14 1v125h26v38l-1 1h-1052v-41h32v-290h68l1 291h11l1-225h58l1 1v225l22-1zm365 134-3 4 1 4 7 6 5 5-5 5-13 12-1 5 5 2 10-6 14-7 11-3h20l14 3 22 12 5-1-1-5-10-10-7-6v-2l14-8 1-3-4-6-2-1zm19 163-6 9-2 4v7l4 1h62l1-5-8-16h-7l-4 2h-9l-3 2h-11l-12-2z" fill="#EC8956"/>
<path transform="translate(1045,668)" d="m0 0h245l3 9 10 39 12 46 11 42 1 5v12l-95-1h-187z" fill="#FEF4DB"/>
<path transform="translate(742,684)" d="m0 0h240l1 1v46l-1 1-12 1 1 3v52h39l1 1v31l-1 1-313 1-6-1 1-31 2-4h-41l-1-2v-48l3-2h87z" fill="#FC68AD"/>
<path transform="translate(288,530)" d="m0 0h77l1 1 1 12v251l-1 25-2 3h-74l-3-5v-250z" fill="#FE9F0F"/>
<path transform="translate(306,125)" d="m0 0h68v289l-38 1h-30z" fill="#69EEFC"/>
<path transform="translate(559,618)" d="m0 0 4 2 1 6v7l-2 6-1 7-4 5-3 6 1 7 6 4 4 4v4l7 1-2-5 1-4 10-4-1-4-3-9-5-11-1-4v-12l2-3 5 2 8 6 5 8 3 6v5l5 7 4-5 5-4 6-5 5-6 9-7 11-1 5 4-2 5-6 10-3 1v2l-4 4-5 6-4 4 3 1 13-6 5 1 5 5 3 2-1 4-9 7-12 5-6 4v3h9l10 2 1 4-7 8-5 3-9 3-8 4h-2v10l-1 1-9 1-5 4-2 4v6l-6 2-3 5 34 1 2 1-1 9-7 26-7 27-4 11h-62l-2-2-7-29-9-36v-5l4-1h22v-4l-9-3-4-6-3-3v-2l-5-1-2-2-2-6-12-8-11-8-7-6 1-5 10-3 1-1h8l-3-5-5-4-7-1-8-6-4-5 6-7 3-3 8 1 8 4h3v-4l-5-5-4-5-3-2v-2l-4-2-5-11v-6l1-1h12l5 3 7 6 9 11 5 5v5l5 1 3-9 5-16 4-5 5-5zm-31 58 2 7 3 3 5-2 3-7-5-1zm32 4-4 3 1 7 6 1 1 7h5l1-4-5-5-2-9zm14 0-4 2 2 7 1 1h9l-1-5-3-5zm-22 10-1 5 3-1v-4zm52 1-7 3 1 5 1 1h5l5-5v-4zm-22 10-1 1-1 7-8 3 1 4 5 3 8-6 3-7v-5zm-41 12-2 1-3 6-3 3v3h6l5-3h7l-1-7zm28 16-2 3 1 4 3 3 6-1 3-4-1-4-1-1z" fill="#026819"/>
<path transform="translate(469,99)" d="m0 0h40l14 1v314l-4 1h-50z" fill="#00670E"/>
<path transform="translate(393,673)" d="m0 0h82l2 1v141l-3 5-2 1h-82l-4-1-1-18v-111l1-16z" fill="#006815"/>
<path transform="translate(387,191)" d="m0 0h58l1 1v223l-1-2h-2l-2-7-3 1-41 1v2l-9 1-1-1z" fill="#FD7E99"/>
<path transform="translate(1068,191)" d="m0 0 4 1 16 5 32 11 2 2v7l-24 72-11 32-2 9-12 37-6 17-3 11-5 9-1 8-4 2-8-4-24-6-19-6-2-2 1-5 4-7v-9l5-9 2-9 8-24 2-9 5-12 12-36 7-23 3-10 10-31 1-5 4-9z" fill="#FE9F07"/>
<path transform="translate(1129,125)" d="m0 0h41v289l-1 1h-37l-5-1v-280l1-8z" fill="#007BA5"/>
<path transform="translate(773,786)" d="m0 0h123l75 1 39 1 1 1v31l-1 1-313 1-6-1 1-31 2-3z" fill="#00BCA9"/>
<path transform="translate(867,271)" d="m0 0h21l15 6 9 6 8 7 8 11 4 9 3 12v16l-3 12-6 12-9 10-8 7-15 7-10 2h-15l-16-4-10-5v-2l-5-2-7-8-6-8-6-14-1-6v-22l5-13 3-6 7-9 11-9 12-6z" fill="#FEF0E7"/>
<path transform="translate(903,226)" d="m0 0h15l5 3 7 11 1 1 10 2 11 5v-2l4-3h5l2 2-1 5-4 5 5 10v19l-7 13-5-2-12-13-6-3-2 1v6l6 8 7 15 2 10 1 10-1 13-5 16-6 11-11 12-3 3h-2l4 8 10 18v6l-20-2-1 2-4-11-4-8h-7l-4 2h-9l-3 2h-11l-12-2-5-2-6 10-2 8h-14l-10-1 8-15 5-8v-5l-12-11-7-10-6-13-4-17v-12l4-16 5-12 7-11v-4h-5l-7 7-8 7-4 1-5-6-3-8v-16l5-10-5-6 1-4 1-2 4-1 6 5 5-2 6-3 11-3 6-10 2-2zm-69 7-3 4 1 4 7 6 5 5-5 5-13 12-1 5 5 2 10-6 14-7 11-3h20l14 3 22 12 5-1-1-5-10-10-7-6v-2l14-8 1-3-4-6-2-1zm33 38-14 4-12 7-10 9-6 8-6 15-1 3v24l6 16 6 9 4 5 7 6h2l1 3 12 5 13 3h15l12-3 16-8 12-12 6-10 4-12 1-5v-16l-4-15-6-11-10-11-8-6-11-5-8-3z" fill="#FC6CB0"/>
<path transform="translate(548,258)" d="m0 0h57v149l-1 7-2 1h-43l-9-1-2-1z" fill="#C81FBB"/>
<path transform="translate(288,530)" d="m0 0h77l1 1 1 12v251l-1 25-2 3h-74l-3-5v-250zm25 16-3 5-2 4-2 1v2l-6 1-2 3-1 64v129l1 40 2 2 7 3 4 8 2 1h27l5-4 3-5 7-4 1-10v-222l-2-5-8-4-2-7h-2l-1-2z" fill="#08D0FA"/>
<path transform="translate(615,258)" d="m0 0h54v146l-1 11h-52l-1-1z" fill="#C81FBB"/>
<path transform="translate(679,258)" d="m0 0h53l1 1v158l-2-2h-19l-33-1z" fill="#C81FBB"/>
<path transform="translate(1125,701)" d="m0 0h1v8l48-1 2-2 2 4 27 1v22l-1 2h-27v2h28l-1 23-1 1h-26l-1 2h-23l-1 22h-2v2h-24l-2 1-50-2v18h-1l-1-19 2-1 25 1v-23h-32v-2l6-1v-23h-6l1-2h5v-23h-6v-2h58z" fill="#FCC7B1"/>
<path transform="translate(542,707)" d="m0 0 4 1 9 6 8 8v3l2 1 3 6 1 4 5 4 2 8h41l1 5-12 47-3 17-2 4h-62l-2-2-7-29-9-36v-5l4-1h22v-4l-9-3-2-5v-5l-3-5 7-2 4-2 7 1-1-7-7-2-2-3z" fill="#682602"/>
<path transform="translate(306,125)" d="m0 0h68v289l-38 1h-30zm11 12-1 1v60l1-2h2l-1 46-2-4-1 55v98l1 11h49l2-6-1-134-1-91v-34z" fill="#6DEEFC"/>
<path transform="translate(306,603)" d="m0 0h44v142l-5 1h-41l-1-1v-133l1-8z" fill="#01CFFC"/>
<path transform="translate(1251,291)" d="m0 0h36l14 1v123l-2 2h-47l-2-1-1-21v-56l1-47z" fill="#FD7B9C"/>
<path transform="translate(1189,291)" d="m0 0h50l1 2v116l-2 6h-32l-16-1-2-2v-120z" fill="#F92517"/>
<path transform="translate(751,694)" d="m0 0h224l1 28h-225z" fill="#FC8ED1"/>
<path transform="translate(833,746)" d="m0 0h114l6 2v25l-2 1h-214l-1-1v-12l1-13 1-1z" fill="#FD67AD"/>
<path transform="translate(469,99)" d="m0 0h40v1h-33l1 68-1 222 5-3 9-11 5-5 4 1 7 8 2 4h2l5 5 1-289h7v314l-4 1h-50z" fill="#07E49E"/>
<path transform="translate(742,684)" d="m0 0h240l1 1v46l-1 1-31 1h-208l-1-6zm9 10v28h225l-1-28z" fill="#C81FBA"/>
<path transform="translate(559,618)" d="m0 0 4 2 1 6v7l-2 6-1 7-4 5-3 6 1 7 6 4 4 4v4l7 1-1-4 4 2 9 7 7 8 6 9-1 3-5 1-2-6v-2h-4l-2 4-1 3-1 7-3 2-5 1 1 4 4 2 7-5 3-7h4v6l-6 9-7 7-5-1-7-7-3-5-7-7-8-5-4-3-3 1-3-3 3-5 5-2 2-6 3-4h4l1 9 6 1 1 7 5-1-1-4-4-4-1-9-4 1-1-1v-8l-7 2-2 5-7 7h-4l1-5 1-4h-7l-5-1 4 8v3l5-1v2l2 1-3 6h-4l-12-16-8-7-8-4-12-3 4 6 12 5 9 7 5 7 2 5 5 5 8 16 1 3-4 4 1 6 2 2v5l-4-2-2-4-5-1-2-2-2-6-12-8-11-8-7-6 1-5 10-3 1-1h8l-3-5-5-4-7-1-8-6-4-5 6-7 3-3 8 1 8 4h3v-4l-5-5-4-5-3-2v-2l-4-2-5-11v-6l1-1h12l5 3 7 6 9 11 5 5v5l5 1 3-9 5-16 4-5 5-5zm15 62-4 2 2 7 1 1h9l-1-5-3-5zm-22 10-1 5 3-1v-4z" fill="#F2B71B"/>
<path transform="translate(1150,145)" d="m0 0 6 1 2 3v182l-1 2h-2v2h5l-2 2 3 2 1 16-3 3-1 9-3-1-5-12-3 1-2 8h-2l-2 8 5 10 2 5 3-1 3-7 5-3 1 10 2 1v15h-25l-1-2v-39l1-22 6-2 5-1-8-1v-183l4-4z" fill="#0077A5"/>
<path transform="translate(903,226)" d="m0 0h15l5 3 7 11 1 1 10 2 11 5v-2l4-3h5l2 2-1 5-4 5 5 10v19l-7 13-5-2-12-13-6-3-3-4-3-1-4-6-8-8-8-7 1-3 13-7 1-3-3-5-2-1h-83l-2 3 1 4 11 9 1 2-5 5-13 12-3 6h-2l-2 4-5 2-15 14-4-1-4-5-3-8v-16l5-10-5-6 1-4 1-2 4-1 6 5 5-2 6-3 11-3 6-10 2-2z" fill="#FC69B0"/>
<path transform="translate(1033,314)" d="m0 0 9 1 16 5 2 1v2l10 3v2l6-1 4 2-1 7-6 19-9 26-7 20-2 3h-6l-2-1v-2l-12-2v-2l-10-1-9-3-8-4 1-7 8-24 8-26 6-16z" fill="#FDAF09"/>
<path transform="translate(781,739)" d="m0 0h70l106 1 1 1v37l-3 1 2 1-1 4-17 1-202-1-2-3v-2l-4-3v-33l1-2 5-1zm52 7-95 1-1 1-1 13v12l1 1h214l2-1v-25l-6-2z" fill="#E3096B"/>
<path transform="translate(932,787)" d="m0 0h39l39 1 1 1v31l-1 1h-92l-41-1v-1l5-1 1-2 5-2 2-1 2-10v-2h-3l1-5 12-6 8-2z" fill="#00CFA0"/>
<path transform="translate(317,137)" d="m0 0h48v49l1 76 1 134-2 6h-49l-1-11v-103l2-1 1-7h1l1 90 1 3h-2l1 25h41l1-12v-25h-16v-1l14-1 1-94v-78h-41v-2h-2v-5h1v-10l-3-1v-31z" fill="#FCD0B4"/>
<path transform="translate(1289,682)" d="m0 0 3 3h3l13 50 12 47 6 22v13h-13v1h-84v-1l60-1v-2l-4-2-2-3v-117l3-7h2z" fill="#FCD7BD"/>
<path transform="translate(694,787)" d="m0 0h78l13 3 7 3 5 2 1 4-2 8h-2l4 7 4 3 3 3-33 1-56 1h-19l-6-1 1-31z" fill="#00CFA0"/>
<path transform="translate(1068,191)" d="m0 0 4 1 16 5 32 11 2 2v7l-18 54-1-4 1-8-2-1-1 5-3 1-28-9-11-4-4-2-1-13 2-11 4-13 1-5 4-9z" fill="#FDAE12"/>
<path transform="translate(393,673)" d="m0 0h82l2 1v141l-3 5-2 1h-82l-4-1-1-18v-111l1-16zm2 10-2 2-1 4v115l2 6 2 2h71l4-2 1-5-1-111-1-10-1-1z" fill="#006916"/>
<path transform="translate(548,258)" d="m0 0h57v149l-1 7-2 1h-43l-9-1-2-1zm9 10-1 1 1 61-1 69 1 4h41v-135z" fill="#F67FCD"/>
<path transform="translate(387,191)" d="m0 0h58l1 1v223l-1-2h-2l-2-7h-35l-4-2 34-1-1-14 1-2-5-1v-1h5v-83l1-7-2 1-3 16-4 15-3 13-5 18-1-2h-2v-2h-3v8l-3-3-1-10-2-6-2-10-3-10-4-18-3-9v-10l4-20 1-1 2-9 2-12h2l2-10 3-1-1 10-3 10-2 10-3 13h-2l-1 11v9l3 7 8 34 1 7h2l2 7 2-5 3-9 6-26 4-15v-13l-8-31-3-17 3-1 3 9 8 33 3 8 1 8 2-1v-8l-2-1h2l-2-10v-8l1-2h-2l-2-53-1-8-14 1h-25l-1 25h-1l-1-15v-11l4-3h41l6 2 1-8h-57z" fill="#FC809A"/>
<path transform="translate(679,258)" d="m0 0h53l1 1v158l-2-2h-19l-33-1zm7 10-1 1 1 25v63l-1 45 1 1h40l1-2v-132l-1-1z" fill="#F57DCC"/>
<path transform="translate(1251,291)" d="m0 0h36l14 1v123l-2 2h-47l-2-1-1-21v-56l1-47zm15 10-7 2-2 3v94l3 2h30l3-3 1-24-1-71-2-2-4-1z" fill="#E2086C"/>
<path transform="translate(615,258)" d="m0 0h54v146l-1 11h-52l-1-1zm19 10-12 1v134l2 1h39l1-1v-134l-8-1z" fill="#F57DCD"/>
<path transform="translate(1134,138)" d="m0 0h30l1 1-1 196-2 2-7-2v-2h2v-184l-1-2-6-1-8 3-1 2v181l-1 2 5-1 9 1v1l-16 3-1 22v40l1 1 21 1v1l-20 1-4 2v-2h-2l-1-14v-27l1-31 1-191 2-2z" fill="#FD7E97"/>
<path transform="translate(435,295)" d="m0 0h2l-1 90-2 1 2 1v16h-36l-4-4-1-26v-58l5 1 1 3h2l3 12 2 5 2 11 1 2 1 10 1 1 1-6h3v2l3-1 4-15 4-17 4-15 2-12z" fill="#FE6A84"/>
<path transform="translate(631,282)" d="m0 0h24v107l-1 1h-21l-3-2v-54z" fill="#C81FBB"/>
<path transform="translate(694,281)" d="m0 0h23l1 1v106l-1 1-23-1z" fill="#C81FBB"/>
<path transform="translate(566,281)" d="m0 0h22l1 1v107h-23l-1-5v-102z" fill="#C81FBB"/>
<path transform="translate(1045,668)" d="m0 0h245l1 3v6l-3 1-116 1h-59l-68-1z" fill="#FCAFA1"/>
<path transform="translate(1129,125)" d="m0 0h41l-1 4-14 2-15 1-5 1-2 4 1 12v183l-1 43v29h2v2h11l17-1h6l1 1v8l-1 1h-37l-5-1v-280l1-8z" fill="#0073A5"/>
<path transform="translate(415,218)" d="m0 0h2l1 7-2 3 2 1 3 7 5 25 6 22v13l-8 32-2 9-5 15-2-1-1-7h-2l-6-23-4-18-3-7v-9l2-11h2l1-11 2-5 3-14 3-9 1-14z" fill="#FE6E85"/>
<path transform="translate(1189,291)" d="m0 0h50l1 2v116l-2 6h-32l-16-1-2-2v-120zm21 9-16 1-1 2v98l5 2h35l1-9-1-93-1-1z" fill="#F56527"/>
<path transform="translate(493,626)" d="m0 0h12l4 2v2l-6 1 5 3 5 5 9 11 6 10 2 7 3 9h-5l4 8v3l5-1v2l2 1-3 6h-4l-12-16-8-7-8-4-12-3 4 6 12 5 9 7 5 7 2 5 5 5 8 16 1 3-4 4 1 6 2 2v5l-4-2-2-4-5-1-2-2-2-6-12-8-11-8-7-6 1-5 10-3 1-1h8l-3-5-5-4-7-1-8-6-4-5 6-7 3-3 8 1 8 4h3v-4l-5-5-4-5-3-2v-2l-4-2-5-11v-6z" fill="#F6B622"/>
<path transform="translate(400,201)" d="m0 0h34l2 8 2 48-1 2 2 1h-2v2h2v10l1 2v9l1 2v7l-3 1-1-1-1-8-3-8-9-38-2-3h-3l-2-6-3-1 3-3v-7h-2l-1 5-1 14-1-4-2 1-3 10h-2v8l-2 4v-6l-4 4-1 5-1 22-3 2 1-5-1-71 1-5z" fill="#FE6A84"/>
<path transform="translate(751,694)" d="m0 0h224v23h-1v-22l-216 1-3 5-1 10 2 7 5 1 2-4-1-2h45l140 1 3 1 1 4 7 1h18v2h-225z" fill="#FBAAA4"/>
<path transform="translate(666,741)" d="m0 0h16l4 5 3-4 3-1h14l5 2v30l-1 4-8 3h-10l-4-4-1-4h-2l-3 7-2 1h-13l-5-2-1-2v-32l1-2z" fill="#EB1587"/>
<path transform="translate(825,237)" d="m0 0 3 1 1 4 7 2 8 6 1 2-5 5-13 12-3 6h-2l-2 4-5 2-15 14-4-1-4-5-3-8v-16l5-10-5-6 1-4 1-2 4-1 6 5 5-2 6-3 11-3z" fill="#FC69B0"/>
<path transform="translate(1067,709)" d="m0 0h58v2h-24v24h24l-1 2-23-1v24l23 1v1h-24v23h25v-22h1v22h24v2h-24l-2 1-50-2v18h-1l-1-19 2-1 25 1v-23h-32v-2l6-1v-23h-6l1-2h5v-23h-6z" fill="#FCD6BA"/>
<path transform="translate(320,360)" d="m0 0h26l16 1 1 7v18l-1 12-1 1h-41l-1-1v-25-3-7z" fill="#6AEEFB"/>
<path transform="translate(742,727)" d="m0 0h1v6h216v7h-108l-22-1h-90v-3l-29 1-10 1-15-1-13 2-7-1-3-2-7-1v-1h87z" fill="#FC88CE"/>
<path transform="translate(562,276)" d="m0 0h30l2 1 1 3v112l-2 2h-31l-2-5v-91l1-21zm4 5-1 1v105l1 2h23v-107l-1-1z" fill="#FB85CE"/>
<path transform="translate(492,665)" d="m0 0h6l10 4 8 5 8 8 7 11 4 2 3-6-2-2h-4l1-2 5-1v2l5-2 7-8 3-3 5-1 1 9-3 2v-2l-5 2-4 8-6 4-1 4 4 1h3l6 5 6 4 8 8 3 5 5 5 5-1 12-12h3l-1 5-3 3-2 5-4 6-1 3 5-3 6-8 4-6 4-2 1 7-7 3-4 6v6l-6 2-3 5 34 1 2 1-1 9-7 26-7 27-1-4 6-26 7-27v-5l-41 1-3-9 5-5 1-4-1-1h-9-3l-5-9-6-5v-2l-4-2-6-4h-3l1 5-4 1-1 4-3-4-7-14-5-5v-2l-2-1-2-5-5-6-8-5-11-5-3-4z" fill="#0076A8"/>
<path transform="translate(690,276)" d="m0 0h33l1 4v107l-1 6-3 1h-26l-4-2-1-2v-31zm4 5v107l23 1 1-1v-106l-1-1z" fill="#FC89D1"/>
<path transform="translate(774,777)" d="m0 0h101l80 1 2 2-1 4-17 1-202-1-2-3v-3z" fill="#EB1688"/>
<path transform="translate(633,276)" d="m0 0h22l5 2v114l-3 3h-29l-2-2v-115zm-2 6-1 53v53l3 2h21l1-1v-107z" fill="#FB84C4"/>
<path transform="translate(687,262)" d="m0 0h46v155h-1l-1-10-2 1h-46l-2-1-1-5 1-8h2l1-8h1l1 16 40 1v-134l-15-2-27-1 1-2h2z" fill="#FC8CCF"/>
<path transform="translate(1033,314)" d="m0 0 9 1 16 5 2 1v2l10 3v2l6-1 4 2-1 7-6 19-9 26-7 20-2 3h-6l-2-1v-2l-12-2v-2l-10-1-9-3-8-4 1-7 8-24 8-26 6-16zm3 6-4 10-7 20-7 23-4 9 1 4h2v2l24 7 5 4 6-1 12-35 4-15 5-13-1-4-8-4-9-1-4-2-7-2-5-2z" fill="#F82F1A"/>
<path transform="translate(321,141)" d="m0 0h39l1 1v31l-35 1-6-1v-31z" fill="#65EEFD"/>
<path transform="translate(1251,291)" d="m0 0h36l14 1v52l-1 60-2 1-5-5v-25l-1-71-5-2h-21l-7 2-2 4-7-2v-14z" fill="#DF055B"/>
<path transform="translate(1062,225)" d="m0 0 5 1 36 12 6 3-1 5-4 10-3 7-3 1-28-9-11-4-4-2-1-11h2l4-12z" fill="#F6281F"/>
<path transform="translate(758,695)" d="m0 0h216l1 26h-17l-7-2-1-4-3-1h15l5 1v-14l-51-2-146 1-10 2v9l4 4-3 5-5-1-2-3-1-10 2-8z" fill="#FFF1E7"/>
<path transform="translate(339,233)" d="m0 0 3 1 9 20 7 13-1 4-7 16-6 13-3 5-2-1-13-29-4-7 5-9 10-22z" fill="#FDB909"/>
<path transform="translate(636,627)" d="m0 0 5 1 3 3-2 5-6 10-3 1v2l-4 4-5 6-4 4 3 1 13-6 5 1-2 5-15 6-8 6-12 16h-5l-8-10 1-3-5-2v-3h5l5 5 5 4 3-2 2-1 1-6h2l3-11 9-12 7-8 3-3h2v-9l-4 3h-2l-2 4-5 6h-2l-2 4-4 6h-2l-1 6h-2l-1 9-5 8-3-1v-6l1-4h-8l1-7-4-10-1-5-1-4 2 1 1-2h2l2 4v5l5 7 4-5 5-4 6-5 5-6 9-7z" fill="#FDB614"/>
<path transform="translate(951,732)" d="m0 0h18l2 4v51h-277l-2-2h76l35-1h139l14-1 1-3-4-1 5-1-1-38h2v-7h-8z" fill="#FC7EB5"/>
<path transform="translate(573,621)" d="m0 0 5 2 8 6 5 8-1 5h-2l2 6 3 10 1 2-1 5h7l1 3-1 2v6l3-1 4-9 2-8 2-4h2l2-5 4-5 5-5 4-5 4-3h2l1 7-1 2h-2l-1 3-5 4-10 13-2 3-3 9-6 11-4 1-2-4-5-2-2-4-5 1 1 2 5 1v3l-4-1-6-5-4-4-7-1v2h-2l1-4 10-4-1-4-3-9-5-11-1-4v-12z" fill="#FDA716"/>
<path transform="translate(974,788)" d="m0 0h36l1 1v31l-1 1h-28l-2-1v-4l-4-1-1 4-1-3z" fill="#01CFA4"/>
<path transform="translate(1101,736)" d="m0 0h23l1 1v48h-25v-23-2z" fill="#FEF5DC"/>
<path transform="translate(1206,711)" d="m0 0h50v17l-1 7h-24l-1-6-1 6h-23z" fill="#FEF5DC"/>
<path transform="translate(389,275)" d="m0 0 2 2 1 8 1 5 1 7 1 9 1 67 1 26 3 3 34 1v1l-28 1 32 1v1l-41 1v2l-9 1-1-1v-121l1-3v-10z" fill="#FC7E99"/>
<path transform="translate(548,258)" d="m0 0h57l-1 6-4-1h-48v124l-1 18 3 2h48l2-1v8l-2 1h-43l-9-1-2-1z" fill="#F86DBB"/>
<path transform="translate(1025,320)" d="m0 0h1v7l-3 14-7 24-6 17-1 7 7 3 9 3 10 2v2h7l5 2v2h8l5-13 20-60 4-1 1-7h1v6l-12 35-7 21-3 11-5 9-1 8-4 2-8-4-24-6-19-6-2-2 1-5 4-7v-9l5-9 2-9 8-24 2-9z" fill="#FCB01E"/>
<path transform="translate(1268,316)" d="m0 0h14l1 1v70l-10 1-5-1z" fill="#DE0459"/>
<path transform="translate(1052,330)" d="m0 0 3 3 3 16v14l-1 3h-2l-2 5-10 10-5 6-5-1-2-8-2-20-1-3 9-11 13-13z" fill="#DF054F"/>
<path transform="translate(733,742)" d="m0 0h3v2l2 1-1 16v12h217v-16l3 1v19l-1 1h-223l-2-2v-33z" fill="#DE0359"/>
<path transform="translate(395,683)" d="m0 0h74l1 1 1 11-1 2-1 15-2-4v-22h-29l3 3v2l4 1 12 6-2 4-16 8-5 3-7-1-20-11 1-4 15-8 3-3h-25l-3 1-3 3-2-5z" fill="#FCF6F7"/>
<path transform="translate(430,779)" d="m0 0 5 1 15 9 6 3 1 3-17 9-3 1-1 3h30l2-3h2v5l-4 2h-71l-1-3 1-2 3 1 30 1-5-5-16-9v-3l20-11z" fill="#FCF6F7"/>
<path transform="translate(1135,144)" d="m0 0 2 1v2l3 1 1 184-1 2 5-1 9 1v1l-11 2-7-1-1-1z" fill="#FE9920"/>
<path transform="translate(1069,202)" d="m0 0h6l3 2 10 3 27 9 1 1-1 7-4 11-5-1-10-4-15-4-9-3-9-4 1-7z" fill="#F72C1C"/>
<path transform="translate(493,626)" d="m0 0h12l4 2v2l-6 1 5 3 5 5 9 11 6 10 2 7 3 9h-5l4 8v3l5-1v2l2 1-3 6h-4l-12-16-8-7-2-2v-2l5-1-2-7-5-5-4-5-3-2v-2l-4-2-5-11v-6z" fill="#FAB719"/>
<path transform="translate(410,233)" d="m0 0h2l-1 10-3 10-2 10-3 13h-2l-1 11v9l3 7 8 34 1 7h2l2 7 2-5 3-9 6-26 4-15v-13l-8-31-3-17 3-1 3 9 8 33 2 7v12l-2 6-2 11-4 15-3 13-5 18-1-2h-2v-2h-3v8l-3-3-1-10-2-6-2-10-3-10-4-18-3-9v-10l4-20 1-1 2-9 2-12h2l2-10z" fill="#96ECF5"/>
<path transform="translate(363,263)" d="m0 0 2 3v136h-49l-1-11v-103l2-1 1-7h1l1 90 1 3h-2l1 25h41l1-12v-25h-16v-1h16v-63z" fill="#FE9F30"/>
<path transform="translate(1207,317)" d="m0 0h13v69h-13l-1-3 1-9z" fill="#F76122"/>
<path transform="translate(615,258)" d="m0 0h54l-2 18v6l1 1v118l-4 1-1-28v-91l1-14 1-4-2-2-45 1-2 3-1-1z" fill="#F777C5"/>
<path transform="translate(1036,320)" d="m0 0 6 1 3 2 9 2-2 4-9 10-7 7-7 9 2 9 1 14v10l-1 3-8-1-6-2v-2l-3-1 1-5 6-16 6-20 6-16z" fill="#FDB209"/>
<path transform="translate(694,787)" d="m0 0h38v1h-15l1 2v20l-2 2h-6v4l-2 1 2 2h-3v2h-16l1-31z" fill="#00BCA9"/>
<path transform="translate(552,681)" d="m0 0h4l1 9 6 1 1 7 5-1 2-3 4 14 2 3-4 1 1 4 4 2 7-5 3-7h4v6l-6 9-7 7-5-1-7-7-3-5-7-7-8-5-4-3-3 1-3-3 3-5 5-2 2-6zm0 9-1 5 3-1v-4z" fill="#FDB620"/>
<path transform="translate(393,673)" d="m0 0h82l2 1v141h-1l-1-31v-45l1-64-87 1-1 54v86l4 3h81l1-2v3l-2 1h-82l-4-1-1-18v-111l1-16z" fill="#0A91AB"/>
<path transform="translate(1163,204)" d="m0 0h1v131l-2 2-7-2v-2h2l1-122h2v-6z" fill="#FD7E98"/>
<path transform="translate(305,773)" d="m0 0h45l1 4-4 7-4 4-3 5-4 1h-22l-4-8-6-3-1-2v-6z" fill="#02CFF8"/>
<path transform="translate(332,558)" d="m0 0 5 1 3 2v2h2l7 8 2 7-1 1-46 1-1-1 1-8 5-5h2l2-4 3-3z" fill="#02CEF9"/>
<path transform="translate(1287,316)" d="m0 0h3l-1 38h2l1-38h1l1 68-1 7-3-1-2 7-1 1h-23l-3-2v-6l5 1h20l-1-6-2 1v-69h1l1 28 1-23z" fill="#FD67AD"/>
<path transform="translate(393,687)" d="m0 0 3 2 2-2v121l-3-1v2h-2l-1-5v-115z" fill="#0073A4"/>
<path transform="translate(1177,711)" d="m0 0h28v22l-1 2h-27z" fill="#FFF6DD"/>
<path transform="translate(494,393)" d="m0 0h7l11 2-1 2 2 1-2 7-2 2 1 2-7 1-1 3 17 1v1h-50v-1l10-1-3-6-1-4-1-3 3-3 7-2z" fill="#00CEA0"/>
<path transform="translate(551,265)" d="m0 0h1l1 22 2-16h1l1 8 1 36v21l-1 59h-1v-6l-3 1-1 15-2-1 1-17z" fill="#F679C8"/>
<path transform="translate(593,277)" d="m0 0 2 3v112h-3l1-2h-2l-2-2v-107h2z" fill="#FA81CB"/>
<path transform="translate(1177,737)" d="m0 0h28l-1 23-1 1h-24l-2-1z" fill="#FFF6DD"/>
<path transform="translate(559,618)" d="m0 0 4 2 1 6h-3l-8 6-7 12-2 4-3 9-2 16-1 3-5 1-4-11-4-10-12-16-5-4-6-6 8-1 7 6 9 11 5 5v5l5 1 3-9 5-16 4-5 5-5z" fill="#FDB718"/>
<path transform="translate(730,267)" d="m0 0 2 4v129l-5-1v-130h2z" fill="#F67BCA"/>
<path transform="translate(320,173)" d="m0 0h41l1 2v90h-1v-78h-41v-2h-2v-5h1z" fill="#FEF6E1"/>
<path transform="translate(339,233)" d="m0 0 3 1 9 20 7 13-1 4-7 16-6 13-3 5-2-1-13-29 1-2 1 3h2v2l4 1 2 5 1 3 6-1 5-2 1-7 2-5-3-9-6-12-2-1-6 5h-2l-1 3h-2l-1 3-1-2 10-22z" fill="#FEA00A"/>
<path transform="translate(1065,231)" d="m0 0 6 1 11 5 7 2 11 4 1 1-1 7-3 6-6-1-3-1h-9v-3l-11-3-7-4-1-5z" fill="#FDB109"/>
<path transform="translate(903,226)" d="m0 0h15l5 3-2 1h-4v3l-83 1-2 3 1 4 1 2-5-1-4-5 3-7 3-3z" fill="#FCA9A9"/>
<path transform="translate(1075,736)" d="m0 0h24v25h-25z" fill="#FFF6DD"/>
<path transform="translate(1127,711)" d="m0 0h25v18l-1 6h-24l-1-2z" fill="#FEF5DC"/>
<path transform="translate(1127,736)" d="m0 0h22l2 1v23l-1 1h-23z" fill="#FFF6DD"/>
<path transform="translate(1231,737)" d="m0 0h24v24h-24z" fill="#FFF6DD"/>
<path transform="translate(1101,711)" d="m0 0h24v24h-24z" fill="#FFF6DD"/>
<path transform="translate(1075,711)" d="m0 0h24v24h-24z" fill="#FFF6DD"/>
<path transform="translate(1126,762)" d="m0 0h24l1 1v21l-1 1h-24z" fill="#FEF5DC"/>
<path transform="translate(974,788)" d="m0 0h34v1h-16l1 9v13l-1 4h-4l1 3 4 3h-11l-2-1v-4l-4-1-1 4-1-3z" fill="#00BCA8"/>
<path transform="translate(1206,711)" d="m0 0h24l1 2-1 16-1 6h-23z" fill="#FFF6DD"/>
<path transform="translate(308,753)" d="m0 0h42v12l-3 1h-42l-2-3 1-9z" fill="#01CDF4"/>
<path transform="translate(723,280)" d="m0 0h1v107l-1 6-3-1 1-2h-2l-1-3v-86l3 1v-3h2l-1-7z" fill="#F57ECD"/>
<path transform="translate(1266,301)" d="m0 0h21l5 2 1 1-1 43-1 7h-2v-35l1-3h-3l-1 31-2-2v-28l-16-1v21l-2 3-1 11h-1l-1-37 5-2h16l6 2-3-7-2-1h-20l-5 5-2 1v-8l2-2z" fill="#FB87CE"/>
<path transform="translate(1206,737)" d="m0 0h23v24h-23z" fill="#FFF6DD"/>
<path transform="translate(1153,711)" d="m0 0h22l1 1v10l-1 13h-22z" fill="#FEF5DC"/>
<path transform="translate(1153,737)" d="m0 0h22v22l-1 2h-21z" fill="#FFF6DD"/>
<path transform="translate(320,360)" d="m0 0h26l16 1v11l-11 1v1h-29l-3-4v-7z" fill="#DCF1E4"/>
<path transform="translate(781,739)" d="m0 0h70v1l-56 1-4 3 42 2v1h-95l-2-5-4 1v-2l5-1z" fill="#EB1587"/>
<path transform="translate(834,740)" d="m0 0h65l51 1v1l-14 1-11 2h-103l-4-2 5-1v-1z" fill="#DD0253"/>
<path transform="translate(916,388)" d="m0 0 6 2 11 20v6l-20-2-1 2-4-11-4-8-6-1 3-2 9-4z" fill="#FBB2A5"/>
<path transform="translate(470,695)" d="m0 0h1l1 110-1 5h-1v-5l-4 3v-96l2-4 1-11z" fill="#0D8FA5"/>
<path transform="translate(1154,337)" d="m0 0 6 1 1 1 1 16-3 3-1 9-3-1-5-12-3 1-2 8h-2v2l-5-1v-21l1-5z" fill="#006AA8"/>
<path transform="translate(1130,375)" d="m0 0h1l1 14 1 1v14h2v2h11l17-1h6l1 1v8l-1 1h-37l-5-1 1-37h2z" fill="#0269A8"/>
<path transform="translate(306,585)" d="m0 0h43l1 4v6l-4 2h-41l-2-2v-8z" fill="#03CDF3"/>
<path transform="translate(1158,375)" d="m0 0 2 4v6l2 1v15h-25l-1-2 1-19 1-2 5-1 3 4 2 5 3-1 3-7z" fill="#0068A8"/>
<path transform="translate(668,262)" d="m0 0h1v142l-1 4-2 1h-47l-2-1v-15h2l1-22h1l1 31 2 1h39l2-2h3l-1-118-1-1 1-14z" fill="#FC90CE"/>
<path transform="translate(835,387)" d="m0 0 9 4 8 5-2 5-4 8-1 6h-14l-10-1 8-15 5-8z" fill="#FCB2A5"/>
<path transform="translate(642,662)" d="m0 0 7 4-1 4-9 7-12 5-6 4v3h9l-1 3-10 3v2l-8 7-11 12-2-1v-6l6-8 3-1 1-3 2-2 3-8h2l2-5 3-1v-2l10-6 9-4h2l-1-6z" fill="#FEB615"/>
<path transform="translate(1076,328)" d="m0 0 4 1-1 7-6 19-9 26-7 20-2 3h-6l-2-2 4-1 1-2-2-1h2l2-9 10-30 5-16 4-11h3z" fill="#F93119"/>
<path transform="translate(632,631)" d="m0 0h2l1 7-1 2h-2l-1 3-5 4-10 13-2 3-3 9-6 11-4 1-2-4-5-2-4-6-1-4 7-2 4-1 1 3-1 2v6l3-1 4-9 2-8 2-4h2l2-5 4-5 5-5 4-5z" fill="#007AA7"/>
<path transform="translate(542,707)" d="m0 0 4 1 9 6 8 8v3l2 1 3 6 1 4 5 4 1 8h-5l-7-9-5-4-16-8-2-3 4-2 7 1-1-7-7-2-2-3z" fill="#FEB310"/>
<path transform="translate(823,345)" d="m0 0 4 1 5 6 2 5 5 8 2 1v2l4 2 9 6 9 4 11 3 4 3h-18l-11-4-6-3v-2l-5-2-7-8-6-8-3-6v-7z" fill="#FDFBF9"/>
<path transform="translate(1030,305)" d="m0 0 9 1 15 5 21 9 3 3 1 5h-9v-2l-10-3v-2l-12-3-9-3h-6l-5 11-3 8-1-3 3-17z" fill="#FDB00C"/>
<path transform="translate(627,277)" d="m0 0 2 1v5h1l1 52v28l-1 20-2 4-1 6h-1v-115z" fill="#FC84CC"/>
<path transform="translate(550,378)" d="m0 0h1v27l3 2h48l2-1v8l-2 1h-43l-9-1-2-1 1-31z" fill="#CB1EB6"/>
<path transform="translate(954,757)" d="m0 0 3 1v19l-1 1h-81l-16-1 1-3 94-1z" fill="#DF035F"/>
<path transform="translate(876,305)" d="m0 0 4 1v14l3 6v7l-3 2-10 1-11 5-23 10h-5l1-4 10-5 26-11 6-9 1-16z" fill="#FC8A9E"/>
<path transform="translate(630,690)" d="m0 0h7l4 2-1 5-8 8-12 4-10 5h-2l-1 2-2-2 1-5 9-10 4-2v-2z" fill="#006FA5"/>
<path transform="translate(500,630)" d="m0 0 5 2 8 7 9 11 6 10 2 7 3 9h-5l-1 2-4-6v-2l-3-1v-7l-10-14-3-3v-2l-4-2-4-5v-5z" fill="#0079A7"/>
<path transform="translate(1250,294)" d="m0 0h47v8l-3 2-7-2h-21l-7 2-2 4-7-2z" fill="#DD0252"/>
<path transform="translate(387,192)" d="m0 0h57v8l-2 1-5-2h-42l-4 2v2l-3-1z" fill="#FE6982"/>
<path transform="translate(602,717)" d="m0 0 2 4v3l-7 3-4 6v6l-6 2-3 5 34 1 2 1-1 9-7 26-7 27-1-4 6-26 7-27v-5l-41 1-3-9 5-5 3-1 2-4 3-1-2 7 5-3 6-8 4-6z" fill="#00691A"/>
<path transform="translate(317,137)" d="m0 0h48v34h-1l-2-11v-19l-41 1-1 31-1-3-3-1v-31z" fill="#FDAB0F"/>
<path transform="translate(389,331)" d="m0 0 2 1 2 52 1 21 44 1v1l-41 1v2l-9 1-1-5 1-24v-50z" fill="#FE6884"/>
<path transform="translate(554,262)" d="m0 0h46l1 3v15l-2 3v-15l-42 1-1 2-2 16-1 6h-1v-30z" fill="#FA83C3"/>
<path transform="translate(1072,209)" d="m0 0h7l15 5 11 3v2l4 1-1 7-5 1-23-7-10-4v-6z" fill="#FDAD0A"/>
<path transform="translate(636,658)" d="m0 0 5 1-2 5-15 6-8 6-12 16h-5l-8-10 1-3-5-2v-3h5l5 5 5 4 3-2 2-1 1-6h2l1-4 6-1 1-4 9-3z" fill="#FBB20B"/>
<path transform="translate(496,693)" d="m0 0h4l2 6 15 9 16 17 4 6v5l-4-2-2-4-5-1-2-2-2-6-12-8-11-8-7-6 1-5z" fill="#F7B92C"/>
<path transform="translate(562,624)" d="m0 0h1v7h-2v2l-5 5-5 11-2 7-4 3v6l4 5v3l-6 4h-3l-2-1 2-19 3-9 2-4 7-12 5-4z" fill="#028AA6"/>
<path transform="translate(1112,816)" d="m0 0 96 1v1l-69 1v1h-94v-3z" fill="#FDFCFC"/>
<path transform="translate(679,405)" d="m0 0 4 2h46l3-1v8l-1 1h-19l-33-1z" fill="#C91EB8"/>
<path transform="translate(492,665)" d="m0 0h6l10 4 8 5 8 8 7 11 3 5v6l-3 1-3-5-5-5v-2l-2-1-2-5-5-6-8-5-11-5-3-4z" fill="#0076A3"/>
<path transform="translate(318,280)" d="m0 0h1l1 90 1 3h-2v18h-1l-1-8h-1l-1-24v-71l2-1z" fill="#FE9D17"/>
<path transform="translate(896,275)" d="m0 0 5 1 10 6 9 8 8 11 3 6v7h-2l-1 2-8-13-12-14-11-8-2-3z" fill="#FDFBF9"/>
<path transform="translate(1149,353)" d="m0 0 3 3 3 8v2l2 1 1 5-1 3h-2l-1 6-3 5-3 1-8-16 2-6 3-7 2-4z" fill="#FDB411"/>
<path transform="translate(669,747)" d="m0 0h8l3 1v25l-2 1h-9l-2-2v-22z" fill="#FD67AD"/>
<path transform="translate(312,793)" d="m0 0h32l-1 4-5 6-7 3-9 1-5-3-4-4z" fill="#EE894A"/>
<path transform="translate(615,407)" d="m0 0 4 1h49v7h-52l-1-1z" fill="#C91EB8"/>
<path transform="translate(1162,354)" d="m0 0h2v37l-1 9h3l-2 6-23 1-5-1 3-3-1-2h24l-1-13 1-2-3-1v-6l-1-3-3 2 1-5 1-4-1-2h2l-1-4 2-7z" fill="#077EA4"/>
<path transform="translate(552,388)" d="m0 0 4 1 1 14h41l1-4 3 1v8h-48l-3-3z" fill="#FC92CF"/>
<path transform="translate(1085,322)" d="m0 0h1v6l-12 35-7 21-3 11-5 9-2 1 1-10 9-25 4-13 9-27 4-1z" fill="#FEAB17"/>
<path transform="translate(694,747)" d="m0 0h9l2 1v25l-1 1h-10l-1-1v-25z" fill="#FC69AF"/>
<path transform="translate(539,725)" d="m0 0 20 10 8 7 3 5v2l-8-1-5-5-15-7 1 4 4 4-9-3-2-5v-5l-3-5z" fill="#0075A9"/>
<path transform="translate(555,672)" d="m0 0h3l1 9-3 2v-2l-5 2-4 8-6 4-1 4 2 6h-2l-2 8v5l-3-4-4-9 3-1-1-8 4-4v-4l-5-1 1-2 5-1v2l5-2 7-8 3-3z" fill="#006717"/>
<path transform="translate(555,703)" d="m0 0h11l2 5 4 8v2l4 2h4l6-9 2-5h4v6l-6 9-7 7-5-1-7-7-3-5-8-8z" fill="#FDB50F"/>
<path transform="translate(1129,125)" d="m0 0h41l-1 4-14 2-15 1-5 1-2 4-1 7-2 1-2 3v-22z" fill="#0069A9"/>
<path transform="translate(640,660)" d="m0 0h2l-1 4 1 3-4 4-12 5-4 3h-2v2l-4 4-1 2h-2l-2 9-9 8-3-3v-1l6-2 3-3 1-4h-5l6-8 7-9 9-6 10-4h3z" fill="#0079A7"/>
<path transform="translate(636,627)" d="m0 0 5 1 3 3-2 5-6 10-3 1v2l-4 4-5 6-4 4 1 2-3 1-1 3-5 1 1-7 9-12 7-8 3-3h2v-10l-1-2z" fill="#F8B42C"/>
<path transform="translate(653,262)" d="m0 0h10l3 3v5l-10-1h-35v8l-3 1v-15z" fill="#FC86CD"/>
<path transform="translate(751,694)" d="m0 0h224v23h-1v-22l-216 1-3 5-2 15h-1z" fill="#FC8FCF"/>
<path transform="translate(500,693)" d="m0 0 6 1 10 5 7 6 9 11 5 4-5 5-9-9-6-7-16-10z" fill="#007A9B"/>
<path transform="translate(559,618)" d="m0 0 4 2 1 6h-3l-8 6-7 12-2 4-3 9v3l-5-1 3-11 5-16 4-5 5-5z" fill="#FCBA22"/>
<path transform="translate(690,276)" d="m0 0h33v23h-2v3l-3-1-1-19-24-1v5h-2z" fill="#FC91CC"/>
<path transform="translate(615,258)" d="m0 0h54l-1 5h-15l-35 1-2 3-1-1z" fill="#C81FBB"/>
<path transform="translate(519,660)" d="m0 0 2 2v7l4 4 2 5h2l3 6v3l5-1v2l2 1-3 6h-4l-12-16-8-7-2-2v-2l6-2z" fill="#F9AC12"/>
<path transform="translate(549,258)" d="m0 0h56l-1 6-4-1h-48l-1 10-2 1z" fill="#C81FBB"/>
<path transform="translate(572,630)" d="m0 0h7l7 8 4 8 1 4 3 10-3 6h-2l-11-26-4-5v-3h-2z" fill="#007E94"/>
<path transform="translate(855,268)" d="m0 0h29l6 1v1l-27 1-9 3h-3v3l-11 7-8 7-6 8-2 1 2-7 6-8 2-4 6-3 8-8z" fill="#FE708A"/>
<path transform="translate(415,206)" d="m0 0 3 1 3 10 2 5 2 12 1 9h-1l-2-7-4-1-2-6-3-1 3-3v-7h-2l-1 5-1 14-1-4-2 1-3 10-1-4 3-14 2-9 3-10z" fill="#FCAFA1"/>
<path transform="translate(1047,694)" d="m0 0 2 1v61l-2 2v-3h-2v-59h2z" fill="#FDD8BC"/>
<path transform="translate(687,262)" d="m0 0h46v10l-3-3-2 3v-3l-17-2-27-1 1-2h2z" fill="#FC8CD2"/>
<path transform="translate(408,320)" d="m0 0 4 2 1 4h6 4l-1 11-5 15-2-1-1-7h-2l-4-16z" fill="#F76930"/>
<path transform="translate(1133,341)" d="m0 0h2l1 14 1 28v17l1 1 21 1v1l-20 1-4 2v-2h-2l-1-14v-27z" fill="#FE9632"/>
<path transform="translate(1034,315)" d="m0 0h8l16 5 2 1v2l10 3v2l6-1 1 5-3 1-10-5-9-1-4-2-7-2-5-2-6 1z" fill="#EA1746"/>
<path transform="translate(320,360)" d="m0 0h26l10 1v4 4l-2 2h-3l-3-3v3l-3-1-1-3-3 3-5-1-2 1-4-1-1-6-1-2h-8z" fill="#FDF9ED"/>
<path transform="translate(396,721)" d="m0 0h1v86h-2l-1 2v-26h1v-10l-1-1v-48z" fill="#00D0A0"/>
<path transform="translate(1325,809)" d="m0 0h2v12l-95-1v-1l9-1 68-1v-1h16z" fill="#FDFCFB"/>
<path transform="translate(795,740)" d="m0 0h39v1l-6 1v1l-6 1 46 1v1h-58l-19-1-2-2z" fill="#E1036C"/>
<path transform="translate(504,690)" d="m0 0 5 1 10 6h6l5 4 8 18-4-1-5-4-9-11-5-4-13-5-1-2z" fill="#FCB309"/>
<path transform="translate(930,352)" d="m0 0h2v11l-4 8h-2l-2 4-6 3-6 2-14 7-4-2 16-8 8-7 7-8z" fill="#FE7088"/>
<path transform="translate(422,234)" d="m0 0 3 4 9 38 2 7v12h-1l-1-9-1 7h-1l-2-13-7-28-3-17z" fill="#F9FBF9"/>
<path transform="translate(315,370)" d="m0 0h1l1 12h1l2 16h41l1-3h2l1 7h-49l-1-11z" fill="#F4792C"/>
<path transform="translate(1069,222)" d="m0 0 11 2 9 3 11 4 7 3-2 3-4 1-34-11-5-1-2-1 5-2z" fill="#FDA108"/>
<path transform="translate(1256,712)" d="m0 0h1v23h9v2h-9v23l9 1v1h-9l-1 12h-1v-12h-24v-1h24v-24h-25l-1-1 1-23h1v22h24z" fill="#FDD8BC"/>
<path transform="translate(1159,151)" d="m0 0 4 3v50l-1 5-3 2z" fill="#FFA003"/>
<path transform="translate(1282,317)" d="m0 0h1v70h-1l-2-14-1-20 1-2-2-1v-9l1-1-1-14 3-7z" fill="#E40975"/>
<path transform="translate(570,688)" d="m0 0 1 2 12-1 5 6h-3l-2 4-1 3-1 7-4 2-3-3-4-14-2-5z" fill="#FEB707"/>
<path transform="translate(679,258)" d="m0 0h53l1 4-53 1z" fill="#C81FBB"/>
<path transform="translate(655,734)" d="m0 0h71l10 1v1l-26 1-10 1-15-1-13 2-7-1-3-2-7-1z" fill="#F885D1"/>
<path transform="translate(433,284)" d="m0 0 2 2v10l-3 16-4 15-3 13-3 9-3-1 5-25 8-30z" fill="#7EF0FD"/>
<path transform="translate(689,359)" d="m0 0h1l1 24 2 1 1 3 23 1 2-1v3h2l-1 4h-26l-4-2-1-2z" fill="#FC85AE"/>
<path transform="translate(626,689)" d="m0 0h4l-1 3-10 3v2l-8 7-11 12-2-1v-6l6-8 3-1 1-3 6-5z" fill="#FEB507"/>
<path transform="translate(574,669)" d="m0 0 7 2 6 7 5 4 7 9 2 2-4 1 1 5h-2l-4-6-8-10-11-9-2-2z" fill="#026C27"/>
<path transform="translate(1265,305)" d="m0 0h20l4 3 1 6-6-1h-24l1-5z" fill="#EC1887"/>
<path transform="translate(1072,203)" d="m0 0 6 1 10 3 20 7 3 5-3 1-3-1v-2l-7-1-17-5-6-2h-6l2-5z" fill="#EA1484"/>
<path transform="translate(1099,763)" d="m0 0h1v22h25v-22h1v22h24v2h-24l-2 1-50-2v18h-1l-1-19 2-1 25 1z" fill="#FDD7BB"/>
<path transform="translate(658,381)" d="m0 0h1v10l-2 4h-29l-1-1v-7l2-4h1l1 5 2 1h23z" fill="#FCACA5"/>
<path transform="translate(1012,385)" d="m0 0 5 1v2l6 1 18 5 5 4 6 1-1 3-6-1-10-2v-2l-10-1-9-3-1-2-4-2z" fill="#E2065F"/>
<path transform="translate(656,336)" d="m0 0h1l1 8 1 1 1 9v38l-2 2v-5h-3v-14l1-25z" fill="#FB8EC9"/>
<path transform="translate(1163,343)" d="m0 0h2l1 2 2 35v18l-2 4v-2h-3z" fill="#FD7E9A"/>
<path transform="translate(440,405)" d="m0 0 2 1v5l-4 1h-19l-10-1-5-1-11 1 4-1-1-3 42-1z" fill="#F76122"/>
<path transform="translate(1115,228)" d="m0 0h2l-2 9-11 34-1-4 1-8v-4l5-14-6-2-1-2 2-2h7l1-6z" fill="#FDA90A"/>
<path transform="translate(1262,295)" d="m0 0h35v7l-3 2-7-2-21-3z" fill="#F92418"/>
<path transform="translate(631,690)" d="m0 0 9 1 1 4-7 8-5 3-9 3-9 4 2-4 7-6 11-6 3-5z" fill="#ECBA2E"/>
<path transform="translate(394,702)" d="m0 0h2l1 13-1 10h-1v47l1 1v12h-1l-1 24h-1v-104z" fill="#FD7E9A"/>
<path transform="translate(936,742)" d="m0 0h14v2l2 1v2h-42l-42-1v-1l57-1z" fill="#E40976"/>
<path transform="translate(315,194)" d="m0 0 4 2v66h-1l-1-20-2-14z" fill="#FCA29F"/>
<path transform="translate(395,198)" d="m0 0h42l2 4h-44l-1 25h-1l-1-15v-11z" fill="#FCB0A1"/>
<path transform="translate(1178,709)" d="m0 0h84l2 2-8 1h-26l-53-1z" fill="#FCD5BA"/>
<path transform="translate(1261,390)" d="m0 0 5 1h17l5-1 1 4-2 4h-23l-3-2z" fill="#E2066C"/>
<path transform="translate(907,373)" d="m0 0h4l-1 5-16 8h-13l2-4 14-5z" fill="#FDFAF7"/>
<path transform="translate(1260,314)" d="m0 0 2 1-1 73-2 6h-1l1-79z" fill="#FC8CD3"/>
<path transform="translate(733,742)" d="m0 0h3v2l2 1-2 24h-4v7h-1v-33z" fill="#E40873"/>
<path transform="translate(668,262)" d="m0 0h1v139h-1l-1-118-1-1 1-14z" fill="#FC8CD3"/>
<path transform="translate(708,761)" d="m0 0h2v16l-8 3h-10l-4-4v-3h16l2-1 1-10z" fill="#E2076D"/>
<path transform="translate(406,733)" d="m0 0h52v3h-52z" fill="#FB8EA7"/>
<path transform="translate(1085,322)" d="m0 0h1v6l-12 35-2 6-1-3-1-6 10-30 4-1z" fill="#FDB026"/>
<path transform="translate(573,621)" d="m0 0 5 2 8 6 5 8-1 5-4-2-4-6-3-3-7-1-1 4v-10z" fill="#FDB732"/>
<path transform="translate(1266,301)" d="m0 0h21l3 2 2 3v5l-7-5h-20l-5 5-2 1v-8l2-2z" fill="#FC9BCA"/>
<path transform="translate(1267,337)" d="m0 0h1v49h-2l-1-2-1-21v-12l1-11z" fill="#FD68AD"/>
<path transform="translate(520,747)" d="m0 0h20v1l-18 1 1 9 10 40 4 17-1 3-3-9-13-51-2-9z" fill="#DD6FB1"/>
<path transform="translate(320,140)" d="m0 0h40v1l-39 1-1 31-1-3-3-1v-26l3 1z" fill="#FBBFA7"/>
<path transform="translate(440,683)" d="m0 0h29l1 1 1 11-1 2-1 15-2-4v-22h-29-3l1-2z" fill="#FDE3E0"/>
<path transform="translate(570,694)" d="m0 0 2 4 3 10 2 3-4 1 1 4 4 2 4-3 2 1-4 5-5-1-4-4-4-8-2-5-1-5 5-1z" fill="#027FA1"/>
<path transform="translate(1290,390)" d="m0 0 3 1v8l-3 3h-26v-4l23-1z" fill="#FC91A1"/>
<path transform="translate(1251,291)" d="m0 0h36l14 1v9h-1v-7h-50z" fill="#D338BE"/>
<path transform="translate(736,779)" d="m0 0h18l5 2 25 2v1h-47l-2-3z" fill="#C81FBB"/>
<path transform="translate(397,315)" d="m0 0 4 2 1 2 2 12 2 4v9l-5-1-2-8-2-5z" fill="#EC8651"/>
<path transform="translate(1059,252)" d="m0 0 7 1 26 8v2h-12l-14-4-6-3z" fill="#FDB608"/>
<path transform="translate(500,630)" d="m0 0 5 2 8 7 3 3v2h-2l1 4h-4l-4-3v-2l-4-2-4-5v-5z" fill="#0086A4"/>
<path transform="translate(564,727)" d="m0 0 2 1 2 4 1 4 5 4 1 8h-5l-7-9-5-5 3-1v-3z" fill="#FBB21A"/>
<path transform="translate(577,677)" d="m0 0 6 4 8 9 6 9-1 3-5 1-4-9-6-7-4-8z" fill="#FEB40A"/>
<path transform="translate(538,691)" d="m0 0h5l-2 4-1 4 2 6h-2l-2 8v5l-3-4-4-9 3-1-1-8z" fill="#056413"/>
<path transform="translate(409,332)" d="m0 0h1l2 8v4h2l2 7 2-5 2-8h1v7l-1 3 2 1-2 9-1-2h-2v-2h-3v8l-3-3-1-10-2-8z" fill="#FCB1A6"/>
<path transform="translate(494,659)" d="m0 0 8 1 8 4h3l2-3 1 7-5 1-3 1-10-4h-7l-2-2z" fill="#F7B729"/>
<path transform="translate(1205,737)" d="m0 0h1v24h23v1l-22 1-1 22-3-1 1-22h-27v-2h26z" fill="#FDD8BC"/>
<path transform="translate(589,747)" d="m0 0h29l2 1-1 9-7 26-7 27-1-4 6-26 7-27v-5h-28z" fill="#E074B7"/>
<path transform="translate(468,757)" d="m0 0h1l2 42v11h-1v-5l-4 3 1-44z" fill="#00CDA0"/>
<path transform="translate(424,340)" d="m0 0 1 4-4 19h-2l-1 10-3 1-2-2-1-12h1l1-6h3v2l3-1z" fill="#F9A38D"/>
<path transform="translate(1257,306)" d="m0 0 2 4 1 3 4 1v20l-3-2v-17h-1l-1 72h-1z" fill="#FD6B99"/>
<path transform="translate(1264,367)" d="m0 0h1l1 19 12 1 6-2 2-1 1 4-1 3-3 1h-17l-3-3z" fill="#FC88CD"/>
<path transform="translate(393,285)" d="m0 0 2 3 4 15 2 5 1 11-5-4v10h-1l-3-29v-4l-2-2z" fill="#FE7D8F"/>
<path transform="translate(1062,225)" d="m0 0 5 1-4 4 1 1v3l-3 6v5l-3-1 2 5 6 3-3 1-8-4-1-11h2l4-12z" fill="#F9331A"/>
<path transform="translate(560,691)" d="m0 0h3l1 2 1 10-7 1h-2l-1 3-6-4-3-4 1-3h2v-4h2v3l4-3v5l-3 1-1 2 10-2 1-3z" fill="#F99C27"/>
<path transform="translate(399,299)" d="m0 0h2l3 9 5 20v13h-1l-5-18-4-18-1-5z" fill="#7FF0FC"/>
<path transform="translate(545,699)" d="m0 0 12 9-5 3-4-1-3-2h-3l1 5-4 1-1 3-1-7 4-6-1-4z" fill="#007FA5"/>
<path transform="translate(602,717)" d="m0 0 2 4v3l-7 3-4 6v6l-6 2-3 5 2 1h-5l2-9 7-6 6-9 4-5z" fill="#0780AD"/>
<path transform="translate(590,387)" d="m0 0 1 3h2l-1 3h-29l-1-4 4-1h23z" fill="#FBAEA5"/>
<path transform="translate(542,707)" d="m0 0 4 1 9 6 5 5 1 4-5 1v-2l-5-1-1-5-7-2-2-3z" fill="#FEB70C"/>
<path transform="translate(1025,320)" d="m0 0h1v7l-3 14-3 10-4 4-1 5-3 1 3-11 6-17 2-9z" fill="#FAB81A"/>
<path transform="translate(565,277)" d="m0 0h28l-1 5h-26l-3 1v-5z" fill="#FC94C8"/>
<path transform="translate(468,805)" d="m0 0h2v5l-4 2h-52v-1l18-1 3-1 31-1z" fill="#FED5B1"/>
<path transform="translate(520,660)" d="m0 0 8 2 4 9 1 5h-5l-1 2-4-6v-2l-3-1z" fill="#0183A7"/>
<path transform="translate(636,658)" d="m0 0 5 1-2 5-15 6-3 2-3-1 1-3-1 1-1-3 10-4z" fill="#FDB715"/>
<path transform="translate(541,735)" d="m0 0 10 4 10 6 2 4h-8l-5-2-5-5-4-3z" fill="#FDAC08"/>
<path transform="translate(1175,706)" d="m0 0 2 3h-2v2h-22v18h-1v-18h-25v-2l47-1z" fill="#FDD8BC"/>
<path transform="translate(1069,202)" d="m0 0h6l-5 5v1h5l-4 3v6l8 2-4 1h-4l2 1-1 2-9-4 1-7z" fill="#F83A1D"/>
<path transform="translate(582,662)" d="m0 0 3 2 2 4v3 1l4 2-4 2 6 2v3l-4-1-6-5-4-4-7-1v2h-2l1-4 10-4z" fill="#F6B314"/>
<path transform="translate(545,655)" d="m0 0 1 3-1 1v6l4 5v3l-6 4h-3l-2-1 2-13z" fill="#007EA3"/>
<path transform="translate(1039,346)" d="m0 0 3 1-3 10-3 6h-5l-2-7 6-7z" fill="#E0026B"/>
<path transform="translate(663,772)" d="m0 0 4 1h15l1 4-3 3h-13l-3-1z" fill="#E30772"/>
<path transform="translate(318,349)" d="m0 0h1l1 18 1 6h-2v18h-1l-1-8h-1v-33z" fill="#FEA60B"/>
<path transform="translate(687,263)" d="m0 0h39v3l-1 1h-22l-19-1z" fill="#FCB0A1"/>
<path transform="translate(316,238)" d="m0 0 2 4 1 20v18l-1 7-2 1z" fill="#00D0A0"/>
<path transform="translate(592,714)" d="m0 0h3l-1 5-3 3-2 5-3 3-4 2-2 2-1-7 8-8z" fill="#0077A0"/>
<path transform="translate(1018,351)" d="m0 0 1 3-5 16-4 12h-3l-1-7 5-9 2-6h2v-6z" fill="#FEB80D"/>
<path transform="translate(1058,244)" d="m0 0 6 2 15 6v3l7-1 1 2-1 2-12-3-10-3-5-3z" fill="#E10466"/>
<path transform="translate(1060,213)" d="m0 0h2v5l7 3 1 3h-7l-2 1-4 11-1 2h-2l2-13z" fill="#FDB51C"/>
<path transform="translate(424,763)" d="m0 0h33v4h-31l-6-1v-2z" fill="#FD7E9A"/>
<path transform="translate(1074,234)" d="m0 0 7 2 8 3 3 2-3 4-7-1-10-5-1-2 3-1z" fill="#FD9E07"/>
<path transform="translate(876,305)" d="m0 0 4 1v14l3 6v7h-1l-2-7-5-1-3 2 2-5 1-16z" fill="#FCB0A2"/>
<path transform="translate(332,288)" d="m0 0 4 2 8 1 2 1-1 6-3 6h-3z" fill="#F08E47"/>
<path transform="translate(561,631)" d="m0 0 3 1-3 14-5 5v-4h-4l3-9 4-5h2z" fill="#E8B332"/>
<path transform="translate(722,350)" d="m0 0h1v43l-3-1 1-2h-2l-1-5 2-15h2l-1-3z" fill="#FC8DD3"/>
<path transform="translate(493,626)" d="m0 0h12l4 2v2l-9 1v6l-6-1-2-3v-6z" fill="#F5B137"/>
<path transform="translate(833,291)" d="m0 0h2l-1 5-7 11-2 5-3 1v-7l4-8 5-6z" fill="#FDFBFA"/>
<path transform="translate(656,263)" d="m0 0 6 1v2l-11 1h-23l-8-2v-1z" fill="#FCB0A1"/>
<path transform="translate(682,263)" d="m0 0h5l-2 2 26 1 6 1v1l-31 1-2 8-2-2-1-10z" fill="#FC80C8"/>
<path transform="translate(1290,316)" d="m0 0 2 2v29l-1 7h-2v-35z" fill="#F57FCF"/>
<path transform="translate(524,720)" d="m0 0 5 1 5 6 3 4v5l-4-2-2-4-5-1-2-2z" fill="#E8B52B"/>
<path transform="translate(863,270)" d="m0 0h27l10 3 5 4 5 2v2l-6-2-8-4-8-3h-21l-16 4v-2l8-3z" fill="#FCA0A0"/>
<path transform="translate(401,250)" d="m0 0h2v8l-1 7-2 5-1 7-2 1v-19l2-6z" fill="#ED8856"/>
<path transform="translate(422,748)" d="m0 0h35l-1 3h-17l-26-1v-1z" fill="#FD7E9A"/>
<path transform="translate(1056,321)" d="m0 0h4v2l10 3v2l6-1 1 5-3 1-10-5-8-2-3-4z" fill="#E10465"/>
<path transform="translate(917,229)" d="m0 0 7 1 6 11-5 2h-3l-1-5-4-4v-2l-5-1v-1z" fill="#FC8AA2"/>
<path transform="translate(611,681)" d="m0 0 3 2 3 1-2 3h-2l-2 9-9 8-3-3v-1l6-2 3-3 1-4h-5l6-8z" fill="#0082A5"/>
<path transform="translate(599,665)" d="m0 0 2 1-3 12-1 2-5-4-3-8 7-2z" fill="#027E99"/>
<path transform="translate(356,361)" d="m0 0h6v11h-14v-4l3 1v2l3-2v-4z" fill="#D9EDE0"/>
<path transform="translate(1137,360)" d="m0 0 2 4 3 1-1 6 3 5-1 2h-5l-1 5h-1v-22z" fill="#007DA5"/>
<path transform="translate(316,169)" d="m0 0 3 1 1 3v11 1l-1 11h-2l-1 2z" fill="#00D0A0"/>
<path transform="translate(407,762)" d="m0 0h24v1l-11 1v2h6v1h-20z" fill="#22A1A5"/>
<path transform="translate(469,697)" d="m0 0h1v18l-1 29-2 1v-37h1z" fill="#00D0A0"/>
<path transform="translate(500,693)" d="m0 0 6 1 10 5 1 2h-5l1 2-4 1-8-5z" fill="#008EA7"/>
<path transform="translate(1163,400)" d="m0 0h3l-2 6-23 1-5-1 3-3 24-1z" fill="#00CFA0"/>
<path transform="translate(406,747)" d="m0 0h30v1l-14 1 17 1v1h-33z" fill="#0EA0A7"/>
<path transform="translate(957,741)" d="m0 0h1v37l-2-1v-19l-2-1v16h-1v-24l3-1z" fill="#E70E7B"/>
<path transform="translate(395,683)" d="m0 0h28l6 2-2 2-1-1h-25l-3 1-3 3-2-5z" fill="#FDEAEB"/>
<path transform="translate(318,205)" d="m0 0h1v57h-1l-1-20-2-14 2-2z" fill="#FEA607"/>
<path transform="translate(426,302)" d="m0 0h2v9l-5 23h-1v-8l-1-8 3-6 1-9z" fill="#F1916D"/>
<path transform="translate(956,243)" d="m0 0h5l2 2-1 5-5 4-4-2-3-4h2v-2z" fill="#FCB3AC"/>
<path transform="translate(415,218)" d="m0 0h2l1 7-2 3 2 1 3 7 1 9-2-1-1-8h-2v-2l-4 1v-12z" fill="#FC849A"/>
<path transform="translate(559,736)" d="m0 0 4 2 5 6 2 5-8-1-5-5 1-4h2z" fill="#017F82"/>
<path transform="translate(1205,711)" d="m0 0h1v26h-29v-2h27z" fill="#FCD7BB"/>
<path transform="translate(551,721)" d="m0 0 5 1v2l5-1 1-2 1 4-2 4-5 1-3-1-2-2-1-2-6-1v-1h7z" fill="#FB9738"/>
<path transform="translate(317,137)" d="m0 0h15v1l26 1v1l-38 1-1 3-3-1v-5z" fill="#F1963C"/>
<path transform="translate(694,390)" d="m0 0h18v2l8 1v1h-26l-3-2h3z" fill="#FB86D0"/>
<path transform="translate(1111,244)" d="m0 0 1 2-8 25-1-4 1-8v-4l3-9z" fill="#FDB51D"/>
<path transform="translate(390,224)" d="m0 0h1v37h-2l-1-10v-11l1-14z" fill="#FF6884"/>
<path transform="translate(718,734)" d="m0 0 18 1v1l-26 1-10 1-10-1v-2z" fill="#F57FCF"/>
<path transform="translate(571,697)" d="m0 0 9 3 2 2-1 7-4 2-3-3z" fill="#F3AA14"/>
<path transform="translate(545,682)" d="m0 0 1 2 4-1-2 6-3 3-7-1-2-4h-4l1-2 5-1v2l5-2z" fill="#048DA3"/>
<path transform="translate(794,242)" d="m0 0 5 3 2 3h-2l-2 4-4 1-4-4 1-4 1-2z" fill="#FC869F"/>
<path transform="translate(595,719)" d="m0 0h2l-1 6-8 10-4 1 1-5 7-9z" fill="#FEAF05"/>
<path transform="translate(708,761)" d="m0 0h2v16l-4 2-3-1 1-3h-9v-1l9-1 2-1 1-10z" fill="#E20670"/>
<path transform="translate(595,263)" d="m0 0h5l1 2v15l-2 3v-15l-3-1-14-1 2-2z" fill="#FC98C2"/>
<path transform="translate(1069,222)" d="m0 0 11 2-3 1v2l4 1-2 2-9-2-4-2h-6l3-3h6z" fill="#FCA00B"/>
<path transform="translate(977,789)" d="m0 0h8l1 5-7 5-3-1v-8z" fill="#00D0A0"/>
<path transform="translate(520,747)" d="m0 0h20v1l-18 1 1 9 3 14-3-2-5-19z" fill="#E061B1"/>
<path transform="translate(519,660)" d="m0 0 2 2-1 5-2 2 1 3 2 1-1 4-4-2-6-4v-3l6-2z" fill="#FEA604"/>
<path transform="translate(434,403)" d="m0 0h4v3h-32l-4-2z" fill="#FC8DD2"/>
<path transform="translate(442,389)" d="m0 0 3 1v11l-2 10h-1l-2-8v-8z" fill="#FF6884"/>
<path transform="translate(395,807)" d="m0 0 3 1 29 1v2l-32 1-1-3z" fill="#FFF6DD"/>
<path transform="translate(1264,398)" d="m0 0 21 1 2 3h-23z" fill="#FC8BD3"/>
<path transform="translate(1085,322)" d="m0 0h1v6l-7 20h-1v-12l3-7h3z" fill="#F5B44D"/>
<path transform="translate(397,315)" d="m0 0 4 2 1 2 1 10-3 3v-2h-3z" fill="#F66324"/>
<path transform="translate(1095,210)" d="m0 0 11 3 5 5-1 2-5-1v-2l-7-1-4-2z" fill="#E10562"/>
<path transform="translate(605,671)" d="m0 0 2 1-2 4 4-1-4 8-4 1-4-6 1-6 2 4 3-1z" fill="#0093A5"/>
<path transform="translate(629,383)" d="m0 0h1l1 5 8 3v2l3 1h-15v-7z" fill="#FCADA1"/>
<path transform="translate(1069,363)" d="m0 0h3l-1 10-4 3-2 11-2 3h-2l1-7 6-17z" fill="#FDAE0B"/>
<path transform="translate(1134,332)" d="m0 0 3 3 4 1-3 2-1 22h-1l-1-5v-14h-2v-8z" fill="#FD7E9A"/>
<path transform="translate(400,276)" d="m0 0h1l-1 11v12l-3 1-1-4v-10l2-9z" fill="#A5F2F3"/>
<path transform="translate(512,688)" d="m0 0 5 4 1 1 3-3 2 3 1 5h-5l-10-6-1-2h4z" fill="#ED9580"/>
<path transform="translate(492,665)" d="m0 0h6l6 2-2 4 3 1v3l-9-3-4-5z" fill="#008FA5"/>
<path transform="translate(930,348)" d="m0 0h2l-3 9-7 10-10 10v-3l9-10 7-11z" fill="#FEF1D8"/>
<path transform="translate(362,368)" d="m0 0h1v18h-1l-1-12-34-1v-1h35z" fill="#85B89C"/>
<path transform="translate(589,747)" d="m0 0h29l2 1-1 9-3 8h-1l1-9 1-8h-28z" fill="#9C6CA5"/>
<path transform="translate(585,695)" d="m0 0h4l2 7h4l-1 5-2 1v-2h-3v-5h-8z" fill="#0395AA"/>
<path transform="translate(501,668)" d="m0 0h6l5 3 1 3v4l-5-1-3-2-1-3-3-3z" fill="#0077A7"/>
<path transform="translate(444,786)" d="m0 0 12 6 1 3-9 4-1-9-3-2z" fill="#FCB2AF"/>
<path transform="translate(1232,709)" d="m0 0h30l2 2-8 1-24-1z" fill="#FCCEB5"/>
<path transform="translate(393,687)" d="m0 0 4 2v20h-1v-7h-2l-1 3z" fill="#00D0A0"/>
<path transform="translate(684,386)" d="m0 0h1l1 17-2 1 2 3h-5l-1-5 1-8h2z" fill="#FC8CD3"/>
<path transform="translate(1133,341)" d="m0 0h2l1 20-1 8h-2l-1-6z" fill="#FE9F05"/>
<path transform="translate(410,696)" d="m0 0 5 1 3 7 4 3-1 2-14-8 1-4z" fill="#FCACA6"/>
<path transform="translate(331,362)" d="m0 0 7 2 3-1v7l-5-1-2 1-4-1v-6z" fill="#FDF8F9"/>
<path transform="translate(564,727)" d="m0 0 2 1 2 4v5l-3 1h-3l-4-4 3-1v-3z" fill="#F79F2A"/>
<path transform="translate(534,727)" d="m0 0 8 6 1 2h-2l2 5 4 4-9-3-2-5v-5z" fill="#08814F"/>
<path transform="translate(761,703)" d="m0 0 5 1 2 8h-8l-1-1v-6z" fill="#F580CF"/>
<path transform="translate(557,691)" d="m0 0 4 1 2 5-2 2-10 1 1-3h2z" fill="#FEB609"/>
<path transform="translate(586,660)" d="m0 0 2 1 1 5h2l1-3 1 2 3 2-6 1 1 5-7 1 1-3h2l-5-10 4 1z" fill="#FEAB0A"/>
<path transform="translate(411,790)" d="m0 0 1 2h3l2 7 4 1v3l-14-8v-3z" fill="#FCB7AE"/>
<path transform="translate(587,674)" d="m0 0h5l9 9v1l-8 1-2-4 1-2-5-2z" fill="#FEA103"/>
<path transform="translate(926,272)" d="m0 0 1 2 4 1 1 4-6 3-3-3v-3l-5-1 1-2 6 1z" fill="#D9C7C2"/>
<path transform="translate(410,233)" d="m0 0h2l-1 10-2 8-2-1h-2v-6h2l2-10z" fill="#FDF6EA"/>
<path transform="translate(362,395)" d="m0 0h2l1 7h-37l1-2h31z" fill="#EC8651"/>
<path transform="translate(340,238)" d="m0 0 4 1 7 15-1 3-3-6-4-4-4-5-2-1 3-1z" fill="#F08D41"/>
<path transform="translate(609,705)" d="m0 0 6 1-2 4-3 4h-2l-1 2-2-2 1-5z" fill="#007587"/>
<path transform="translate(656,262)" d="m0 0h7l3 3v5l-13-2 1-2h8v-2h-5z" fill="#FC83CA"/>
<path transform="translate(1066,253)" d="m0 0 8 1 9 2 3 2v-4l7 2-4 5-23-7z" fill="#F8341C"/>
<path transform="translate(552,265)" d="m0 0h1v6h2v11l-2 11h-1z" fill="#FD8DD4"/>
<path transform="translate(718,387)" d="m0 0 1 3h2l-1 3h-8l-1-2-16-1v-1l22-1z" fill="#FCAFA0"/>
<path transform="translate(582,662)" d="m0 0 3 2 2 4v3l-13-3 3-3 4-1z" fill="#F699A0"/>
<path transform="translate(543,644)" d="m0 0 2 3-3 7-1 3v3l-5-1 3-11 4-1z" fill="#FCA51F"/>
<path transform="translate(638,390)" d="m0 0 4 1 11 1 4 3h-29v-1l11-1z" fill="#FB7EC1"/>
<path transform="translate(816,323)" d="m0 0 2 3 1 15 3 9-1 3-4-10-2-12-1-2z" fill="#FC8FA4"/>
<path transform="translate(983,814)" d="m0 0 5 1 1 3 4 3h-11l-2-1v-4z" fill="#00BFA7"/>
<path transform="translate(469,685)" d="m0 0h1l1 10-1 2-1 15-2-4v-21z" fill="#F890A7"/>
<path transform="translate(395,401)" d="m0 0 7 1 32 1v1l-39 1z" fill="#FCA19E"/>
<path transform="translate(409,332)" d="m0 0h1l3 12v8l-2 3-3-14z" fill="#FDF9EE"/>
<path transform="translate(1283,306)" d="m0 0 5 1 2 4v3l-6-1-16-1v-1l16-1v-2z" fill="#E2066D"/>
<path transform="translate(315,370)" d="m0 0h1l1 12h1l1 14h-3l-1-5z" fill="#F3826F"/>
<path transform="translate(1104,235)" d="m0 0h5l2 2 2 6-5 3 1-5-6-2-1-2z" fill="#FEB406"/>
<path transform="translate(950,780)" d="m0 0h7l-1 4-17 1v-2z" fill="#C81FBB"/>
<path transform="translate(560,691)" d="m0 0h3l1 2 1 10-7 1-1-5 5-2z" fill="#9D9B9D"/>
<path transform="translate(1018,351)" d="m0 0 1 3-5 16-2 3v-12l3-1v-6z" fill="#FEA203"/>
<path transform="translate(1145,377)" d="m0 0 5 2 3 2-2 5-3 1-4-9z" fill="#FB9A1E"/>
<path transform="translate(1025,320)" d="m0 0h1v7l-4 12-3 1 4-16z" fill="#EDBA6F"/>
<path transform="translate(931,308)" d="m0 0 3 3 2 6v23l-2 1v-19z" fill="#FC8D9D"/>
<path transform="translate(1073,784)" d="m0 0 26 1-1 2-24-1v18h-1l-1-19z" fill="#FCC3AF"/>
<path transform="translate(571,673)" d="m0 0 6 3 1 4-7 2-3-2v-2l-2-1h6z" fill="#9CAD7D"/>
<path transform="translate(1257,390)" d="m0 0 3 3v3l4 1v5l-6-1-1-1z" fill="#FCA4A3"/>
<path transform="translate(582,689)" d="m0 0 6 5-3 1v2l-5-2-4-5z" fill="#DD9BB7"/>
<path transform="translate(642,662)" d="m0 0 7 4-1 4-9 7h-3v-2l8-5 2-3-6-3z" fill="#E1A7B0"/>
<path transform="translate(608,714)" d="m0 0h2v9l-1 1h-5l-1-3z" fill="#F8A81A"/>
<path transform="translate(1135,361)" d="m0 0h1v17l-2-2-1 14h-1v-15l1-6h2z" fill="#FD7E9A"/>
<path transform="translate(1052,334)" d="m0 0h2l-1 7-4 1-3-2 1-4z" fill="#E1036C"/>
<path transform="translate(396,309)" d="m0 0 4 1 2 5-1 4-4-4v10h-1l-1-15z" fill="#ED8757"/>
<path transform="translate(730,262)" d="m0 0h3v10l-3-3-2 3v-3l-3-1 3-4h2z" fill="#FC8BCF"/>
<path transform="translate(954,757)" d="m0 0 3 1v14h-3z" fill="#DE044D"/>
<path transform="translate(1290,302)" d="m0 0 3 2v12l-2 2v-2h-4v-2h3l-1-6 2 1-1-4-3-2z" fill="#FB8CB8"/>
<path transform="translate(828,231)" d="m0 0 3 4 2 6 1 2-5-1-4-5 2-5z" fill="#CEA0BD"/>
<path transform="translate(613,687)" d="m0 0 1 2 6-2 1 2 3 2-10 2-4 2z" fill="#F79687"/>
<path transform="translate(590,639)" d="m0 0h2l2 4-1 7-4-2-2-8 2 1z" fill="#FEA612"/>
<path transform="translate(317,394)" d="m0 0 5 5 7 1-1 2h-12v-6z" fill="#F38C35"/>
<path transform="translate(318,349)" d="m0 0h1l1 12-2 1-1 5h-1v-17z" fill="#FFA003"/>
<path transform="translate(1290,316)" d="m0 0 2 2v12l-1 6-2-3v-14z" fill="#FA88D2"/>
<path transform="translate(664,262)" d="m0 0 4 1-1 13-2 4h-1v-11l1-4z" fill="#F57DCC"/>
<path transform="translate(1115,207)" d="m0 0 5 1 2 4-4 4-2-1-2-7z" fill="#FEA103"/>
<path transform="translate(602,717)" d="m0 0 2 4v3l-8 2 1-5z" fill="#0281AC"/>
<path transform="translate(1135,697)" d="m0 0 5 1 1 8-6-2-1-6z" fill="#FCB0A1"/>
<path transform="translate(577,737)" d="m0 0 2 4 1 5-5 2-2-8z" fill="#0275A8"/>
<path transform="translate(420,338)" d="m0 0h1v7l-1 3 2 1-2 9-2-2v-10z" fill="#FDE3D5"/>
<path transform="translate(1262,316)" d="m0 0 2 1v17l-3-2z" fill="#FD70A6"/>
<path transform="translate(556,646)" d="m0 0 1 2-1 4h-2l-1 3h-3v-6l1-2z" fill="#FEAB09"/>
<path transform="translate(389,275)" d="m0 0 2 2 1 9-2 3h-2v-13z" fill="#FF6884"/>
<path transform="translate(580,263)" d="m0 0h15v1l-11 1 12 1v1h-18l2-1z" fill="#FD8DD4"/>
<path transform="translate(557,703)" d="m0 0h9l4 10h-2v-2h-2l-3-4v-2l-4 1-2-1z" fill="#FD9E1B"/>
<path transform="translate(545,655)" d="m0 0 1 3-3 8-3 6-1-4 3-9z" fill="#006715"/>
<path transform="translate(1155,336)" d="m0 0h7l1 3v15h-1l-2-15-5-2z" fill="#22759F"/>
<path transform="translate(1052,330)" d="m0 0 3 3v9h-1v-8l-7 3-3 2 2-4z" fill="#DE0259"/>
<path transform="translate(753,711)" d="m0 0h1l2 7 3 3-8 1v-6h2z" fill="#FBA4A6"/>
<path transform="translate(571,697)" d="m0 0 9 3 2 2-2 3v-2h-7z" fill="#F79B8B"/>
<path transform="translate(450,695)" d="m0 0 7 3-2 4-4 1-2-4z" fill="#FCADAF"/>
<path transform="translate(555,672)" d="m0 0h3l1 9-3 2v-2h-3v-2h2l-1-6z" fill="#00808B"/>
<path transform="translate(402,319)" d="m0 0 2 4 4 13-1 4-5-12z" fill="#F99E95"/>
<path transform="translate(573,263)" d="m0 0h7v3l-7 1-6-1 2-2z" fill="#FC9DBB"/>
<path transform="translate(415,218)" d="m0 0h2l1 7-5 4 1-9z" fill="#FD7793"/>
<path transform="translate(351,362)" d="m0 0 4 2 1 2v3l-2 2h-3l-1-4z" fill="#F8FCFD"/>
<path transform="translate(607,690)" d="m0 0h3l1 6-9 8-3-3v-1l6-2 3-3 1-4z" fill="#08A7BD"/>
<path transform="translate(570,688)" d="m0 0 1 2h2v5h6l-1 3-4 1-4-5-2-5z" fill="#FEA205"/>
<path transform="translate(914,401)" d="m0 0 5 1 2 4-2 3-4-2z" fill="#FD7E9A"/>
<path transform="translate(1069,373)" d="m0 0 1 3-4 13h-1v-10l3-5z" fill="#FDBB3A"/>
<path transform="translate(1164,328)" d="m0 0h1l1 16-3-1-1-6z" fill="#00BCA9"/>
<path transform="translate(863,270)" d="m0 0h6l-2 2-16 4v-2l8-3z" fill="#FC92A3"/>
<path transform="translate(1064,205)" d="m0 0h3l-1 5-3 9-2-2v-6l2-2z" fill="#FEA904"/>
<path transform="translate(551,721)" d="m0 0 4 1 1 4-6 1v-2l-6-1v-1h7z" fill="#1990B1"/>
<path transform="translate(636,627)" d="m0 0 5 1 3 3-2 5-2 2v-8h-6l-1-2z" fill="#D2C0C5"/>
<path transform="translate(1065,375)" d="m0 0 1 4-1 8-2 3h-2l1-7z" fill="#FFA003"/>
<path transform="translate(907,380)" d="m0 0m-4 1h4v2l-10 4-3-2z" fill="#FE7A8E"/>
<path transform="translate(1057,227)" d="m0 0h2l-1 7-2 4h-2l1-10z" fill="#FEB00B"/>
<path transform="translate(630,690)" d="m0 0 5 1-4 7h-2l1-4h-6l1-2z" fill="#0099A4"/>
<path transform="translate(415,364)" d="m0 0 2 4 1 5-3 1-2-2 1-7z" fill="#FDC8B6"/>
<path transform="translate(936,321)" d="m0 0h1v21l-2 5h-1v-6l1-1z" fill="#FE6985"/>
<path transform="translate(824,274)" d="m0 0 4 1v2l-6 6-2-5z" fill="#DBF1EE"/>
<path transform="translate(395,807)" d="m0 0 11 2 1 2-12 1-1-3z" fill="#E4EEE4"/>
<path transform="translate(520,747)" d="m0 0h20v1l-18 1-4 2z" fill="#C78599"/>
<path transform="translate(608,646)" d="m0 0h2l-2 4-5 5h-2l2-5z" fill="#AABB9E"/>
<path transform="translate(1203,393)" d="m0 0h7v4l-5 1-2-1z" fill="#F76122"/>
<path transform="translate(1149,353)" d="m0 0 3 3v3l-5 1-1-5z" fill="#FEA012"/>
<path transform="translate(876,305)" d="m0 0 4 1-2 6-1 10h-1z" fill="#FB7D87"/>
<path transform="translate(426,302)" d="m0 0h2v9l-3 1v-9z" fill="#ED8A59"/>
<path transform="translate(895,272)" d="m0 0 6 2 7 4 2 1v2l-6-2-9-5z" fill="#FD8999"/>
<path transform="translate(1117,220)" d="m0 0 2 4-1 4-5 1 2-7z" fill="#FEB70C"/>
<path transform="translate(610,685)" d="m0 0 2 1-1 8-1-4-6 1 5-5z" fill="#006CA8"/>
<path transform="translate(403,684)" d="m0 0h25v3l-2-1-23-1z" fill="#FEE5D3"/>
<path transform="translate(1032,382)" d="m0 0 2 4 2 1v4l-6 1z" fill="#FB7A0F"/>
<path transform="translate(408,348)" d="m0 0 2 4-1 5-4-2v-5z" fill="#EC8651"/>
<path transform="translate(401,250)" d="m0 0h2v8l-1 2-3-1 1-8z" fill="#F56628"/>
<path transform="translate(339,233)" d="m0 0 3 1 1 4h-3v2l-4 1 1-4z" fill="#FDA11C"/>
<path transform="translate(549,692)" d="m0 0h2v3l4-3v5l-5 2-2-3z" fill="#20ACBC"/>
<path transform="translate(626,689)" d="m0 0h4l-1 3-5 2-4-1-1-2z" fill="#FEBE2B"/>
<path transform="translate(504,690)" d="m0 0 5 1v3l-3 1-5-1v-2z" fill="#FDB825"/>
<path transform="translate(494,659)" d="m0 0h2v6l-5 1-2-2z" fill="#FC96AB"/>
<path transform="translate(1290,390)" d="m0 0 3 1v8l-2 1v-5l-3 1z" fill="#FD88C8"/>
<path transform="translate(826,277)" d="m0 0 3 1-1 4-3 2-3-1z" fill="#FC8B9E"/>
<path transform="translate(1010,812)" d="m0 0h1v8l-1 1h-13v-1l10-1 2-2z" fill="#07B0B1"/>
<path transform="translate(423,708)" d="m0 0 7 1v2l3-1 1 3-7-1-4-2z" fill="#FCAFA9"/>
<path transform="translate(554,652)" d="m0 0h2l-3 10-3-2-1-5 4-1z" fill="#FCB3B6"/>
<path transform="translate(362,395)" d="m0 0h2l1 7h-8l4-4z" fill="#F29B6B"/>
<path transform="translate(348,361)" d="m0 0h8l-1 2-4-1v5l-3 1z" fill="#FEF2DF"/>
<path transform="translate(794,242)" d="m0 0 5 3 1 2h-10l1-4z" fill="#FDFDFD"/>
<path transform="translate(705,742)" d="m0 0h5l-1 5-2 2-3-3z" fill="#E20570"/>
<path transform="translate(737,735)" d="m0 0h7l3 2h-2v2h-6v-3z" fill="#F57FCF"/>
<path transform="translate(956,733)" d="m0 0h3v7l-5-3-2-3z" fill="#F57FCF"/>
<path transform="translate(582,715)" d="m0 0 2 1-4 5-5-1-2-4 5 2z" fill="#2887B2"/>
<path transform="translate(539,708)" d="m0 0h2l2 5-4 1-1 3-1-7z" fill="#0D78A7"/>
<path transform="translate(409,332)" d="m0 0h1l2 8v5l-4-2z" fill="#F7FCFB"/>
<path transform="translate(911,281)" d="m0 0 8 6 4 4-1 3-7-8-4-3z" fill="#FD7F92"/>
<path transform="translate(397,278)" d="m0 0h1l-1 8-1 7h-1l-1-10z" fill="#FCB0A1"/>
<path transform="translate(789,246)" d="m0 0h6v3 4l-4-2-2-2z" fill="#F6A9B0"/>
<path transform="translate(956,243)" d="m0 0h5l2 3-7 1-4 1v-2z" fill="#FDF8FB"/>
<path transform="translate(1072,203)" d="m0 0 6 1-5 4-4 1 2-5z" fill="#DF0265"/>
<path transform="translate(616,718)" d="m0 0 2 1z" fill="#65EEFD"/>
</svg>
