<?xml version="1.0" encoding="UTF-8"?>
<svg version="1.1" viewBox="0 0 2000 2000" width="1280" height="1280" xmlns="http://www.w3.org/2000/svg">
<path transform="translate(332,479)" d="m0 0h71l2 4v513l1 4 109-1-3-16-9-37-9-34-8-34v-7h19l9-3 1-3-2-12-4-13-2-3-10-1-3-2-1-6 2-6h-5l-7-6-8-5-3-3-9-5-2-3-5-1-4-3-2-6-5-1-3-3-1-7 2-4 5-1h7l2-5 4-1 9 3h2l-3-10-10-7-1-4-5 1-5-2-2-3-7-1-3-3-2-5-5-3-1-1v-5l8-4 4-8 14 1 7 1 4 4h10l-1-6-8-5-2-5 2-4-8-4-3-4-1-3-8-3-2-3 1-7 1-4-6-4-1-1v-8l4-4 6 2 5 3 3-3h6l5 7 7 2 3 5v5l9 4 4 5 1 6 7 1 4 5 2 11 7-1 7 2-1-10 5-6v-11l5-6v-7l7-9 3-7 2-2h5l4-5 6-2 5 3 1 3v21l-3 3-2 1-1 10-5 4-2 9-3 5-2 10-1 6 10 6 12 9 1 3v11l3 1 3-2 5 1 1 1 1 15 3 5 7 5h2l2-5h7l-1-5-7-8-17-17-2-6 1-3 13-5 10-1 1-3-5-9v-7l-4-6-3-9-4-6-1-7-4-2-2-4 1-2v-15l4-5 4-1 6 5v2l10 2 3 8 5 4 3 11 4 5-1 8 5 5 5 6h5l6-8 6-4h5l1-6 5-5 6-1 1-6 2-4 8-4 6-6h13l7-1 3 3 1 7-2 4-7 2 2 3 1 7-3 3-7 2-3 6-7 3h-2l2 5-1 4-4 3-6 2v5l4 2h5l9-6 8 1 6-2 5 3 7 8 2 1v5l-6 7-4 4-8 2-5 3-7 1-5 5-6 3-5 8-1 3 5 2h6l5-6h4l2 6h10l3 3v7l-4 3-5 2-3 7-9 2-6 5-7 2-2 4-12 9-5 1 1 7-3 5-5 1-4-3-8-1-3 11-5 5-5 2-3 9-5 2v15l6 2 50 1 1 3-10 42-9 32-10 42-1 9h93v-375l1-28 1-1h102l3 1 1 37v366h30l1-65 1-24 2-2 19-1h48v-88l-71-1-1-1v-53l1-1 105-1h114v-10l14-27 1-9-7-7-7-6-10-13-8-15-4-13-3-14v-20l5-22 4-11 6-11 7-10 1-6v-2l-9-1-8 6-13 12-6 4-5-6-6-12-1-11 2-12 6-11-1-7-4-5 1-5h5l5 4h6l16-7 11-1 2-1 7-14 5-4h121l5 3 7 15 23 7 9 3 5-2 4-3h5l1 4-6 9 2 7 5 10 1 4v15l-4 12-6 10-5-3-15-14-2-1v-2l-4-2-3-2-7 1-2 5 5 9 7 11 7 17 5 17v23l-6 21-6 15-8 12-11 12-4 5-1 4 5 12 8 16 3 8v8l1 1h86l111 1 1 1 1 52-2 2h-66v89h52l16 1 3 3v88h51l-3-10-1-34v-168l1-23 1-1 24-1h327l23 1 5 17 9 34 11 44 10 37 6 25 9 34 7 29 1 8v8h13l21 1 2 1v67l-2 3-3 1h-1890l-3-1-1-3v-68l32-1v-250l1-35 4-2 31-1h27l31 1 6 5 2 4v268l-2 1-1 9h17l1-387 1-4 2-1h98l6 2 1 206v173l-2 11h25v-154l1-365zm761 22-6 7-1 7 9 4 9 6 1 4-5 6-8 7-11 11-1 5 4 4h5l10-7 16-8 15-5 13-2h17l16 3 18 7 12 6 10 7 4-1 3-3-1-5-16-16-5-4-2-5 5-6 14-7 1-3-5-10-3-2zm95 227-21 5h-31l-12-3h-7l-8 16-6 13 1 3h100l-1-8-7-16-4-8zm-679 20-1 1 1 8 3 3 4-2 5-3v-2l-9-5zm44 16-5 5-4 1-4-1-4 7 1 3h10l6-10 3-3v-2zm41 36-7 3-3 1 1 11 2 4 5-1 4-10v-6zm-69 13v13l5 1 5 2 5 3 4-1v-5l-4-5-2-4-9-4zm40 22v3l8 9 3 5 3 3 2 4h3l-1-9-9-11-5-4z" fill="#D28657"/>
<path transform="translate(1091,495)" d="m0 0h121l5 3 7 15 23 7 9 3 5-2 4-3h5l1 4-6 9 2 7 5 10 1 4v15l-4 12-6 10-5-3-15-14-2-1v-2l-4-2-3-2-7 1-2 5 5 9 7 11 7 17 5 17v23l-6 21-6 15-8 12-11 12-4 5-1 4 5 12 8 16 3 8v8l1 1h86l111 1 1 1 1 52-2 2h-66v89h52l16 1 3 3v88h-571v-65l1-24 2-2 19-1h48v-88l-71-1-1-1v-53l1-1 105-1h114v-10l14-27 1-9-7-7-7-6-10-13-8-15-4-13-3-14v-20l5-22 4-11 6-11 7-10 1-6v-2l-9-1-8 6-13 12-6 4-5-6-6-12-1-11 2-12 6-11-1-7-4-5 1-5h5l5 4h6l16-7 11-1 2-1 7-14zm2 6-6 7-1 7 9 4 9 6 1 4-5 6-8 7-11 11-1 5 4 4h5l10-7 16-8 15-5 13-2h17l16 3 18 7 12 6 10 7 4-1 3-3-1-5-16-16-5-4-2-5 5-6 14-7 1-3-5-10-3-2zm95 227-21 5h-31l-12-3h-7l-8 16-6 13 1 3h100l-1-8-7-16-4-8z" fill="#FE69AB"/>
<path transform="translate(1505,762)" d="m0 0h327l23 1 5 17 9 34 11 44 10 37 6 25 9 34 7 29 1 8-1 8-19 1h-407l-3-1-3-10-1-34v-168l1-23 1-1z" fill="#FCDFC2"/>
<path transform="translate(1091,495)" d="m0 0h121l5 3 7 15 23 7 9 3 5-2 4-3h5l1 4-6 9 2 7 5 10 1 4v15l-4 12-6 10-5-3-15-14-2-1v-2l-4-2-3-2-7 1-2 5 5 9 7 11 7 17 5 17v23l-6 21-6 15-8 12-11 12-4 5-1 4 5 12 8 16 3 8v8l1 1h86l111 1 1 1 1 52-2 2h-66v3h-429l-1-2-71-1-1-1v-53l1-1 105-1h114v-10l14-27 1-9-7-7-7-6-10-13-8-15-4-13-3-14v-20l5-22 4-11 6-11 7-10 1-6v-2l-9-1-8 6-13 12-6 4-5-6-6-12-1-11 2-12 6-11-1-7-4-5 1-5h5l5 4h6l16-7 11-1 2-1 7-14zm2 6-6 7-1 7 9 4 9 6 1 4-5 6-8 7-11 11-1 5 4 4h5l10-7 16-8 15-5 13-2h17l16 3 18 7 12 6 10 7 4-1 3-3-1-5-16-16-5-4-2-5 5-6 14-7 1-3-5-10-3-2zm95 227-21 5h-31l-12-3h-7l-8 16-6 13 1 3h100l-1-8-7-16-4-8z" fill="#FCCCBE"/>
<path transform="translate(724,595)" d="m0 0h102l3 1 1 37v365l-3 1-70 1h-24l-6-1-2 1h-8v-1h5v-375l1-28z" fill="#FA91A8"/>
<path transform="translate(203,609)" d="m0 0 100 1 2 2v43l1 5v20l-1 16v286l-1 11-1 1-101 1-1-383z" fill="#FE9B08"/>
<path transform="translate(332,479)" d="m0 0h71l2 4v516l-1 1h-73l-1-52v-103l1-365z" fill="#788572"/>
<path transform="translate(1505,762)" d="m0 0h327l23 1 5 17 9 34 11 44 10 37 6 25 9 34 7 29 1 8-1 8-19 1h-407l-3-1-3-10-1-34v-168l1-23 1-1zm-13 18-1 4v194l2 6h72v-39l-35-1-3 1-1 36-1-36-5-2 5-2 1-18 1 19 4 1 28-1 5-1 1-17v-12l-6-4 5-1 1-7v-29l-2-2-10-2h-12l22-1 2-6 1-5 2 10 1 1 11 1v1l-12 1-1 5v32h37v-37l-1-1h6l-1 1-1 37v2 33l4 2h6v-1h20l11 1v-2h32l1-15v-16h2v31h42v-31l-5-3 6-6v-32l-31-1h-10l4-1h36l1-1 1-14 1 14 5 1 30 1h-3-16l-16 1-1 35 5 3-3 2v33h33l1-3v-20l3-1 1 24 8 1h27l1-11 1-29 1 4 2 1-1 2-1 23 1 10 8 1-8 2-1 4v32l1 1h22l14-1v-200l-1-1-299-1z" fill="#FCDFC2"/>
<path transform="translate(553,646)" d="m0 0 6 2 2 4v21l-3 3-2 1-1 10-5 4-2 9-3 5-2 10-1 6 10 6 12 9 1 3v11l3 1 3-2 5 1 1 1 1 15 3 5 7 5h2l2-5h7l-1-5-7-8-17-17-2-6 1-3 13-5 10-1 1-3-5-9v-7l-4-6-3-9-4-6-1-7-4-2-2-4 1-2v-15l4-5 4-1 6 5v2l10 2 3 8 5 4 3 11 4 5-1 8 5 5 5 6h5l6-8 6-4h5l1-6 5-5 6-1 1-6 2-4 8-4 6-6h13l7-1 3 3 1 7-2 4-7 2 2 3 1 7-3 3-7 2-3 6-7 3h-2l2 5-1 4-4 3-6 2v5l4 2h5l9-6 8 1 6-2 5 3 7 8 2 1v5l-6 7-4 4-8 2-5 3-7 1-5 5-6 3-5 8-1 3 5 2h6l5-6h4l2 6h10l3 3v7l-4 3-5 2-3 7-9 2-6 5-7 2-2 4-12 9-5 1 1 7-3 5-5 1-4-3-8-1-3 11-5 5-5 2-3 9-5 2v15l1 2-31 1-60-1 3-5-2-12-4-13-2-3-10-1-3-2-1-6 2-6h-5l-7-6-8-5-3-3-9-5-2-3-5-1-4-3-2-6-5-1-3-3-1-7 2-4 5-1h7l2-5 4-1 9 3h2l-3-10-10-7-1-4-5 1-5-2-2-3-7-1-3-3-2-5-5-3-1-1v-5l8-4 4-8 14 1 7 1 4 4h10l-1-6-8-5-2-5 2-4-8-4-3-4-1-3-8-3-2-3 1-7 1-4-6-4-1-1v-8l4-4 6 2 5 3 3-3h6l5 7 7 2 3 5v5l9 4 4 5 1 6 7 1 4 5 2 11 7-1 7 2-1-10 5-6v-11l5-6v-7l7-9 3-7 2-2h5l4-5zm-44 102-1 1 1 8 3 3 4-2 5-3v-2l-9-5zm44 16-5 5-4 1-4-1-4 7 1 3h10l6-10 3-3v-2zm41 36-7 3-3 1 1 11 2 4 5-1 4-10v-6zm-69 13v13l5 1 5 2 5 3 4-1v-5l-4-5-2-4-9-4zm40 22v3l8 9 3 5 3 3 2 4h3l-1-9-9-11-5-4z" fill="#06B195"/>
<path transform="translate(1102,760)" d="m0 0 2 1h124l2 1h86l111 1 1 1 1 52-2 2h-66v3h-429l-1-2-71-1-1-1v-53l1-1 105-1h111l3-1z" fill="#00B697"/>
<path transform="translate(162,1111)" d="m0 0h17l18 6 10 6 13 11 9 10 10 15 8 16 9 23 6 21 4 19 4 29 1 20v43l-1 19-5 35-6 25-6 17-8 20-8 14-10 14-5 6-8 7-9 7-13 6-8 3-4-1 1-5 8-8 7-12 9-24 6-18 7-34 5-32 4-49v-28l-4-45-7-44-6-24-11-31-8-15-9-10-10-4-9 2-10 9-9 15-7 16-6 19-7 29-4 21-4 36-1 20v42l1 20 4 36 7 36 7 28 7 20 9 17 9 11 1 7-8-2-9-4-10-6-11-9-10-12-10-15-8-16-8-19-7-26-5-22-2-15-2-12-1-27v-20l1-28 4-27 6-26 7-25 12-27 8-13 13-17 10-9 12-8 13-5z" fill="#FDFDFD"/>
<path transform="translate(118,711)" d="m0 0h27l31 1 6 5 2 4v268l-2 1-1 9h-99v-250l1-35 4-2z" fill="#B62DB8"/>
<path transform="translate(374,1110)" d="m0 0h28l22 1 15 4 12 6 13 10 12 12 7 10 8 14 7 16 5 18 3 14 3 26v18l-1 7-2 25-5 20-8 23-8 14-12 14-14 11-10 6-21 8-14 3-9 1-22 1-6 1 7 9 8 7 15 14 7 7 8 7 16 15 8 7 13 12 7 7 8 7 9 9 8 7 1 7-1 1h-7l-8-4-11-10-8-7-15-14-20-18-8-7-10-9-15-14-12-11-13-10h-2l-1 100-2 1-36 1-9-1-1-1v-394zm-11 9-2 4v258l1 1 7 1h22l21-1 15-4 12-6 13-10 7-7 7-10 8-16 5-21 3-23 2-29v-9l-4-40-4-22-5-15-9-17-10-14-9-8-11-7-9-3-12-2z" fill="#FDFDFD"/>
<path transform="translate(1046,1112)" d="m0 0h10l5 6 18 34 17 33 12 22 20 39 11 20 8 16 14 27 24 46 12 22 7 6v-270l1-1h12l1 1v385l-1 1-10 1-5-3-7-11-15-26-15-27-9-16-13-23-14-25-13-23-13-24-9-16-13-23-11-20-9-10-1 13-1 237h-14v-390z" fill="#FDFDFD"/>
<path transform="translate(1394,1110)" d="m0 0h174l16 1-2 10-10 23-7 16-7 14-15 33-11 23-7 16-7 15-18 38-11 24-9 19-15 33-17 36-13 28-15 32-7 17 1 1 168 1 3 1v13l-19 1h-219l-2-1 1-6 13-27 13-28 17-35 9-19 7-15 18-37 11-23 14-29 12-25 17-36 20-41 11-24 7-15 8-18-159-1-5-1-1-4v-7l1-2z" fill="#FDFDFD"/>
<path transform="translate(1492,780)" d="m0 0h50l299 1 1 1v200l-21 1h-15l-1-1v-32l1-4 6-2-6-1-1-11 1-22 1-1 16-1-1-1-16-1v-36l16-1-1-2-14-1-1-1v-31l1-3 14-1v-3h-15-2l-3 1h-14l-3-1 2-7 4-4v-5l-9-1-2 11h3l1 5-2 1h-14l-1-7v-11h-2v10l-2 8-1 1h-31l-2-4v-14h-2v10l-2 7-1 1h-37l-2-6v-15h-2l-2 20-2 1h-27l-2-1-1-4v-16l-3 2v18l-1 1h-35l-2-7v-14l-2 1-1 20h-35l-1-2-1-18-2 3v12l-1 4-2 1h-48v3h11l1 1v31l-1 3h-12v2l12 1v37l-10 2 10 1v32l-5 2 5 2 1 36 1-36 4-1 34 1v39h-72l-2-6v-197z" fill="#FEF4DA"/>
<path transform="translate(878,1110)" d="m0 0h29l14 1 3 7 11 47 8 30 9 39 10 38 7 30 9 36 8 34 7 26 9 38 7 26 5 24 3 13v5l-3 1h-47l-3-2-8-34-6-22-5-23-7-30h-118l-11 50-7 30-5 24-3 6h-8l-1-1 1-12 6-26 9-40 6-26 8-35 9-41 9-40 9-39 7-32 3-15 9-37 10-48zm-2 35-3 12-3 10-13 62-8 33-8 36-9 39-8 37v3h109l-1-10-15-61-8-36-7-26-8-37-8-30-6-26-2-5z" fill="#FDFDFD"/>
<path transform="translate(1660,1110)" d="m0 0h144l7 2v7l-2 6-117 2h-29l-1 245 13-1h98l1 7-2 7-29 1-49 1-31 1v98h150l2 1v16l-1 1-155 1h-41l-5-2v-392z" fill="#FDFDFD"/>
<path transform="translate(641,1110)" d="m0 0h41l12 3 16 8 11 7 13 12 9 10 14 19 2 5h-17l-11-15-9-10-8-8-15-10-12-7-14-5-7-1h-8l-12 3-11 7-8 8-9 14-8 15-6 15-9 30-5 25-3 24-1 10-1 28v16l1 25 3 29 5 27 6 21 7 21 12 25 8 11 8 8 9 6 8 3 13 1 11-2 14-5 14-8 10-8 4-2v-2l5-5 10-11 12-18 14-25 6-12 2-7h-107l-2-1v-13h119v16l-4 17-6 15-8 16-11 16-8 10-6 7-8 7-12 9-12 7-18 6-18 3h-12l-17-3-16-6-16-10-10-8-14-14-11-16-12-21-11-27-5-15-4-21-3-17-1-17v-43l1-16 2-9 3-19 3-14 10-27 9-19 13-22 9-10 7-8 10-9 15-10 18-8z" fill="#FDFDFD"/>
<path transform="translate(1142,925)" d="m0 0h165l93 1 1 1 1 27v24l-2 1h-391v-50l1-2 5-1z" fill="#FF69AC"/>
<path transform="translate(949,838)" d="m0 0h400l1 4v44l-1 1h-350l-51 1v-48z" fill="#E3A3D9"/>
<path transform="translate(1843,1111)" d="m0 0h44l4 2v390l-4 1h-43l-1-1-1-14v-345z" fill="#FDFDFD"/>
<path transform="translate(1270,1111)" d="m0 0h46l2 2v390l-1 1h-47l-1-4v-387z" fill="#FDFDFD"/>
<path transform="translate(1091,495)" d="m0 0h121l5 3 7 15 23 7 9 3 5-2 4-3h5l1 4-6 9 2 7 5 10 1 4v15l-4 12-6 10-5-3-15-14-2-1v-2l-4-2-3-2-7 1-2 5 5 9 7 11 7 17 5 17v23l-6 21-6 15-8 12-11 12-4 5-1 4 5 12 8 16 3 8v8h-25l-5-15-8-16-3-1-21 5h-31l-12-3-7-1-2 5-11 24-2 2h-23v-9l14-27 1-9-7-7-7-6-10-13-8-15-4-13-3-14v-20l5-22 4-11 6-11 7-10 1-6v-2l-9-1-8 6-13 12-6 4-5-6-6-12-1-11 2-12 6-11-1-7-4-5 1-5h5l5 4h6l16-7 11-1 2-1 7-14zm2 6-6 7-1 7 9 4 9 6 1 4-5 6-8 7-11 11-1 5 4 4h5l10-7 16-8 15-5 13-2h17l16 3 18 7 12 6 10 7 4-1 3-3-1-5-16-16-5-4-2-5 5-6 14-7 1-3-5-10-3-2zm49 56-9 1-13 4-6 4-9 5v2l-5 2v2l-4 2v2l-3 1-1 4-4 2-6 8-5 10-5 15-1 15 1 15 5 17 6 11 9 13h2l2 4 5 4 3 3 6 3 1 2 8 4 14 4 13 2h17l16-4 11-4 12-8 4-3v-2l4-2v-2h2l9-14 6-12 5-20 1-15-4-20-4-10-5-9-6-8h-2l-2-4-7-6h-2v-2l-13-8-17-6-14-2z" fill="#FE6AAC"/>
<path transform="translate(509,870)" d="m0 0h99l50 1 1 3-10 42-9 32-10 42-2 9h-109l-4-3-7-30-9-36-8-30-5-22v-7h19z" fill="#632E04"/>
<path transform="translate(932,821)" d="m0 0h429v84l-14 1h-415zm17 17-1 2v48l66-1h335l1-1v-47l-1-1z" fill="#B72FB8"/>
<path transform="translate(1505,762)" d="m0 0h327l23 1 5 17 9 34 11 44 10 37 6 25 9 34 7 29 1 8-1 8h-8v-3l-3-2-35-1-9-1-3-5-1-11v-80l-1-29v-30l1-31-2-19-1-6h-308l-54-1-1 4h-5l-1 44-1 118h-1v-159l1-23 1-1z" fill="#FBCCBE"/>
<path transform="translate(553,646)" d="m0 0 6 2 2 4v21l-3 3-2 1-1 10-5 4-2 9-3 5-2 10-1 6 10 6 12 9 1 3v11l3 1 3-2 5 1 1 1 1 15 3 5 6 4-2 5-4 4-7 1-8-15-7-9-1-4 2-5-5 4h-3v8 3l-5 4-7-1-3 6v2h10l5-9 4-1 7 9 6 11 2 2 4 15 3 6 3 7 7 6h3l2-4h2l1-7 4-3 3-14 2-4v-4l11 1-1 8v6l-10 18-4 5-3 5-7 4h-4v2h-5l-8-8-8-11-5-5-12-11-12-8-16-5-1-1v-7l6-10 7-9 13-13 4-3h2v-2h2v-6l-6 2-10 9-4 5-5 5-8 11-7 8-2 4-3 1-2-4h-2l-6-11-9-11-8-9-10-8-7-5-22-7h-4l1 3 8 4 14 5 9 6 9 8 7 9 5 5 7 12 5 6 4 9 3 12 7 14-1 4h-3l-5-5-1-3-4-2v-2l-4-2-6-9-8-7-9-7-24-12 3-5 3-3 11 3h2l-3-10-10-7-1-4-5 1-5-2-2-3-7-1-3-3-2-5-5-3-1-1v-5l8-4 4-8 14 1 7 1 4 4h10l-1-6-8-5-2-5 2-4-8-4-3-4-1-3-8-3-2-3 1-7 1-4-6-4-1-1v-8l4-4 6 2 5 3 3-3h6l5 7 7 2 3 5v5l9 4 4 5 1 6 7 1 4 5 2 11 7-1 7 2-1-10 5-6v-11l5-6v-7l7-9 3-7 2-2h5l4-5zm-44 102-1 1 1 8 3 3 4-2 5-3v-2l-9-5z" fill="#FDCE14"/>
<path transform="translate(724,595)" d="m0 0h102l3 1 1 37v365l-3 1-70 1h-24l-6-1-2 1h-8v-1h5v-375l1-28zm13 15-2 1-1 4v35l-1 34v81l1 26-1 7v40l1 43v97l4 4 15 1h25l37-1 4-4 1-16 1-20v-126l-1-14-2-18 1-40 1-8v-114l-2-10-3-2z" fill="#FC6F72"/>
<path transform="translate(1481,780)" d="m0 0 1 4 5-1 1-3 4 1v197l1 5h33l39 1-1-19 1-20h-34v-1l39-1h34l2 4-1 8h-1v-10h-37v38h63v1l-36 1-59 1h196l45-1h-81v-1l5-1h64v-7h2v7h36v-17l1-14 2-1 1 31h36l-1-200-50-1v-1h56l3 1 2 6 2 23-1 28v35l1 33v76l3 9 11 1 33 1 5 5-2 1-11 1h-407l-3-1-3-10-1-43 1-118z" fill="#FCE3C4"/>
<path transform="translate(1254,762)" d="m0 0h62l111 1 1 1 1 52-2 2h-67v2h-136l-1-4 7-3h5v-9l-1-1v-17l-1-12 2-6 4-3z" fill="#00CF99"/>
<path transform="translate(581,650)" d="m0 0 5 2 3 3v2l10 2 3 8 5 4 3 11 4 5-1 8 5 5 5 6h5l6-8 6-4h5l1-6 5-5 6-1 1-6 2-4 8-4 6-6h13l7-1 3 3 1 7-2 4-7 2 2 3 1 7-3 3-7 2-3 6-7 3h-2l2 5-1 4-4 3-6 2v5l4 2h5l9-6 8 1 6-2 5 3 7 8 2 1v5l-6 7-4 4-8 2-5 3-7 1-5 5-6 3-5 8-1 3 5 2h6l5-6h4l2 6h10l3 3v7l-4 3-5 2-3 7-9 2-6 5-7 2-2 4-12 9-5 1 1 7-3 5-5 1-4-3-8-1-3 11-5 5-5 2-3 9-7 2-3-4v-6l7-8h2l2-5 7-11 6-8 6-12 1-1 1-13 3-6 9-10h2l2-4 7-8h2l2-4 9-8 10-6 9-4 11-3 4-4-4-1-19 5-12 7-9 8-5 5-5 6-5 5-6 8-5 8-4-1-1-7-5-2-9-12-8-9-2-1v-2h-3v-2l-6-2-6-5-4-2 1-4 4-1h12l2-9-3-1-6-14-3-4-3-9-4-6-1-7-4-2-2-4 1-2v-15l4-5z" fill="#FCD326"/>
<path transform="translate(118,711)" d="m0 0h27l31 1 6 5 2 4v268l-2 1-1 9h-99v-250l1-35 4-2zm-25 21-2 50v99l1 69 1 26 2 1h77v-243l-1-2z" fill="#E2A0D9"/>
<path transform="translate(217,845)" d="m0 0h73l1 1v126l-1 1h-72l-1-1-1-126z" fill="#FF9C08"/>
<path transform="translate(1764,809)" d="m0 0h2l1 18 16-1-1-5h-3v-7l2-4 5-1 5 2-1 7-4 4-2 5h17l3-1 2-4v5h15l1 3-1 1h-14v34l14 1 1 3-2 1h-14v36h16l2 2-1 1h-16l-2-2-1-4-1 35-1 5h-32l-3-1-1-24-3 1v22l-1 1h-33v-33l3-2-5-3 1-35 16-1h16 3l-30-1-5-1-1-14-1 14-1 1h-36v-1l34-1 1-4v-29l-28 1h-11v15h-1l-1-13-2 26h-1v-28h-2v-2h3v2h3l1-5-2-1 2-4 1 4h37l2-7 1-10h2l1 14 1 4 31-1 2-8v-7z" fill="#FCE2C3"/>
<path transform="translate(110,755)" d="m0 0h45l1 35v162h-19l-27-1-1-12v-183z" fill="#B62DB8"/>
<path transform="translate(356,517)" d="m0 0h21l3 3v334l-1 1h-23l-2-1v-335z" fill="#026E99"/>
<path transform="translate(965,762)" d="m0 0h11l21 2 3 1v2l8 1 6 5 1 6 1 10 4 9v3h-2v3h-2l-1 6 5 5v4l-5 1h-82l-2-1-71-1-1-1v-53l1-1z" fill="#00D099"/>
<path transform="translate(1053,851)" d="m0 0h21l57 1h203v12l-1 10-30 2h-93l-4-1-14 1h-5v-2l-5 2-5-1-4 1h-189l-15-1-5-3-1-7 1-11 1-1 29-1z" fill="#DE95DB"/>
<path transform="translate(332,479)" d="m0 0h71l2 4v516l-1 1h-73l-1-52v-103l1-365zm5 21-1 1-1 63v309l1 108 2 2 9 1h51l1-10v-450l-1-22-2-2z" fill="#07739B"/>
<path transform="translate(740,793)" d="m0 0 4 4 6 24 6 28 6 25 6 29 5 21 5 2h2l6-36 4-15 7-28 3-14 5-22 4-14 3-2 2 5 1 6v136l-1 2-6 1h-68l-2-2-1-136v-7l2-6z" fill="#FD6F72"/>
<path transform="translate(773,670)" d="m0 0h6l3 4 3 15 7 30 7 28 4 21v15l-3 16-9 37-6 24-4 18-3 6-4-1-3-5-3-12-9-40-6-27-3-15v-20l6-27 6-24 6-26 3-14z" fill="#FC6F71"/>
<path transform="translate(766,614)" d="m0 0h42l6 1 1 9 1 46v38l-1 40-1 11-2 1-6-15-6-23-5-26-7-32-6-30-3-7-5 1-3 7-11 50-8 34-4 20-5 17h-4l-1-2-1-21v-93l1-19 1-5 2-1z" fill="#FC6F71"/>
<path transform="translate(1355,821)" d="m0 0h6v7h-1v-5l-2 1-2 4h-6l2 3h4l1 6 2 1-1 13-2 2v36l-1 4-3 1h-18v-2h-2l-1 2h-10-4l-11-1v-2l-8 1h-22l-7-1h-12l-6-1-16 1-2-1-4 1h-44l-5-1h-8l-7 1-1-1-18 1h-17l-6-1-1 2-16-1h-20l-2-1-5 1h-23l-21 1h-12l-11 1-2 1h-16l-2-1-6 1h-6l-1-1-31-1-2-3-1-13 1-2h-2v-12l-1-4 1-3-1-7v-10l-1-1 1-4 4-4 5 1 4 1v-2h2v2l6-1h9l5 2v-2h18l3-1 7 1 4-1 18 2 1-2 10 1 3-1 6 2v-2l5 1h3l7-1 4 2 7-2 5 1 9-1 5 1 2-1 8 1 5-1 17 1h3 13l3-1 3 2h5l1-2 8 1h3v2l2-1h7v-2l4 1v2l7-1 1 1 2-2h50l3-1 1 2 10-1 7 1 1-2 3 2 8-2v4l5-1h4l2 1 1-3 5 1 4-1 3 1h6v-2l7 2 1 1 1-2 8 1v-2l4-1v3l5-1 1-3h3l1 3 5-1 2-3h5l1-1-4-1-13-1v-1zm-406 17-1 2v48l66-1h335l1-1v-47l-1-1z" fill="#CC42BE"/>
<path transform="translate(388,860)" d="m0 0 2 1 1 13v103l-1 1h-23l-23-1-1-1v-112l1-3h38z" fill="#026E99"/>
<path transform="translate(581,650)" d="m0 0 5 2 3 3v2l10 2 3 8 5 4 3 11 4 5-1 8 5 5 5 6h5l6-8 6-4h5l1-6 5-5 6-1 1-6 2-4 8-4 6-6h13l7-1 1 2-10 2 1 6 2 3v4l-7 4-10 8-7 8h-2l-2 4-9 13-7 12-4 8-6 16-7 11-1 8-4 1-5-5-8-10-7-8-2-1v-2h-3v-2l-6-2-6-5-4-2 1-4 4-1h12l2-9-3-1-6-14-3-4-3-9-4-6-1-7-4-2-2-4 1-2v-15l4-5z" fill="#FCD11B"/>
<path transform="translate(1e3 921)" d="m0 0h402v63l-5 2h-388l-9-1zm138 4-127 1-5 1-1 2v50h391l2-1v-24l-1-27-1-1-113-1z" fill="#D41167"/>
<path transform="translate(118,711)" d="m0 0h27l31 1 6 5 2 4v268l-2 1-1 9h-99v-250l1-35 4-2zm-32 13-1 1v198l1 60 1 1 49 1h39l5-2v-250l-1-9z" fill="#CC44BE"/>
<path transform="translate(534,706)" d="m0 0h8l1 4-1 4v7l10 6 12 9 1 3v11l3 1 3-2 5 1 1 1 1 15 3 5 6 4-2 5-4 4-7 1-8-15-7-9-1-4 2-5-5 4h-3v8 3l-5 4-7-1-3 6v2h10l5-9 4-1 7 9 6 11 2 2 4 15 3 6 3 7 7 6h3l2-4h2l1-7 4-3 3-14 2-4v-4l11 1-1 8v6l-10 18-4 5-3 5-7 4h-4v2h-5l-8-8-8-11-5-5-12-11-12-8-16-5-1-1v-7l6-10 7-9 13-13 4-3h2v-2h2v-6l-6 2-10 9-4 5-5 5-8 11-7 8-2 4-3 1-2-4h-2l-6-11v-5l6-3 6 3 4 1h2l-2-6 3-3h3l2-8 1-9h13l-3-5-5-4-1-2v-7l5-13z" fill="#FED015"/>
<path transform="translate(1309,841)" d="m0 0 8 1 3-1h27v44h-394l-1-5 1-23 1-9 3-3 16-3h19l15 4v3l-20 2-23 1-1 8v10l1 5 15 1 55 1h252l48-2v-23l-62-2-8-2v-2l2-1 31-3z" fill="#FCCCBE"/>
<path transform="translate(1091,495)" d="m0 0h121l5 3 7 15 23 7 9 3 5-2 4-3h5l1 4-6 9 2 7 5 10 1 4v15l-4 12-6 10-5-3-15-14-2-1v-2l-4-2-3-2-7 1-3 3-6-5 4-5-1-5-15-15-6-5-2-5 6-7 14-7-3-9-4-4h-118l-6 8-1 5-1-2h-5l1-5 6-10z" fill="#FE6AAC"/>
<path transform="translate(1355,763)" d="m0 0h72l1 1 1 52-2 2h-66l1-9v-37l-2-5-5-2z" fill="#00B697"/>
<path transform="translate(104,748)" d="m0 0h57l1 2v206l-1 2-4 1h-53l-2-2v-192l1-16zm6 7-1 5v185l1 6 27 1h19v-162l-1-35z" fill="#FCCCBE"/>
<path transform="translate(553,646)" d="m0 0 6 2 2 4v21l-3 3-2 1-1 10-5 4-2 9-3 5-2 10-2 2 1-10h-8l-5 13v7l8 8 1 4-14-1v9l-2 6-4-1-6-3h-3l1 10h6l1 5-5 1-3-3v-3h-2l-4-7-7-17-4-9-5-9-2-3v-3h-2l-4-6-2-1-4-7-11-13-11-10-1-4 6-3 2 4 4 2 9 8 10 13 9 13 1 4 6 1 3-1v-2l2-1 1-5h1l1 7 7-1 7 2-1-10 5-6v-11l5-6v-7l7-9 3-7 2-2h5l4-5z" fill="#FAD32C"/>
<path transform="translate(253,851)" d="m0 0 3 3 10 23 9 16 6 13v7l-9 17-10 21-6 13-2 3h-2l-11-25-10-19-5-11 1-9 8-16 11-21z" fill="#D31766"/>
<path transform="translate(1079,513)" d="m0 0h6v2l10 3 9 6 2 2-1 5-16 15-7 7-1 5 3 3 4 2-5 2-2 2-12-2-8 6-13 12-6 4-5-6-6-12-1-11 2-12 6-11-1-7-4-5 1-5h5l5 4h6l16-7 11-1z" fill="#FE6AAC"/>
<path transform="translate(217,838)" d="m0 0h77l3 2 1 35v101l-1 4-2 1h-84l-1-1-1-18v-73l1-50zm0 7-1 1 1 126 1 1h72l1-1v-126l-1-1z" fill="#D42963"/>
<path transform="translate(222,626)" d="m0 0h73l2 3v31l-2 1h-83l-2-2v-32z" fill="#D42264"/>
<path transform="translate(1686,944)" d="m0 0h33l6 1 1 26 1 10 1-23v-12l1-1h34l1 38-81 1-1-3 1-35z" fill="#FFF5DB"/>
<path transform="translate(1567,945)" d="m0 0h37l1 13v24h2v-31l1-6h33l4 3v35l-6 1h-72l-1-3z" fill="#FEF4DA"/>
<path transform="translate(1505,762)" d="m0 0h327l23 1 2 6v6l-13-4h-303l-40-2-10-2h-9l-1 7h-1v-10l1-1z" fill="#F98EAA"/>
<path transform="translate(860,763)" d="m0 0h52l-1 2h-2l-2 5v26l-1 13v8l-3 1h-43l-1-1v-53z" fill="#00B697"/>
<path transform="translate(1566,834)" d="m0 0h1l1 26 1 5 19 1 3 3h-23l-1 37h37l-1-37-5-1v-1h11l13 1v1h-14v28l-1 9h6v1l-5 1-1 33h7 2 21l10 1v1l-18 1h-22l1 9-1 29h-2l-1-26 1-10-1-2h-39l-38 1v36l-2 1v-37l-8-1 3-2 4-1 1-18 2-4v23l37-1v-29l-5-3-20-1v-1h25v-36l-6-2-5-1h-12l-9-1v-1l31-1 2-10z" fill="#FCD0BE"/>
<path transform="translate(1143,554)" d="m0 0h22l15 3 16 8 6 4 10 8 7 8v2l3 1 9 17 4 13 1 9v24l-4 16-8 16-9 10-6 7-15 11-19 9-15 3h-12l-16-1-12-4-11-6-5-2-15-12-4-6-6-7-1-5h-2l-6-13-4-16-1-18 1-12 4-9 3-9 6-10 5-6 2-4 4-4h2v-2l10-8 8-6 8-4 12-3zm-1 3-9 1-13 4-6 4-9 5v2l-5 2v2l-4 2v2l-3 1-1 4-4 2-6 8-5 10-5 15-1 15 1 15 5 17 6 11 9 13h2l2 4 5 4 3 3 6 3 1 2 8 4 14 4 13 2h17l16-4 11-4 12-8 4-3v-2l4-2v-2h2l9-14 6-12 5-20 1-15-4-20-4-10-5-9-6-8h-2l-2-4-7-6h-2v-2l-13-8-17-6-14-2z" fill="#FA93A8"/>
<path transform="translate(218,677)" d="m0 0h71l2 3v25l-1 2-14 1h-54l-5-1-1-7 1-22z" fill="#FF9C08"/>
<path transform="translate(101,798)" d="m0 0h1l1 159 1 1h55l7 1 1-3 3-1 1 3 1 19-24-1-49-1-5-6v-13l1-16 1-114v-7h2l-1-3 2-17z" fill="#B62DB8"/>
<path transform="translate(690,663)" d="m0 0h6l2 4-1 6-3 3-5 1 2 3 1 7-3 3-7 2-3 6-7 3h-2l2 5-1 4-4 3-6 2v5l4 2h5l9-6 8 1 6-2 5 3 7 8 2 1v5l-3-1-2-2-3-1-4-1-19 5-12 7-9 8-5 5-5 6-5 5-6 8-5 8-4-1-1-7 1-5 3-7 5-8 6-16 4-8 9-15 10-14h2l2-4 8-8 11-8h3l-4-11 1-2z" fill="#FDD42B"/>
<path transform="translate(775,626)" d="m0 0 5 1 4 11 7 36 7 32 2 9v7l-2-4-4-19-2-10-7-31-1-1v16l6 31 12 48 3 17v14l-5 23-8 32-10 42-1 8 2 7 2-10 3-9 2-1-1 8-4 18-4 23-3 3-5-2-3-8-5-25v-3h2l2 7v-8l1-5-4-19-2-10-7-29-7-32-2-8v-18l3-16 7-32 3-11 7-34 1-3v-7l-4-1 1-9 4-19 3-7zm-2 44-2 3-7 31-9 37-5 23v20l8 39 7 30 5 23 3 6 2 2 4-1 4-13 7-31 5-19 6-24 2-13v-15l-5-26-11-43-5-25-3-4z" fill="#F993A8"/>
<path transform="translate(741,949)" d="m0 0h64l9 1v24l-2 3-32 1h-17l-18-1-6-2-1-3v-22z" fill="#FD6F72"/>
<path transform="translate(593,708)" d="m0 0 2 4 2 7 4 1-3 9-3 1h-11l-3 3 1 6 8 7 10 8 8 9 8 11 3 6-1 7-2 2h-10l-1 5-2 5-2 11-5 5-1 5h-2l-2 5-5-1-1-3-4-2-3-4-3-9-3-7-2-9-7-10-4-7-5-6 2-3-4 1-1-1v-8l5-2 5-3-1 4-1 5 6 7 4 6 5 10v2l9-3 4-6h3l2-5h7l-1-5-7-8-17-17-2-6 1-3 13-5 10-1 1-3-5-9v-5zm1 92-7 3-3 1 1 11 2 4 5-1 4-10v-6z" fill="#FED31E"/>
<path transform="translate(171,734)" d="m0 0h1v238h-1l-1-14-1-2-3 3h-7l2-1v-209h2l6 6 1 16z" fill="#C53DC0"/>
<path transform="translate(434,725)" d="m0 0 5 2 1 4 8 4 14 5 9 6 9 8 7 9 5 5 7 12 5 6 4 9 3 12 7 14-1 4h-3l-5-5-1-3-4-2v-2l-4-2-6-9-8-7-9-7-24-12 3-5 3-3 11 3h2l-3-10-10-7-1-4-5 1-5-2-2-3-7-1-3-3-2-5-5-3-1-1v-5z" fill="#F9D02A"/>
<path transform="translate(553,768)" d="m0 0 4 1 6 8 6 11 2 2 4 15 3 6 3 7 7 6h3l2-4h2l1-7 4-3 3-14 2-4v-4l11 1-1 8v6l-10 18-4 5-3 5-7 4h-4v2h-5l-8-8-8-11-5-5-12-11-12-8-10-4 6-10 4-2h10l5-9z" fill="#FED624"/>
<path transform="translate(177,727)" d="m0 0h1v27l-2 66v32l1 15v30l1 42 1 3v42l-4 1h-39l-46-1-3-2v-17h1v7h2l1 6h81v-245h1l1 11 2-15z" fill="#E2A0DA"/>
<path transform="translate(523,796)" d="m0 0 9 1 8 6 5 4 8 7 5 6 6 5 6 9-1 2-4 1 9 10 3 5 3 3 3 11v2l5 1v1h-15l-4-6-7-6-12-9-13-6-2-2-4-1v-2l-4-2-1-1 1-7 5-2 5 4 7 1-2-6-4-6v-2l-9-3-4-2v-3l-4-8 1-4z" fill="#FDE3C6"/>
<path transform="translate(269,669)" d="m0 0h13l14 1 1 1 1 37-2 6-2 1h-83l-1-1v-43l1-1zm-51 8-1 1-1 24 1 5 5 1h54l14-1 1-2v-25l-2-3z" fill="#D42265"/>
<path transform="translate(949,838)" d="m0 0h389v1l-65 1-275 1-36-1-7 2-3 1v33l1 8h359l36 1-1-45-7-1v-1h9l1 4v44l-1 1h-350l-51 1v-48z" fill="#E19EDA"/>
<path transform="translate(1401,763)" d="m0 0h26l1 1 1 52-2 2h-25l-4-1-1-8v-40z" fill="#00CF98"/>
<path transform="translate(202,607)" d="m0 0h98l6 2v51h-1l-1-5v-43l-1-1-100-1-1 2v382l-3 3v-385l1-4z" fill="#B95297"/>
<path transform="translate(893,925)" d="m0 0 15 1 3 1 1 3v48l-2 1h-26v-51l3-2z" fill="#FF69AC"/>
<path transform="translate(219,633)" d="m0 0h68l3 1 1 2v16l-1 1-34 1h-25l-15-1v-18z" fill="#FF9C08"/>
<path transform="translate(1685,870)" d="m0 0h39l1 1v30l-2 4-2 1h-35l-2-1v-33z" fill="#FFF5DB"/>
<path transform="translate(1608,945)" d="m0 0h33l4 3v35l-6 1-33-1 1-32z" fill="#FFF5DB"/>
<path transform="translate(934,926)" d="m0 0h22l1 1v51l-1 1h-24l-3-1v-44l2-6z" fill="#FF69AC"/>
<path transform="translate(161,750)" d="m0 0h1v206l-1 2-4 1h-53l-2-2v-192l1-14h1v201l1 4 6-2 2-1-5-2v-185l1-6h1v191h27l14 1v1l-6 1 5 2 10 1v-190z" fill="#E09BD9"/>
<path transform="translate(1568,869)" d="m0 0h36v37h-37v-32z" fill="#FFF5DB"/>
<path transform="translate(1769,945)" d="m0 0h33l1 6v30l-1 2h-36l1-37z" fill="#FFF5DB"/>
<path transform="translate(1528,869)" d="m0 0h35l2 2v29l-1 6h-37z" fill="#FFF5DB"/>
<path transform="translate(1687,832)" d="m0 0h37l1 2v27l-2 5h-36l-2-1-1-3v-14l1-15z" fill="#FFF5DB"/>
<path transform="translate(1608,869)" d="m0 0h26l10 1 1 2v30l-2 4h-36z" fill="#FFF5DB"/>
<path transform="translate(1650,944)" d="m0 0h26l5 3v37h-34l-1-4 1-35z" fill="#FFF5DB"/>
<path transform="translate(93,732)" d="m0 0h1l1 14 1 3 2 5 1 3 2 8v34h-2v10l-1 10h-2l1 7-1 114-1 16v13l3 3 1 2 51 1 20 1v1h-75l-2-1-1-26-1-85v-83z" fill="#C53DC0"/>
<path transform="translate(1791,869)" d="m0 0h9l3 1v31l-2 5h-33l-1-1v-34l1-1z" fill="#FFF5DB"/>
<path transform="translate(1719,909)" d="m0 0 6 1v31h-42v-20l1-10 2-1z" fill="#FFF5DB"/>
<path transform="translate(689,661)" d="m0 0h5l1 2-10 2 1 6 2 3v4l-7 4-10 8-7 8h-2l-2 4-9 13-7 12-4 8-6 16-9 14h-2v-6l3-3 3-10 3-1 1-4 2-4 2-7 4-10 5-8 2-6v-6l-2-3-7 1-3 1v2l-5 5-3 4h-5l-3-3 1-3 2 2h5l6-8 6-4h5l1-6 5-5 6-1 1-6 2-4 8-4 6-6h13z" fill="#FED91B"/>
<path transform="translate(724,595)" d="m0 0h102l3 1 1 37v278l-2-1-1-95v-211l-1-3h-10l-5-2h-87l1 41v149l-1 21h-1l-1-54v-132l1-28z" fill="#FD6CAE"/>
<path transform="translate(364,887)" d="m0 0 4 1 8 14 6 14v9l-8 16-5 9-2 2-4-1-5-11-7-14-2-3v-8l6-10 8-17z" fill="#FB9B0B"/>
<path transform="translate(783,655)" d="m0 0 3 3 5 22 3 17 3 12 2 9v4h2l2 13 5 17 2 12v13l-2 19-5 18-5 22-5 23-7 26-3 12-2-4-1-7 8-36 11-44 5-23v-14l-4-21-6-24-8-34-3-17z" fill="#E3A2D9"/>
<path transform="translate(1529,831)" d="m0 0h20l16 1v28l-2 6h-35v-34z" fill="#FFF5DB"/>
<path transform="translate(1792,831)" d="m0 0h11l1 2v19l-1 13-1 1h-34l-1-1v-32l1-1z" fill="#FFF5DB"/>
<path transform="translate(84,725)" d="m0 0h1l1 39v159l1 61h-3l-1 11h63l34 1 1-2v5h-99v-250l1-18z" fill="#CE46BD"/>
<path transform="translate(767,662)" d="m0 0 3 2v7l-7 31-3 14-6 25-4 19-1 7v18l7 30 9 39 2 10 4 21-1 4v10l-2-3-9-37-4-18-8-38-6-24v-8l5-21 3-13 3-12 3-15 9-37 2-10z" fill="#E2A2DA"/>
<path transform="translate(1608,832)" d="m0 0h35l2 3v25l-2 6h-34l-1-1z" fill="#FFF5DB"/>
<path transform="translate(1568,832)" d="m0 0h37l-1 33-1 1h-34l-2-7z" fill="#FFF5DB"/>
<path transform="translate(1941 1e3)" d="m0 0h6l2 1v67l-2 3-3 1h-321l-392-1v-1l714-1 1-12v-56h-5z" fill="#D078A9"/>
<path transform="translate(1746,869)" d="m0 0h10l6 1 1 2v27l-2 6-1 1h-31v-36z" fill="#FFF5DB"/>
<path transform="translate(118,711)" d="m0 0h27l31 1 6 5 1 2v7l-9-1h-90v6h-1v-17l4-2z" fill="#B730B9"/>
<path transform="translate(1568,909)" d="m0 0h35l1 1v31l-9 1-24 1-5-2 1-31z" fill="#FFF5DB"/>
<path transform="translate(1528,909)" d="m0 0h33l4 3v12l-1 17-5 1-29 1-3-1v-15z" fill="#FFF5DB"/>
<path transform="translate(1608,909)" d="m0 0h21l14 1 2 3v25l-1 3-9 1h-18v1h-6l-4-2v-20z" fill="#FFF5DB"/>
<path transform="translate(1769,909)" d="m0 0h33l1 1v28l-1 5h-32l-3-1v-32z" fill="#FFF5DB"/>
<path transform="translate(305,680)" d="m0 0h1l1 135v173l-2 10-1 1-53 1h-48l-4-1 1-10h1l1 5 101-1 1-11v-286z" fill="#C47C7B"/>
<path transform="translate(92,732)" d="m0 0h1v23l-1 27v99l1 69v26l79 1v1h-81l-1-6h-2v10l2 2-4-1-1-60v-114l1-24h1l1 54 1 1 1-72z" fill="#DE95DA"/>
<path transform="translate(1729,832)" d="m0 0h33l1 1v30l-1 3h-33z" fill="#FFF5DB"/>
<path transform="translate(1649,870)" d="m0 0h30l1 1v33l-4 2h-27l-1-1v-21z" fill="#FFF5DB"/>
<path transform="translate(1731,909)" d="m0 0h30l2 2v30l-1 1h-33v-32z" fill="#FFF5DB"/>
<path transform="translate(182,980)" d="m0 0h1v9l-3 7h-78l-19-1v-13l1 2h91l6-1z" fill="#B82FB8"/>
<path transform="translate(392,891)" d="m0 0h2l1 22 2 2 1 6 1 55-1 8h-51l-9-3-1-2v-54h4l1 3v44l2 4 23 1h23z" fill="#CD875A"/>
<path transform="translate(1649,832)" d="m0 0h29l2 1 1 3v12l-1 17-9 1h-19l-3-2z" fill="#FFF5DB"/>
<path transform="translate(1210,716)" d="m0 0 3 1 5 12 8 16 3 8v8h-25l-5-15-9-18 7-4 5-3z" fill="#F993A8"/>
<path transform="translate(1024,902)" d="m0 0h97l47 1h12l7-1 16 1h12l26-1h16l14 1h28l28 1h18l2 2h-415v-2h23l22-1z" fill="#C53DC1"/>
<path transform="translate(1650,910)" d="m0 0h28l2 8v23h-32l-1 2-1-2 2-30z" fill="#FEF4DA"/>
<path transform="translate(925,921)" d="m0 0h37v62l-1 2h-36l-1-4zm9 5-4 3-1 6v43l3 1h24l1-1v-51l-1-1z" fill="#D41167"/>
<path transform="translate(443,657)" d="m0 0 6 2 5 3 3-3h6l5 7 7 2 3 5v5l9 4 4 5 1 6 7 1 4 5v9l-3 1v2l-3 2-4-1-3-3-7-11-10-13-5-6-3-2v-2l-4-2-6-5-5 2 1 4-3 2-9-7v-8z" fill="#F6D031"/>
<path transform="translate(1095,721)" d="m0 0 6 1 12 5 4 3-2 5-11 24-2 2h-23v-9l14-27z" fill="#F993A8"/>
<path transform="translate(443,775)" d="m0 0 8 2 3 4v2l4 2 19 10 8 6 7 8 10 15 6 8 1 4h-12l-3-2-1-6 2-6h-5l-7-6-8-5-3-3-9-5-2-3-5-1-4-3-2-6-5-1-3-3-1-7z" fill="#FCD01F"/>
<path transform="translate(1091,495)" d="m0 0h121l5 3 6 13v2h-5l-5-10-2-1h-118l-6 8-1 5-1-2h-5l1-5 6-10z" fill="#DE95DA"/>
<path transform="translate(510,837)" d="m0 0 5 1 5 4 1 3 6 2 5 4 3 3 1-2h6l8 6 5 2v2l5 2 3 6h-51l3-5-2-12-3-10z" fill="#0BAE94"/>
<path transform="translate(645,777)" d="m0 0 7 1 4 5-1 4-10 8-5 5-9 10-9 11-4 12-3 6-4 2-2 3-2 7-7 2-3-4v-6l7-8h2l2-5 7-11 6-8 6-12 1-1 1-12 10 2h2v-7z" fill="#FED611"/>
<path transform="translate(560,751)" d="m0 0 1 3-2 3 1 4 8 10 7 14 1 1 2 9 4 6 4 2-2 1 3 15 4-1 4-10-1-18 3-3 2-3h2l1-4 3-6 5 2-4 10v6l-3 7-2 11-5 5-1 5h-2l-2 5-5-1-1-3-4-2-3-4-3-9-3-7-2-9-7-10-4-7-5-6 2-3-4 1-1-1v-8l5-2z" fill="#0AB295"/>
<path transform="translate(949,838)" d="m0 0h389v1l-65 1-275 1-36-1-7 2-3 1v33l1 8h41l20 1-4 2-62 1v-48z" fill="#DE95DA"/>
<path transform="translate(686,770)" d="m0 0h6l3 3v7l-4 3-5 2-3 7-9 2-6 5-7 2-2 4-12 9-5 1 1 7-3 5-5 1-4-3 2-6 8-12 5-6 8-6 3-3 13-8 12-6z" fill="#F9CD27"/>
<path transform="translate(899,921)" d="m0 0h16v63l-3 2h-17l-14-1-2-2v-61zm-6 4-8 2-1 1v51h26l2-1v-48l-1-3-12-2z" fill="#D41167"/>
<path transform="translate(455,667)" d="m0 0 3 2v2l4 2 9 8 10 13 9 13 12 24 5 13 1 1 2 14h6l1 5-5 1-3-3v-3h-2l-4-7-7-17-4-9-5-9-2-3v-3h-2l-4-6-2-1-4-7-11-13-11-10-1-4z" fill="#08B395"/>
<path transform="translate(98,724)" d="m0 0h81l1 9v250l-2-1v-40l-1-3-1-57v-21l-1-17v-26l2-64v-14l1-14h-52l-28-1z" fill="#DE95DA"/>
<path transform="translate(505,712)" d="m0 0 10 1 9 2 1 6-2 7v12l-3 3-1 3h-2l-1 4-8-1-5-13-4-10-2-3v-7z" fill="#FED219"/>
<path transform="translate(492,726)" d="m0 0 2 3 8 17 4 10 1 3h2l-1 3-4-1-4 2-2 4-8-10-8-9-10-8-1-2 4-2 3-8 2-1z" fill="#FED618"/>
<path transform="translate(523,796)" d="m0 0 9 1 8 6 5 4 8 7 5 6 6 5 6 9-1 2-7 1-3-2v-2h-2l-3-5-2-1-9-1-4-5-1-4-9-3-4-2v-3l-4-8 1-4z" fill="#FED61C"/>
<path transform="translate(1566,807)" d="m0 0 2 1 1 20h-2l-1-4-1 4-6 2 6 1v1h-36l-1 34 13 1h13l4 2h-30v36l36 1v1l-5 1v1h-31v18l-3-4v-14h-10l-1-2 11-1v-37h-10l-2-1v-2h12v-34l-11-1v-3l3-1h47v-17z" fill="#FCE0C2"/>
<path transform="translate(1783,809)" d="m0 0 7 1 1 1-1 7-4 4-2 5h17l3-1 2-4v5h15l1 3-1 1h-14v34l14 1 1 3-2 1-16 1v-2h-36l-1-3 35-1 1-15v-19l-11 1-24 1-3 2-1-3-5-2 3-2 6-1 15-1-1-5h-3v-7l2-4z" fill="#FCE3C3"/>
<path transform="translate(690,663)" d="m0 0h6l2 4-1 6-3 3-5 1 2 3 1 7-3 3-7 2-3 6-7 3h-2l2 5-1 4-4 3-6 2-1 5h-1v-5h-8l2-4 9-13h2l2-4 8-8 11-8h3l-4-11 1-2z" fill="#FCD02B"/>
<path transform="translate(789,875)" d="m0 0h1l-1 8-4 18-4 23-3 3-5-2-3-8-5-25v-3h2l2 7v-8l1-5-1-7h2l3 6 4 1 3-3v8l2 7 2-10 3-9z" fill="#F993A9"/>
<path transform="translate(553,768)" d="m0 0 4 1 6 8 5 9-1 2h-3l-3 5h-8l-4 4v4l-4-2-8-5-10-4 6-10 4-2h10l5-9z" fill="#FEF0D5"/>
<path transform="translate(173,960)" d="m0 0h1l2 16v7l-1 2h-39l-46-1-3-2v-17h1v7h2l1 6h81z" fill="#FBEAD9"/>
<path transform="translate(489,781)" d="m0 0 13 2 6 12 3 12 7 14-1 4h-3l-5-5-1-3-4-2v-2l-4-2-6-9-8-7-4-5 1-5z" fill="#FED514"/>
<path transform="translate(1682,806)" d="m0 0 3 1v15l-1 5 1 4-1 2h-3v-2l-3 1-28 1v31l2 1h28l2-30 2-1 1 18v13l2 1-2 2-1 3h-2l-1 29h-1l-1-29-30-1v14h-1v-17l-1-2v-32l1-5v-5l1 4h31l1-20z" fill="#FCE4C3"/>
<path transform="translate(682,673)" d="m0 0 4 1 2 1v3l-7 4-10 8-7 8h-2l-2 4-9 13-7 12-4 8-6 16-9 14h-2v-6l3-3 3-10 3-1 1-4 2-4 2-7 4-10 12-19 6-7 6-8 8-7 5-4z" fill="#00B596"/>
<path transform="translate(683,771)" d="m0 0h3l-2 6-5 4-16 8-6 4h-2l-1 3-6 5h-2l-2 4-7 9-6 10h-8l-3 11-3 4-3-1 5-10 3-8 12-14 8-9h2l2-4 9-7 10-7 12-5z" fill="#09B094"/>
<path transform="translate(155,755)" d="m0 0h1l1 12 1 104h1l1 7 1 77-1 2h-10l-5-2-27-1v-1l38-1-1-162z" fill="#F2C9CE"/>
<path transform="translate(88,850)" d="m0 0h1l2 101 1 10v16h80v1h-81l-1-6h-2v10l2 2-4-1-1-60v-24l2-36v-8z" fill="#E2A1DA"/>
<path transform="translate(660,763)" d="m0 0 1 2-1 3 5 2h6l5-6h4l3 8-15 7-9 5-3 1-4-5v-2h-7l-3 3-1 7-5 1-7-3 3-7 9-10 3 3 6-1 4-4 1-3z" fill="#FDEACF"/>
<path transform="translate(552,660)" d="m0 0 5 1-6 8-8 13-5 13-9 25v7l8 8 1 4-14-1v9l-2 6-4-1-2-1 1-5h2l1-4 2-3v-11l2-7 1-7 7-20 3-5 5-13 5-9 4-5z" fill="#07B194"/>
<path transform="translate(1631,983)" d="m0 0h45l26 1h74l2 2-51 1h-203l-9-1v-1l79-1z" fill="#FCCDBE"/>
<path transform="translate(828,636)" d="m0 0h1l1 62v213l-2-1-1-95z" fill="#F282C0"/>
<path transform="translate(556,664)" d="m0 0 4 1 1 8-3 3-2 1-1 10-5 4-2 9-3 5-2 10-2 2 1-10-8-1 2-9 4-10 7-14 7-8z" fill="#FAD027"/>
<path transform="translate(1122,814)" d="m0 0h52l5 1 5-1v2l8-1h3l7 1 2-1 5 1v3h13v1h-76l-39-1-5-1 2-1v-2l7 1 10-1z" fill="#00D099"/>
<path transform="translate(92,755)" d="m0 0h1v43l1 16 1 5v93l-1 5-1 33h-1l-1-85v-83z" fill="#FF69AC"/>
<path transform="translate(639,738)" d="m0 0 7 3 3 5 3 3-7 9-5 5-6 8-5 8-4-1-1-7 1-5 3-7 5-8 5-12z" fill="#FFD818"/>
<path transform="translate(1489,993)" d="m0 0h20l53 2 22 2 26 1v1h-122l-2-1 1-4z" fill="#FFF5DB"/>
<path transform="translate(1526,919)" d="m0 0h1v23h46l24-1 8 1v-6h1v6h10v-1h21l10 1v1l-18 1h-22l1 9-1 29h-2l-1-26 1-10-1-2h-39l-38 1v36l-2 1v-37l-8-1 3-2 4-1 1-18z" fill="#FCD2BF"/>
<path transform="translate(200,989)" d="m0 0h1l1 5 101 1 2 1-1 3-53 1h-48l-4-1z" fill="#FDEDD9"/>
<path transform="translate(1726,810)" d="m0 0h2l1 14 1 4h10v1h-14l-5 1 5 1 1 2 2-1v34h-1l-1-14-1 14-1 1h-36v-1l34-1 1-4v-29l-28 1h-11v15h-1l-1-13-2 26h-1v-28h-2v-2h3v2h3l1-5-2-1 2-4 1 4h37l2-7z" fill="#FDE5C4"/>
<path transform="translate(156,750)" d="m0 0h4v128h-1l-1-6h-1l-1-110-1-7-2-4z" fill="#FCE2C3"/>
<path transform="translate(554,737)" d="m0 0h1l-1 7h-2v2l-9 7-12 12-6 9-4 7-1 6h-4l-3-9 9-10v-2l5-5 5-7 12-12 5-4z" fill="#0CA994"/>
<path transform="translate(104,748)" d="m0 0h57v19h-1v-17l-6 2 1 3-46 1-1-3-5-2z" fill="#F5BFC5"/>
<path transform="translate(585,665)" d="m0 0 5 2 2 1 4 8 10 19 4 16 2 3v7l-3 2-4-8-7-20-8-16-7-11z" fill="#0DB093"/>
<path transform="translate(723,599)" d="m0 0h1l1 41v149l-1 21h-1l-1-54v-132z" fill="#F47DBC"/>
<path transform="translate(1340,838)" d="m0 0h9l1 4v44l-1 1h-238v-1l149-1 52-1 36 1-1-45-7-1z" fill="#DE95DA"/>
<path transform="translate(530,826)" d="m0 0 5 2 5 3h7l6 3 2 2-1 6-3 5-8-1-6-3-2-2-4-1v-2l-4-2-1-1 1-7z" fill="#FED311"/>
<path transform="translate(587,776)" d="m0 0 2 3 3 6 5 2-1 3h-2l1 10-4 3-5 1-6-4-4-7-1-8 8-3z" fill="#FCDFC5"/>
<path transform="translate(180,994)" d="m0 0h1v5h-99v-3l20-1h44l34 1z" fill="#F9B4B4"/>
<path transform="translate(615,819)" d="m0 0h5v9l-5 11-4 2-2 3-2 7-7 2-3-4v-6l7-8h2l2-5z" fill="#FED531"/>
<path transform="translate(536,852)" d="m0 0h6l8 6 5 2v2l5 2 3 6h-23l-3-2-3-8 1-6z" fill="#FED320"/>
<path transform="translate(481,710)" d="m0 0 4 1 4 8 3 4v4l-14 1-3 9-1 1h-5l-4-3v-7l1-3 10-2 3-11z" fill="#FED312"/>
<path transform="translate(785,690)" d="m0 0h2l6 26 6 23 5 24 1 6v14l-5 23-8 32-10 42h-2l4-20 16-64 2-13v-15l-5-26-11-43z" fill="#FA93A8"/>
<path transform="translate(722,831)" d="m0 0 2 3 1 94 1 47-1 5v16l-3 3z" fill="#F185C2"/>
<path transform="translate(440,716)" d="m0 0 14 1 7 1 4 4-3 9-1 1h-6l-12-4-8-2z" fill="#FACD21"/>
<path transform="translate(459,768)" d="m0 0 7 2 2 2 11 1 3 3v7l-3 4-8-2-18-9 3-5z" fill="#FECF1C"/>
<path transform="translate(762,707)" d="m0 0h1l-1 10-9 37-2 10v20l8 39 7 30 4 19-1 4-3-12-2-10-7-29-7-32-2-8v-18l3-16 7-32 3-11z" fill="#FA93A8"/>
<path transform="translate(504,760)" d="m0 0 7 3 4 1h2l4 4-2 5-5 5-2 4-3 1-2-4h-2l-6-11v-5z" fill="#FC9F0E"/>
<path transform="translate(564,786)" d="m0 0 6 3 2 5-1 5-7 2-2 4-3 3-6-2-5-6 1-4 4-4h8z" fill="#FFD210"/>
<path transform="translate(612,740)" d="m0 0h1l1 9h5l6-7 7 1v2l-2 1-3 10-3 3-1 6 3-1v6l-4 1-5-5-4-5 1-6-4-4z" fill="#FFCD0C"/>
<path transform="translate(1646,807)" d="m0 0h2l1 24-1 3v32l1 3-1 21-2 13h-1l-1-5v-12l2-13-1-4 1-5-1-1v-30l-7-2 3-2h4l-1-20z" fill="#FCCCBE"/>
<path transform="translate(605,788)" d="m0 0 11 1-1 8v6l-7 13-5-4-3-2 3-14 2-4z" fill="#FEEED5"/>
<path transform="translate(1800,869)" d="m0 0 6 1v36h16l2 2-1 1h-16l-2-2-1-4v9l-2-2h-26l-7-1v-3l32-1 1-4 1-31z" fill="#FDE5C4"/>
<path transform="translate(1607,833)" d="m0 0h1l1 32h34l1-5 1 3 2 1-1 7 1 3-2 3-1-7h-10l-25-2h-6v1h-12l-11-1v-1l23-2 1-24h1l1 18z" fill="#FCE2C3"/>
<path transform="translate(1727,846)" d="m0 0h1v20l35 1v3l-3-1h-32v34l-2 1v-35h-42v-3h41z" fill="#FCCCBE"/>
<path transform="translate(1941 1e3)" d="m0 0h6l2 1v67l-2 3-4 1-48-1v-1l50-1 1-12v-56h-5z" fill="#E79BCD"/>
<path transform="translate(1598,867)" d="m0 0h11l13 1v1h-14v28l-1 9h6v1l-5 1-1 33h7v1h-8l-1-6v-29l-1-2-1-36-5-1z" fill="#FCD5C0"/>
<path transform="translate(676,764)" d="m0 0h4l3 8-15 7-6 3-4-1-3-5 1-5 4-3 5 2h6z" fill="#FED81E"/>
<path transform="translate(491,692)" d="m0 0 8 2 4 5v9l-3 1v2l-3 2-4-1-3-3-4-9-1-3h3v-2h3z" fill="#F4C920"/>
<path transform="translate(364,887)" d="m0 0 4 1 8 14 6 14v9l-8 16-5 9-2 2-4-1-4-9 1-2 7 1 3 2 3-6h2v-5h2v-4h2l1-10v-3l-3-1-4-8-4-9v-5l-3 1v-3l-4 3 1-5z" fill="#BA865D"/>
<path transform="translate(1725,901)" d="m0 0 1 3 6 2 9 1v1l-11 1-1 33 4 1h-4l-1 7-2-3v-5l-2-1 1-31-4-1-16-1v-1l15-1z" fill="#FCDAC1"/>
<path transform="translate(470,761)" d="m0 0 4 2 3 3 5 3 3 5 3 2h9l3 5 1 2-12-1-6 4v5l-5-2-3-3h4l2-3v-7l-2-2-11-1-1-2h5z" fill="#FEEBD1"/>
<path transform="translate(295,607)" d="m0 0 10 1 1 1v51h-1l-1-5v-43l-1-1-59-1-7-1v-1z" fill="#DE8379"/>
<path transform="translate(510,837)" d="m0 0 5 1 5 4 1 3 6 2 5 4 1 5-1 4-3 2-4-1-3-4-1-7-6-1v-2h-4z" fill="#FECB30"/>
<path transform="translate(1648,941)" d="m0 0h30v2l-19 1-3 1h-9v39h-6l4-1-1-35-3-2-33-1v6h-1v-7l22-1h19z" fill="#FCE1C3"/>
<path transform="translate(641,730)" d="m0 0 4 1 5 2 8 1 3 5-3 6-5 3-5-2-3-5-6-3 1-6z" fill="#FFD713"/>
<path transform="translate(99,725)" d="m0 0h68l11 1-2 11-2 15h-1l-1-21-16-1-1-2h-45l-11-2z" fill="#FBCCBE"/>
<path transform="translate(629,791)" d="m0 0h1l2 6 1 2 4 1h3l-9 10-9 11-2 5-1-3 1-4-4-1 6-9 5-10 1-1z" fill="#FFC10B"/>
<path transform="translate(87,965)" d="m0 0h1v7h2l1 6h32v1l-10 1 2 2 13 1v1h-38l-3-2z" fill="#F9C7C1"/>
<path transform="translate(865,770)" d="m0 0 3 3v8 4l-1 10 1 9-2 7-2 1-4-6 2-11-1-19 2-5z" fill="#00D099"/>
<path transform="translate(1153,622)" d="m0 0 3 2 3 12 1 6-5 3h-10l-2-1 1-5 4-5z" fill="#FA93A8"/>
<path transform="translate(570,750)" d="m0 0 4 1 2 3v9l-6 4-5-1-4-5v-5l3-5z" fill="#FFD30D"/>
<path transform="translate(558,842)" d="m0 0h7l6 7 1 4-5 3-2 2-5-1-6-5 1-5z" fill="#FFD714"/>
<path transform="translate(1804,895)" d="m0 0h1v12l3 1-1 2-1 33 16 1v1l-16 1-1 5h-3v-22l1-26z" fill="#FCDEC2"/>
<path transform="translate(443,657)" d="m0 0 6 2 6 4v2l-3 3-2 7h-3l-8-6v-8z" fill="#F8C72D"/>
<path transform="translate(572,854)" d="m0 0 4 1 5 5 2 6v2l5 1v1h-15l-4-6-3-2v-3h2v-2l4-1z" fill="#FDD125"/>
<path transform="translate(609,728)" d="m0 0 7 2 5 2 2 11-6 7-4-1-2-12-2-5z" fill="#0CAF93"/>
<path transform="translate(553,768)" d="m0 0 4 1 6 8 1 7-3 1-10-2-4-3 2-6z" fill="#FED223"/>
<path transform="translate(575,769)" d="m0 0h5l5 5 2 1-2 5-4 4-7 1-3-6 1-7z" fill="#FED416"/>
<path transform="translate(640,722)" d="m0 0 2 1v7l-6 16-4 8-7 11h-2v-6l3-3 3-10 3-1 1-4 2-4 2-7z" fill="#788573"/>
<path transform="translate(563,746)" d="m0 0 2 4-3 6v5l5 5 5-1 3-2v-9l-4-5 5 1 1 1 1 15 1 3-5 2-3 7-2-2-3-6-7-9-1-4 2-5-5 4h-2l1-3 7-5h2z" fill="#FDEBD2"/>
<path transform="translate(540,780)" d="m0 0h6l4 7v4l-7 5-6-2v-2h-2v-6z" fill="#FED711"/>
<path transform="translate(765,663)" d="m0 0 1 4-6 27-6 24-2 10-5 22-2 4-1-4 4-14 5-26 4-16 6-26z" fill="#FA93A8"/>
<path transform="translate(612,770)" d="m0 0 5 5 2 5-1 7-2 2h-9l-2-1 3-9 3-6z" fill="#FFCB0C"/>
<path transform="translate(497,818)" d="m0 0 4 5 6 7 2 6h-12l-3-2-1-6z" fill="#F8C21C"/>
<path transform="translate(1623,806)" d="m0 0 7 2 1 2v8l-2 2h-7l-4-4-2-7 1-2z" fill="#FDE5C5"/>
<path transform="translate(583,789)" d="m0 0h5l4 7v6l-6 2-6-4-3-5v-4z" fill="#FED123"/>
<path transform="translate(645,724)" d="m0 0 1 2h14l1 7 2 1v2l4 1-8 7v-3l1-2-2-4-10-2-6-3 2-4z" fill="#FDE9C9"/>
<path transform="translate(210,846)" d="m0 0h1v68l1 22-2 26h-1v-73z" fill="#D38656"/>
<path transform="translate(97,995)" d="m0 0 31 1v2h11v1h-57v-3z" fill="#FCCDA1"/>
<path transform="translate(1566,807)" d="m0 0 2 1 1 20h-2l-1-4-1 4-6 2 6 1v1h-28l2-2h-9l2-2 32-1v-17z" fill="#FDE5C4"/>
<path transform="translate(1605,936)" d="m0 0h1v6h10v-1h21l10 1v1l-18 1h-22l1 9-1 29h-2l-1-26 1-10z" fill="#FAC3BC"/>
<path transform="translate(305,962)" d="m0 0h1v33l-3 1-99-1v-1l99-1z" fill="#CF7D54"/>
<path transform="translate(1662,807)" d="m0 0 10 2 2 2v8l-2 1h-7l-5-2v-10z" fill="#FCD4BF"/>
<path transform="translate(498,741)" d="m0 0 3 3 5 12 1 3h2l-1 3-4-1-4 2-2 4-4-6 6-1 3-2-2-6-2-2h-11l1-5 4-3z" fill="#FCE4C4"/>
<path transform="translate(1543,805)" d="m0 0h6l1 1v12l-2 3h-6l-3-2v-6l3-7z" fill="#FCD4C0"/>
<path transform="translate(1338,853)" d="m0 0 4 1 2 3v13l-4 7-3 1v-24z" fill="#FDE5C4"/>
<path transform="translate(804,811)" d="m0 0 1 3-4 19-7 31-3 11h-2l1-9 3-10 5-25 4-17z" fill="#FA93A8"/>
<path transform="translate(594,773)" d="m0 0 9 2-2 9-3 3h-5l-4-5-1-5z" fill="#FED111"/>
<path transform="translate(1604,905)" d="m0 0 2 3-1 34h-7v-1h6l-1-31-24-1-11-1 3-2z" fill="#FCE2C3"/>
<path transform="translate(1745,805)" d="m0 0h5l2 3-2 12h-9l-1-1 1-7 1-6z" fill="#FCD3BF"/>
<path transform="translate(504,760)" d="m0 0 7 3 2 7-5 5h-3l-6-7v-5z" fill="#FFD20D"/>
<path transform="translate(1708,805)" d="m0 0 5 2-2 13-1 1h-7l-2-1v-6l5-8z" fill="#FCD2BF"/>
<path transform="translate(723,928)" d="m0 0h2l1 47-1 5v16l-3 3z" fill="#FD6BAE"/>
<path transform="translate(503,703)" d="m0 0h1l1 7 7-1 7 2 1-2v2l7-1-2 6-16-3-7 1-5 2v5l-2-2-3-6 1-2 4 1 3-1v-2l2-1z" fill="#DFBBC8"/>
<path transform="translate(524,697)" d="m0 0h5l1 5-3 8-4 2-3-1-2-4v-6l3-3z" fill="#FCCB19"/>
<path transform="translate(690,663)" d="m0 0h6l2 4-1 6-1 2h-8l-3-4-1-4 1-2z" fill="#FDCC19"/>
<path transform="translate(571,797)" d="m0 0 3 4 5 14v3l-2-1-3-9-5-2-6 5-2 2-6-5 4-1 5-6 3-2h4z" fill="#FDE5CB"/>
<path transform="translate(749,817)" d="m0 0h2l5 24 6 26 4 17v5l-2-1-5-22-6-26-4-19z" fill="#FA93A8"/>
<path transform="translate(612,797)" d="m0 0h3v6l-5 9-2 1-4-4-1-8 1-2z" fill="#FFCF0D"/>
<path transform="translate(639,738)" d="m0 0 7 3 3 5 3 3-4 4-1-5-7-2-4 4 1 8-2 1-5-1 1-4 5-10z" fill="#FEF7E5"/>
<path transform="translate(1529,866)" d="m0 0 12 1h13l4 2h-30v36l-3 1v-38h4z" fill="#FDE5C4"/>
<path transform="translate(776,643)" d="m0 0h2l2 5v12l-6 2-2-2 1-12z" fill="#FC6F71"/>
<path transform="translate(593,708)" d="m0 0 2 4 2 7 4 1-3 9-3 1h-11l-4 3h-5v8l-3-4 1-5 13-5 10-1 1-3-5-9v-5z" fill="#EAC2C0"/>
<path transform="translate(492,726)" d="m0 0 2 3v2l-5 3-9 1-5 2 3-9 2-1z" fill="#FDFDFD"/>
<path transform="translate(1566,834)" d="m0 0h1l1 26 1 5 19 1 3 3h-23l-3-1v-13z" fill="#FCD3BF"/>
<path transform="translate(1783,809)" d="m0 0 7 1 1 1-1 7-7 3h-4v-7l2-4z" fill="#FCD6C0"/>
<path transform="translate(530,826)" d="m0 0 5 2 1 1v11h-5v-2l-4-2-1-1 1-7z" fill="#FCC615"/>
<path transform="translate(511,809)" d="m0 0 3 3 4 10-1 3h-3l-5-5-1-3-4-2 1-4 1 2z" fill="#F59E2D"/>
<path transform="translate(773,890)" d="m0 0h7l-1 14-1 2-4-1-2-6v-8z" fill="#FC6F71"/>
<path transform="translate(1682,806)" d="m0 0 3 1v15l-1 5 1 4-1 2h-3v-2l-4-1 3-2 1-21z" fill="#FCD4C0"/>
<path transform="translate(1644,860)" d="m0 0 1 3 2 1-1 7 1 3-2 3-1-7h-10l-12-1v-3l21-1z" fill="#FCDFC2"/>
<path transform="translate(1215,756)" d="m0 0h11l3 3v2h-25v-2l4-2z" fill="#FCDAC7"/>
<path transform="translate(85,923)" d="m0 0h1l1 61h-3l-1 11h14v1h-15v-16h2z" fill="#E154B7"/>
<path transform="translate(1595,941)" d="m0 0 10 1-1 2h-52l1-2h20z" fill="#FAC9C0"/>
<path transform="translate(1081,756)" d="m0 0h11l9 2 1 3h-23v-4z" fill="#FCD9C4"/>
<path transform="translate(651,683)" d="m0 0 4 1-5 3-3 5-1 4-10 3v2l-5 5-3 4h-5l-3-3 1-3 2 2h5l6-8 6-4h5l1-6z" fill="#EFB6C2"/>
<path transform="translate(1562,908)" d="m0 0 6 3-1 29 3 2h-11v-1h5v-29l-3-3z" fill="#FCDFC2"/>
<path transform="translate(1564,860)" d="m0 0h1v8h3v6h-1l-1 9h-1l-1-12-6-2-5-1h-12l-9-1v-1l31-1z" fill="#FCD6C0"/>
<path transform="translate(523,724)" d="m0 0 2 4v9l-2 14-1 2-4-1-2-1 1-5h2l1-4 2-3v-11z" fill="#15B699"/>
<path transform="translate(566,840)" d="m0 0h2l6 7 3 5 3 3v5l-5-5-3-1v2l-4 1v2l-3 1v-3l4-4h3l-5-8-2-4z" fill="#DDAED5"/>
<path transform="translate(544,826)" d="m0 0h8l5 5v2h2v2l3 1v2l-4-1v-2l-4 1-4-3-6-2z" fill="#F5D2D3"/>
<path transform="translate(510,837)" d="m0 0 5 1 5 4 2 6-1 2-6-1v-2h-4z" fill="#37636A"/>
<path transform="translate(1644,827)" d="m0 0 1 2-4 1 5 3v15l-1 11h-1v-24l-1-2-15-1-2-4z" fill="#FCE4C3"/>
<path transform="translate(819,966)" d="m0 0 1 4-2 10-5 2h-10v-1l5-1v-3l4-1 2-8 4 4z" fill="#FE69AB"/>
<path transform="translate(1946,1057)" d="m0 0 3 1v10l-2 3-4 1-48-1v-1l50-1z" fill="#E193D2"/>
<path transform="translate(359,940)" d="m0 0 8 1 3 2 2-2-1 6-4 5-4-1-4-9z" fill="#C2865B"/>
<path transform="translate(1762,941)" d="m0 0m-29 1h29l-2 3h-31v-2z" fill="#FDE5C4"/>
<path transform="translate(489,887)" d="m0 0h2l3 13 5 19 2 10v5l-2-4-8-30z" fill="#927282"/>
<path transform="translate(1646,807)" d="m0 0h2v22h-2v3l-8-1 3-2h4l-1-20z" fill="#FCCEBE"/>
<path transform="translate(1516,827)" d="m0 0h13l4 2h9l-3 2-10 1h-4l-11-1v-3z" fill="#FCD8C1"/>
<path transform="translate(510,726)" d="m0 0 5 1 1 2-2 4h-10l-1 3-2-5 1-3z" fill="#FCD6C3"/>
<path transform="translate(606,833)" d="m0 0 1 4 4 1-3 2-4 9-5 1 1-3-1-4 3-4h3z" fill="#FF9E08"/>
<path transform="translate(1647,874)" d="m0 0h1v16l-2 13h-1l-1-5v-12l1-9z" fill="#FCD1BF"/>
<path transform="translate(604,835)" d="m0 0 1 4-3 1-2 4 1 4h-2v2l5-2 3-8 2 1-2 10-7 2-3-4v-6z" fill="#FED379"/>
<path transform="translate(452,792)" d="m0 0 2 1v2l9 3 6 6 7 4 6 4 1 3-5-2-6-5-9-5-2-3-5-1-4-3z" fill="#AE80B2"/>
<path transform="translate(200,989)" d="m0 0h1l1 5 3 1v2h28l11 1v1l-41 1-4-1z" fill="#FACDBF"/>
<path transform="translate(586,780)" d="m0 0 1 2h3l3 4 4 1-1 3h-2l1 10-3 1-3-14-1-4h-3z" fill="#EDBBD5"/>
<path transform="translate(1519,906)" d="m0 0h7l2 1v20l-3-4v-14h-10l-1-2z" fill="#FCDBC1"/>
<path transform="translate(1767,866)" d="m0 0 37 1v2h-36z" fill="#FCCDBE"/>
<path transform="translate(477,713)" d="m0 0 2 1-2 9-1 1-10 1-1 9-7-1 3-2 2-6 2-2 10-1-1-7z" fill="#FCDEC4"/>
<path transform="translate(1648,941)" d="m0 0h30v2l-19 1-3 1-8-2z" fill="#FCE3C3"/>
<path transform="translate(571,749)" d="m0 0 5 1 1 1 1 15 1 3-5 2h-3l-2-4 6-4v-9z" fill="#E5AFC9"/>
<path transform="translate(958,859)" d="m0 0 2 1v18h-3v-4l-2-1v-9z" fill="#FDE5C4"/>
<path transform="translate(498,741)" d="m0 0 3 3 5 12 1 3h2l-1 3-4-1-4 2-2 4-4-6 6-1 3-2-3-11-1-4-2-1z" fill="#FCE5D0"/>
<path transform="translate(689,661)" d="m0 0h5l1 2-10 2 1 6 2 4-6-1-6 2 5-6 1-5-2-2z" fill="#FDECD1"/>
<path transform="translate(503,825)" d="m0 0 3 1v2l4 2 5 5 4 5-1 2-5-4-3-1-1 3-2-4v-4z" fill="#348297"/>
<path transform="translate(105,750)" d="m0 0 1 2 3 1-2 23v5h-2v-24l-1-1v-5z" fill="#FCE4C3"/>
<path transform="translate(1605,829)" d="m0 0 4 2-1 2-1 28-2-2z" fill="#FBC9BD"/>
<path transform="translate(550,788)" d="m0 0 2 1v2l9 1v1h-8l-4 4v4l-4-2-5-3 3-1 5-4h2z" fill="#FCDDC4"/>
<path transform="translate(1526,919)" d="m0 0h1v23l3 1-1 1h-12l3-2 4-1 1-18z" fill="#FAC8BF"/>
<path transform="translate(630,745)" d="m0 0h2l-2 13-5 7h-2v-6l3-3 3-10z" fill="#408284"/>
<path transform="translate(1605,807)" d="m0 0h2l1 20-2-4-1 5 2 1h-2v3l-2-1 1-2-2-1h2v-20z" fill="#FDE5C4"/>
<path transform="translate(624,724)" d="m0 0 6 2 2 3-4 2-5 1-2 1-4-2 4-4h2z" fill="#E9C1CC"/>
<path transform="translate(1683,834)" d="m0 0h1l1 18-1 1-1 8h-2v-12l1-14z" fill="#FCCDBE"/>
<path transform="translate(1764,809)" d="m0 0h2l1 16 1 3-8 1 2-4 1-13z" fill="#FCE4C3"/>
<path transform="translate(633,769)" d="m0 0 2 1-4 5-2 4-4-1-1-7 1-1z" fill="#FDFBF4"/>
<path transform="translate(674,662)" d="m0 0h5l-1 2-5 3h-2v2l-10 7-4 5 1-5 2-4 8-4 5-5z" fill="#DA98C8"/>
<path transform="translate(1616,941)" d="m0 0h21l10 1v1l-18 1h-21v-1l8-1z" fill="#FBCDBE"/>
<path transform="translate(629,791)" d="m0 0h1l2 6 1 2 4 1h3l-5 6-5-3-1-2-3 1 2-4z" fill="#FF9D08"/>
<path transform="translate(470,761)" d="m0 0 4 2 3 3 4 2v4l-9-1z" fill="#D998CD"/>
<path transform="translate(640,739)" d="m0 0 6 2 3 5 3 3-4 4-1-5-7-2-3 1 1-3 5-2-3-1z" fill="#FDE5C6"/>
<path transform="translate(626,752)" d="m0 0 1 4-3 3-1 6 3-1v6l-4 1-4-4 2-2 3-8z" fill="#FF9C08"/>
<path transform="translate(612,740)" d="m0 0h1l1 9h4v9l-1 2h-2l-2-7-3-2z" fill="#FF9D0B"/>
<path transform="translate(535,700)" d="m0 0 3 1v2l8-2-3 14-2 2 1-10-8-1z" fill="#EBCBBB"/>
<path transform="translate(1143,539)" d="m0 0h17l7 1v1h-23l-7 2h-10l3-2z" fill="#E19DD9"/>
<path transform="translate(159,833)" d="m0 0h1v45h-1l-1-6h-1v-7h1z" fill="#FCCEBE"/>
<path transform="translate(1627,809)" d="m0 0 4 1v8l-8 1-3-2v-2l7-1z" fill="#E8A78E"/>
<path transform="translate(507,795)" d="m0 0 2 4 2 11-6 4-2-5 2-3h2z" fill="#FFB40E"/>
<path transform="translate(160,941)" d="m0 0h1v14l-1 2h-10l-5-2v-1l11-1 3 2z" fill="#FEF4DA"/>
<path transform="translate(1598,867)" d="m0 0h11l13 1v1l-14 1-1 14h-1l-1-13-2-2-5-1z" fill="#FBC7BC"/>
<path transform="translate(352,911)" d="m0 0 1 3-1 10 5 6v5l-3-4-5-8v-8z" fill="#AA8662"/>
<path transform="translate(647,727)" d="m0 0h11v5h-8l-4-4z" fill="#FDFDFD"/>
<path transform="translate(545,863)" d="m0 0h3l1 6-1 1h-8l-3-2v-2l5 1v-2z" fill="#FDEBD2"/>
<path transform="translate(1726,828)" d="m0 0 14 1 1 2-12 1-2 4-1-5h-7l2-2z" fill="#FCCDBE"/>
<path transform="translate(634,817)" d="m0 0h3l2 6-1 3-5 1-2-4z" fill="#FECA1A"/>
<path transform="translate(1582,808)" d="m0 0h5l1 2-1 8h-5z" fill="#FCDAC1"/>
<path transform="translate(608,729)" d="m0 0 2 3v2l-6 3-4-1 1-5z" fill="#FDE2C6"/>
<path transform="translate(495,776)" d="m0 0h2l3 5 1 2-9-1-3-1-1-4z" fill="#FDE2C5"/>
<path transform="translate(1566,834)" d="m0 0h1l1 34h-3v-13z" fill="#FBCABE"/>
<path transform="translate(615,797)" d="m0 0h1v5h2l-1 5-3 6-2 1v-2l-2-1 4-8z" fill="#1A7491"/>
<path transform="translate(516,775)" d="m0 0v3l3 2v-3l3 1-2 9h-4l-3-9z" fill="#1F7590"/>
<path transform="translate(1080,559)" d="m0 0 8 4-5 2-2 2-6-1 2-4z" fill="#E6A5D6"/>
<path transform="translate(107,945)" d="m0 0h1l1 6 6 2-4 2-6 2-1-1v-7h2z" fill="#FEF2D9"/>
<path transform="translate(575,838)" d="m0 0 8 6 3 5-1 2-3-1-7-8z" fill="#1C88A0"/>
<path transform="translate(556,835)" d="m0 0h2l1 2h6l2 3-1 1-11 1v-6z" fill="#FEF1D8"/>
<path transform="translate(1662,810)" d="m0 0 2 1 1 3 8-1-1 5h-9l-1-1z" fill="#F192A1"/>
<path transform="translate(640,815)" d="m0 0 3 4-1 5-4 4-3-1 3-1-1-9h3z" fill="#F59F43"/>
<path transform="translate(1617,808)" d="m0 0h4v6l2 1h-3l3 3h7l-1 2h-7l-4-4-2-7z" fill="#F9C8C0"/>
<path transform="translate(375,856)" d="m0 0h6l1 3h-20l-1-2z" fill="#D38756"/>
<path transform="translate(1532,828)" d="m0 0h18v2l-5 2h-8l2-2h-9z" fill="#FCE2C3"/>
<path transform="translate(636,739)" d="m0 0h2l-3 9-3 6-2 1 1-8z" fill="#00B497"/>
<path transform="translate(1662,807)" d="m0 0 10 2 1 2h-2l-2 4-5-1z" fill="#FCE2C3"/>
<path transform="translate(536,783)" d="m0 0v3l-1 6 2 1-5-1-5-2 3-5 3-1h2z" fill="#FDEBD7"/>
<path transform="translate(561,762)" d="m0 0 3 1 3 3 3 2v2l2 1-1 7-2-2-3-6z" fill="#FEF3D9"/>
<path transform="translate(539,717)" d="m0 0h2l1 4 10 6 8 6-3 1-8-6-10-6z" fill="#C6ACB8"/>
<path transform="translate(519,709)" d="m0 0 1 2 7-1-2 6-10-2v-3h4z" fill="#FBDDCD"/>
<path transform="translate(364,912)" d="m0 0 3 2v6l-3 2-3-2-1-5z" fill="#D38756"/>
<path transform="translate(1588,866)" d="m0 0h13l2 3h-12l-11-1v-1z" fill="#FDE5C4"/>
<path transform="translate(645,724)" d="m0 0 1 2h12v1l-11 1 5 6-7-2-3-2 2-4z" fill="#FDE5C6"/>
<path transform="translate(536,830)" d="m0 0 6 2-3 4v7l2 1-4-1-2-3z" fill="#FDE8CB"/>
<path transform="translate(1565,943)" d="m0 0h2l-1 4-1-2h-34v-1z" fill="#FCE3C4"/>
<path transform="translate(495,908)" d="m0 0 2 4 4 17v5l-2-4-4-14z" fill="#8D7686"/>
<path transform="translate(544,826)" d="m0 0h8l-1 3 1 3-8-1z" fill="#E9AFD4"/>
<path transform="translate(646,696)" d="m0 0 4 1v2h5l-7 11-1-2 1-2v-6z" fill="#FDE9CA"/>
<path transform="translate(651,683)" d="m0 0 4 1-5 3-3 5-1 4-7 1 2-3h4l1-6z" fill="#EFC1CF"/>
<path transform="translate(1605,936)" d="m0 0h1v6h5l-3 2v9l-2 4h-1z" fill="#F5B3BE"/>
<path transform="translate(1513,866)" d="m0 0h13l3 2-4 1h-10l-2-1z" fill="#FCDBC1"/>
<path transform="translate(815,740)" d="m0 0 2 3v2l2 1-2 6-2 7h-1v-11z" fill="#FE6AAB"/>
<path transform="translate(1785,812)" d="m0 0h3v5l-3 2h-5l1-4z" fill="#EE9AC0"/>
<path transform="translate(560,652)" d="m0 0h1l-1 13h-6l2-3-4-3 7-2z" fill="#F8D2CD"/>
<path transform="translate(1221,560)" d="m0 0 4 2v2h2l-2 5-4-2-3-4z" fill="#E3A4D9"/>
<path transform="translate(299,995)" d="m0 0 6 1-1 3h-26v-1l23-1z" fill="#FBC4BB"/>
<path transform="translate(510,837)" d="m0 0 4 2 2 5-1 2-4 1z" fill="#FFA013"/>
<path transform="translate(660,763)" d="m0 0 1 2-1 4-5 3v-2l-2-1 2-5z" fill="#FCD9C2"/>
<path transform="translate(524,738)" d="m0 0h7l3 2-7 2-3 9-1-4z" fill="#FCECD8"/>
<path transform="translate(492,711)" d="m0 0 5 1h3l2 2-5 2v5l-2-2-3-6z" fill="#FCE4CC"/>
<path transform="translate(1527,910)" d="m0 0h1v17l-3-4v-11z" fill="#FDE5C4"/>
<path transform="translate(1804,828)" d="m0 0h16v2l-16 1z" fill="#FCCCBE"/>
<path transform="translate(1566,823)" d="m0 0h1v5l2 1h-2v3l-11-2v-1l9-1z" fill="#FCCEBE"/>
<path transform="translate(540,813)" d="m0 0h3l-2 10-3-4v-2l-5-1v-1z" fill="#F3C7CC"/>
<path transform="translate(701,723)" d="m0 0 6 4v5l-3-1-2-2-3-1-4-3 6 1z" fill="#F8DBD0"/>
<path transform="translate(631,784)" d="m0 0 8 1 2-1v4l-5 1-7-3z" fill="#FCE3C4"/>
<path transform="translate(765,610)" d="m0 0 2 4-1 1h-12l4-1 1-3z" fill="#FF69AC"/>
<path transform="translate(607,840)" d="m0 0 2 1-2 10-5 1 2-4z" fill="#79A990"/>
<path transform="translate(1764,827)" d="m0 0 10 2v1h-7l-1 5-4-4-3-2z" fill="#FCCEBE"/>
<path transform="translate(523,724)" d="m0 0 2 4v9l-1 4-2-1v-12z" fill="#437C84"/>
<path transform="translate(492,726)" d="m0 0 2 3v2l-5 2v-3l-9-2v-1z" fill="#FDE7C8"/>
<path transform="translate(655,708)" d="m0 0 4 5 2 2-1 5h-1v-5h-8l2-4z" fill="#FCE7CC"/>
<path transform="translate(674,686)" d="m0 0 2 1-9 9-3 5-3-1 1-2h2l2-4z" fill="#FEEAAA"/>
<path transform="translate(689,661)" d="m0 0h5l1 2-10 2v2h-2l-3-4z" fill="#F0B6C7"/>
<path transform="translate(601,806)" d="m0 0h3l2 6 3 1-2 3-4-4-3-2z" fill="#FDE9CA"/>
<path transform="translate(481,769)" d="m0 0 2 1v5l-15-2-1-2h9l5 1z" fill="#F5D5D3"/>
<path transform="translate(609,709)" d="m0 0 7 4-1 5-3 2-2-8z" fill="#FDF1DB"/>
<path transform="translate(621,826)" d="m0 0 1 2-3 9-2 2-3-1 6-11z" fill="#00B697"/>
<path transform="translate(592,828)" d="m0 0 4 2-1 3-4 2h-4l1-3 2-1v-2z" fill="#FF9D08"/>
<path transform="translate(535,778)" d="m0 0 4 2-5 6-3-1 1-4z" fill="#EDBBD3"/>
<path transform="translate(626,756)" d="m0 0 4 2-5 7h-2v-6z" fill="#7A8572"/>
<path transform="translate(478,728)" d="m0 0 2 3v2h9v1l-9 1-5 2z" fill="#FCDCC1"/>
<path transform="translate(466,703)" d="m0 0 2 4 1 4 4 2-2 1-5-3-2-5z" fill="#CBAA95"/>
<path transform="translate(1034,518)" d="m0 0h5l5 5-8-1-3-3z" fill="#E294D6"/>
<path transform="translate(173,960)" d="m0 0h1l2 16-1 2h-2z" fill="#FBCABE"/>
<path transform="translate(581,819)" d="m0 0 4 2 3 3h4v2l-5 1-1 2-5-8z" fill="#F49911"/>
<path transform="translate(526,804)" d="m0 0h3v9l-4-1v-3z" fill="#FDECD2"/>
<path transform="translate(585,783)" d="m0 0h3l2 5-1 4-1-2-4-1z" fill="#FFF5DB"/>
<path transform="translate(634,752)" d="m0 0 3 4-1 3-6-1 1-4z" fill="#FDE9CA"/>
<path transform="translate(477,713)" d="m0 0 2 1-2 9-1 1h-5l4-2-1-7z" fill="#FBE1CE"/>
<path transform="translate(1807,943)" d="m0 0 15 1v1l-16 1-1 4v-5h2z" fill="#FDE5C4"/>
<path transform="translate(1775,942)" d="m0 0 9 1-2 2h-14l3-2z" fill="#FCCDBE"/>
<path transform="translate(1720,906)" d="m0 0h5l1 3-21-1v-1z" fill="#FCCCBE"/>
<path transform="translate(600,770)" d="m0 0 3 4-2 1-7-1-3 1 1-4h7z" fill="#DAC5C9"/>
<path transform="translate(563,746)" d="m0 0 1 4-5 3-4 3h-2l1-3 7-5h2z" fill="#F2C8D6"/>
<path transform="translate(513,727)" d="m0 0 3 1-2 5h-5l-1-4z" fill="#FCDFC2"/>
<path transform="translate(553,646)" d="m0 0 6 2v3l-1-1h-7l-3 3-2-1 5-5z" fill="#EBD1D4"/>
<path transform="translate(1804,895)" d="m0 0h1v12l3 1-3 1-1 3-1-9z" fill="#FCCCBE"/>
<path transform="translate(1681,827)" d="m0 0 4 1-1 5h-3v-2l-4-1z" fill="#FCCEBE"/>
<path transform="translate(1646,807)" d="m0 0h2l-1 4-1 16h-1l-1-18z" fill="#FCE4C3"/>
<path transform="translate(616,772)" d="m0 0 4 1v11l-1 4-2-1 1-7-3-7z" fill="#2C768C"/>
<path transform="translate(633,769)" d="m0 0 2 1-5 5v-3h-5l-1 4v-5l1-1z" fill="#FEEDD0"/>
<path transform="translate(638,695)" d="m0 0 2 1-2 3h-2v2l-6 4 2-5z" fill="#CF68C5"/>
<path transform="translate(364,887)" d="m0 0 4 1 2 5h-4v-3l-4 3 1-5z" fill="#AA8662"/>
<path transform="translate(572,852)" d="m0 0 2 2h-2v2l-4 1v2l-3 1v-3l4-4z" fill="#FDE0C5"/>
<path transform="translate(539,779)" d="m0 0h8l4 4h-2l-1 3-2-6-7 2-2 1z" fill="#FCDCC6"/>
<path transform="translate(454,690)" d="m0 0h2l3 5 6 5-2 1-6-4z" fill="#D68EBF"/>
<path transform="translate(444,680)" d="m0 0 2 2 1 3 6 3 1 2-6-1-4-4z" fill="#C2B0C5"/>
<path transform="translate(200,989)" d="m0 0h1l1 5 3 1v2l4 1h-9z" fill="#F3CFD6"/>
<path transform="translate(640,722)" d="m0 0 2 1v7l-5 3 1-4z" fill="#2F7C8A"/>
<path transform="translate(1265,518)" d="m0 0h5l1 4-1 2-3-1v-3l-4-1z" fill="#E28BD2"/>
<path transform="translate(614,857)" d="m0 0 2 1-1 2z" fill="#FFF5DB"/>
</svg>
